Niagara-Solid.ufo
<glyph name="exclam" format="1">
  <advance width="156"/>
  <unicode hex="0021"/>
  <outline>
    <contour>
      <point x="118" y="416" type="line"/>
      <point x="93" y="150" type="line"/>
      <point x="63" y="150" type="line"/>
      <point x="38" y="416" type="line"/>
      <point x="38" y="700" type="line"/>
      <point x="118" y="700" type="line"/>
    </contour>
    <contour>
      <point x="118" y="0" type="line"/>
      <point x="38" y="0" type="line"/>
      <point x="38" y="120" type="line"/>
      <point x="118" y="120" type="line"/>
    </contour>
  </outline>
</glyph>
<glyph name="numbersign" format="1">
  <advance width="350"/>
  <unicode hex="0023"/>
  <outline>
    <contour>
      <point x="345" y="490" type="line"/>
      <point x="302" y="490" type="line"/>
      <point x="278" y="210" type="line"/>
      <point x="325" y="210" type="line"/>
      <point x="325" y="192" type="line"/>
      <point x="276" y="192" type="line"/>
      <point x="260" y="0" type="line"/>
      <point x="182" y="0" type="line"/>
      <point x="198" y="192" type="line"/>
      <point x="124" y="192" type="line"/>
      <point x="108" y="0" type="line"/>
      <point x="30" y="0" type="line"/>
      <point x="46" y="192" type="line"/>
      <point x="5" y="192" type="line"/>
      <point x="5" y="210" type="line"/>
      <point x="48" y="210" type="line"/>
      <point x="72" y="490" type="line"/>
      <point x="25" y="490" type="line"/>
      <point x="25" y="508" type="line"/>
      <point x="74" y="508" type="line"/>
      <point x="90" y="700" type="line"/>
      <point x="168" y="700" type="line"/>
      <point x="152" y="508" type="line"/>
      <point x="226" y="508" type="line"/>
      <point x="242" y="700" type="line"/>
      <point x="320" y="700" type="line"/>
      <point x="304" y="508" type="line"/>
      <point x="345" y="508" type="line"/>
    </contour>
    <contour>
      <point x="224" y="490" type="line"/>
      <point x="150" y="490" type="line"/>
      <point x="126" y="210" type="line"/>
      <point x="200" y="210" type="line"/>
    </contour>
  </outline>
</glyph>
<glyph name="dollar" format="1">
  <advance width="282"/>
  <unicode hex="0024"/>
  <outline>
    <contour>
      <point x="256" y="102" type="line" smooth="yes"/>
      <point x="256" y="49"/>
      <point x="213" y="6"/>
      <point x="153" y="1" type="curve"/>
      <point x="153" y="-60" type="line"/>
      <point x="129" y="-60" type="line"/>
      <point x="129" y="0" type="line"/>
      <point x="69" y="6"/>
      <point x="26" y="49"/>
      <point x="26" y="102" type="curve" smooth="yes"/>
      <point x="26" y="210" type="line"/>
      <point x="106" y="210" type="line"/>
      <point x="106" y="58" type="line" smooth="yes"/>
      <point x="106" y="36"/>
      <point x="119" y="18"/>
      <point x="141" y="18" type="curve" smooth="yes"/>
      <point x="163" y="18"/>
      <point x="176" y="36"/>
      <point x="176" y="58" type="curve" smooth="yes"/>
      <point x="176" y="175" type="line" smooth="yes"/>
      <point x="176" y="211"/>
      <point x="171" y="232"/>
      <point x="152" y="262" type="curve" smooth="yes"/>
      <point x="52" y="418" type="line" smooth="yes"/>
      <point x="33" y="448"/>
      <point x="26" y="474"/>
      <point x="26" y="508" type="curve" smooth="yes"/>
      <point x="26" y="598" type="line" smooth="yes"/>
      <point x="26" y="651"/>
      <point x="69" y="694"/>
      <point x="129" y="699" type="curve"/>
      <point x="129" y="760" type="line"/>
      <point x="153" y="760" type="line"/>
      <point x="153" y="699" type="line"/>
      <point x="213" y="694"/>
      <point x="256" y="651"/>
      <point x="256" y="598" type="curve" smooth="yes"/>
      <point x="256" y="490" type="line"/>
      <point x="176" y="490" type="line"/>
      <point x="176" y="642" type="line" smooth="yes"/>
      <point x="176" y="664"/>
      <point x="163" y="682"/>
      <point x="141" y="682" type="curve" smooth="yes"/>
      <point x="119" y="682"/>
      <point x="106" y="664"/>
      <point x="106" y="642" type="curve" smooth="yes"/>
      <point x="106" y="530" type="line" smooth="yes"/>
      <point x="106" y="494"/>
      <point x="111" y="473"/>
      <point x="130" y="443" type="curve" smooth="yes"/>
      <point x="230" y="287" type="line" smooth="yes"/>
      <point x="249" y="257"/>
      <point x="256" y="231"/>
      <point x="256" y="197" type="curve" smooth="yes"/>
    </contour>
  </outline>
</glyph>
<glyph name="ampersand" format="1">
  <advance width="308"/>
  <unicode hex="0026"/>
  <outline>
    <contour>
      <point x="295" y="361" type="line"/>
      <point x="270" y="361" type="line"/>
      <point x="270" y="97" type="line" smooth="yes"/>
      <point x="270" y="41"/>
      <point x="216" y="-5"/>
      <point x="150" y="-5" type="curve" smooth="yes"/>
      <point x="84" y="-5"/>
      <point x="30" y="41"/>
      <point x="30" y="97" type="curve" smooth="yes"/>
      <point x="30" y="277" type="line" smooth="yes"/>
      <point x="30" y="318"/>
      <point x="59" y="353"/>
      <point x="100" y="370" type="curve"/>
      <point x="59" y="386"/>
      <point x="30" y="422"/>
      <point x="30" y="463" type="curve" smooth="yes"/>
      <point x="30" y="603" type="line" smooth="yes"/>
      <point x="30" y="659"/>
      <point x="84" y="705"/>
      <point x="150" y="705" type="curve" smooth="yes"/>
      <point x="216" y="705"/>
      <point x="270" y="659"/>
      <point x="270" y="603" type="curve" smooth="yes"/>
      <point x="270" y="490" type="line"/>
      <point x="190" y="490" type="line"/>
      <point x="190" y="647" type="line" smooth="yes"/>
      <point x="190" y="669"/>
      <point x="172" y="687"/>
      <point x="150" y="687" type="curve" smooth="yes"/>
      <point x="128" y="687"/>
      <point x="110" y="669"/>
      <point x="110" y="647" type="curve" smooth="yes"/>
      <point x="110" y="419" type="line" smooth="yes"/>
      <point x="110" y="397"/>
      <point x="128" y="379"/>
      <point x="150" y="379" type="curve" smooth="yes"/>
      <point x="295" y="379" type="line"/>
    </contour>
    <contour>
      <point x="190" y="53" type="curve" smooth="yes"/>
      <point x="190" y="361" type="line"/>
      <point x="150" y="361" type="line" smooth="yes"/>
      <point x="128" y="361"/>
      <point x="110" y="343"/>
      <point x="110" y="321" type="curve" smooth="yes"/>
      <point x="110" y="53" type="line" smooth="yes"/>
      <point x="110" y="31"/>
      <point x="128" y="13"/>
      <point x="150" y="13" type="curve" smooth="yes"/>
      <point x="172" y="13"/>
      <point x="190" y="31"/>
    </contour>
  </outline>
</glyph>
<glyph name="quotesingle" format="1">
  <advance width="132"/>
  <unicode hex="0027"/>
  <outline>
    <contour>
      <point x="106" y="682" type="line"/>
      <point x="82" y="490" type="line"/>
      <point x="50" y="490" type="line"/>
      <point x="26" y="682" type="line"/>
      <point x="26" y="700" type="line"/>
      <point x="106" y="700" type="line"/>
    </contour>
  </outline>
</glyph>
<glyph name="parenleft" format="1">
  <advance width="175"/>
  <unicode hex="0028"/>
  <outline>
    <contour>
      <point x="158" y="0" type="line"/>
      <point x="143" y="0" type="line" smooth="yes"/>
      <point x="77" y="0"/>
      <point x="30" y="46"/>
      <point x="30" y="102" type="curve" smooth="yes"/>
      <point x="30" y="598" type="line" smooth="yes"/>
      <point x="30" y="654"/>
      <point x="77" y="700"/>
      <point x="143" y="700" type="curve" smooth="yes"/>
      <point x="158" y="700" type="line"/>
      <point x="158" y="682" type="line"/>
      <point x="143" y="682" type="line" smooth="yes"/>
      <point x="121" y="682"/>
      <point x="108" y="664"/>
      <point x="108" y="642" type="curve" smooth="yes"/>
      <point x="108" y="58" type="line" smooth="yes"/>
      <point x="108" y="36"/>
      <point x="121" y="18"/>
      <point x="143" y="18" type="curve" smooth="yes"/>
      <point x="158" y="18" type="line"/>
    </contour>
  </outline>
</glyph>
<glyph name="parenright" format="1">
  <advance width="175"/>
  <unicode hex="0029"/>
  <outline>
    <contour>
      <point x="145" y="102" type="line" smooth="yes"/>
      <point x="145" y="46"/>
      <point x="98" y="0"/>
      <point x="32" y="0" type="curve" smooth="yes"/>
      <point x="17" y="0" type="line"/>
      <point x="17" y="18" type="line"/>
      <point x="32" y="18" type="line" smooth="yes"/>
      <point x="54" y="18"/>
      <point x="67" y="36"/>
      <point x="67" y="58" type="curve" smooth="yes"/>
      <point x="67" y="642" type="line" smooth="yes"/>
      <point x="67" y="664"/>
      <point x="54" y="682"/>
      <point x="32" y="682" type="curve" smooth="yes"/>
      <point x="17" y="682" type="line"/>
      <point x="17" y="700" type="line"/>
      <point x="32" y="700" type="line" smooth="yes"/>
      <point x="98" y="700"/>
      <point x="145" y="654"/>
      <point x="145" y="598" type="curve" smooth="yes"/>
    </contour>
  </outline>
</glyph>
<glyph name="asterisk" format="1">
  <advance width="270"/>
  <unicode hex="002A"/>
  <outline>
    <contour>
      <point x="245" y="518" type="line"/>
      <point x="240" y="510" type="line"/>
      <point x="160" y="531" type="line"/>
      <point x="140" y="456" type="line"/>
      <point x="130" y="456" type="line"/>
      <point x="110" y="531" type="line"/>
      <point x="30" y="510" type="line"/>
      <point x="25" y="518" type="line"/>
      <point x="88" y="578" type="line"/>
      <point x="25" y="638" type="line"/>
      <point x="30" y="646" type="line"/>
      <point x="110" y="625" type="line"/>
      <point x="130" y="700" type="line"/>
      <point x="140" y="700" type="line"/>
      <point x="160" y="625" type="line"/>
      <point x="240" y="646" type="line"/>
      <point x="245" y="638" type="line"/>
      <point x="182" y="578" type="line"/>
    </contour>
  </outline>
</glyph>
<glyph name="comma" format="1">
  <advance width="125"/>
  <unicode hex="002C"/>
  <outline>
    <contour>
      <point x="110" y="104" type="line"/>
      <point x="54" y="-60" type="line"/>
      <point x="17" y="-60" type="line"/>
      <point x="33" y="120" type="line"/>
      <point x="110" y="120" type="line"/>
    </contour>
  </outline>
</glyph>
<glyph name="two" format="1">
  <advance width="290"/>
  <unicode hex="0032"/>
  <outline>
    <contour>
      <point x="260" y="0" type="line"/>
      <point x="30" y="0" type="line"/>
      <point x="30" y="192" type="line" smooth="yes"/>
      <point x="30" y="226"/>
      <point x="37" y="252"/>
      <point x="56" y="282" type="curve" smooth="yes"/>
      <point x="156" y="438" type="line" smooth="yes"/>
      <point x="175" y="468"/>
      <point x="180" y="489"/>
      <point x="180" y="525" type="curve" smooth="yes"/>
      <point x="180" y="647" type="line" smooth="yes"/>
      <point x="180" y="669"/>
      <point x="167" y="687"/>
      <point x="145" y="687" type="curve" smooth="yes"/>
      <point x="123" y="687"/>
      <point x="110" y="669"/>
      <point x="110" y="647" type="curve" smooth="yes"/>
      <point x="110" y="490" type="line"/>
      <point x="30" y="490" type="line"/>
      <point x="30" y="603" type="line" smooth="yes"/>
      <point x="30" y="659"/>
      <point x="79" y="705"/>
      <point x="145" y="705" type="curve" smooth="yes"/>
      <point x="211" y="705"/>
      <point x="260" y="659"/>
      <point x="260" y="603" type="curve" smooth="yes"/>
      <point x="260" y="503" type="line" smooth="yes"/>
      <point x="260" y="469"/>
      <point x="253" y="443"/>
      <point x="234" y="413" type="curve" smooth="yes"/>
      <point x="134" y="257" type="line" smooth="yes"/>
      <point x="115" y="227"/>
      <point x="110" y="206"/>
      <point x="110" y="170" type="curve" smooth="yes"/>
      <point x="110" y="18" type="line"/>
      <point x="180" y="18" type="line"/>
      <point x="180" y="210" type="line"/>
      <point x="260" y="210" type="line"/>
    </contour>
  </outline>
</glyph>
<glyph name="three" format="1">
  <advance width="290"/>
  <unicode hex="0033"/>
  <outline>
    <contour>
      <point x="260" y="97" type="line" smooth="yes"/>
      <point x="260" y="38"/>
      <point x="210" y="-5"/>
      <point x="144" y="-5" type="curve" smooth="yes"/>
      <point x="78" y="-5"/>
      <point x="28" y="38"/>
      <point x="28" y="97" type="curve" smooth="yes"/>
      <point x="28" y="210" type="line"/>
      <point x="108" y="210" type="line"/>
      <point x="108" y="53" type="line" smooth="yes"/>
      <point x="108" y="29"/>
      <point x="122" y="13"/>
      <point x="144" y="13" type="curve" smooth="yes"/>
      <point x="166" y="13"/>
      <point x="180" y="29"/>
      <point x="180" y="53" type="curve" smooth="yes"/>
      <point x="180" y="321" type="line" smooth="yes"/>
      <point x="180" y="343"/>
      <point x="162" y="361"/>
      <point x="140" y="361" type="curve" smooth="yes"/>
      <point x="79" y="361" type="line"/>
      <point x="79" y="379" type="line"/>
      <point x="140" y="379" type="line" smooth="yes"/>
      <point x="162" y="379"/>
      <point x="180" y="397"/>
      <point x="180" y="419" type="curve" smooth="yes"/>
      <point x="180" y="647" type="line" smooth="yes"/>
      <point x="180" y="671"/>
      <point x="166" y="687"/>
      <point x="144" y="687" type="curve" smooth="yes"/>
      <point x="122" y="687"/>
      <point x="108" y="671"/>
      <point x="108" y="647" type="curve" smooth="yes"/>
      <point x="108" y="490" type="line"/>
      <point x="28" y="490" type="line"/>
      <point x="28" y="603" type="line" smooth="yes"/>
      <point x="28" y="662"/>
      <point x="78" y="705"/>
      <point x="144" y="705" type="curve" smooth="yes"/>
      <point x="210" y="705"/>
      <point x="260" y="662"/>
      <point x="260" y="603" type="curve" smooth="yes"/>
      <point x="260" y="463" type="line" smooth="yes"/>
      <point x="260" y="420"/>
      <point x="231" y="386"/>
      <point x="190" y="370" type="curve"/>
      <point x="231" y="353"/>
      <point x="260" y="320"/>
      <point x="260" y="277" type="curve" smooth="yes"/>
    </contour>
  </outline>
</glyph>
<glyph name="four" format="1">
  <advance width="260"/>
  <unicode hex="0034"/>
  <outline>
    <contour>
      <point x="248" y="0" type="line"/>
      <point x="118" y="0" type="line"/>
      <point x="118" y="18" type="line"/>
      <point x="143" y="18" type="line"/>
      <point x="143" y="161" type="line"/>
      <point x="8" y="161" type="line"/>
      <point x="8" y="182" type="line"/>
      <point x="143" y="700" type="line"/>
      <point x="223" y="700" type="line"/>
      <point x="223" y="182" type="line"/>
      <point x="248" y="182" type="line"/>
      <point x="248" y="161" type="line"/>
      <point x="223" y="161" type="line"/>
      <point x="223" y="18" type="line"/>
      <point x="248" y="18" type="line"/>
    </contour>
    <contour>
      <point x="143" y="182" type="line"/>
      <point x="143" y="616" type="line"/>
      <point x="31" y="182" type="line"/>
    </contour>
  </outline>
</glyph>
<glyph name="five" format="1">
  <advance width="300"/>
  <unicode hex="0035"/>
  <outline>
    <contour>
      <point x="270" y="97" type="line" smooth="yes"/>
      <point x="270" y="41"/>
      <point x="216" y="-5"/>
      <point x="150" y="-5" type="curve" smooth="yes"/>
      <point x="84" y="-5"/>
      <point x="30" y="41"/>
      <point x="30" y="97" type="curve" smooth="yes"/>
      <point x="30" y="210" type="line"/>
      <point x="110" y="210" type="line"/>
      <point x="110" y="53" type="line" smooth="yes"/>
      <point x="110" y="31"/>
      <point x="128" y="13"/>
      <point x="150" y="13" type="curve" smooth="yes"/>
      <point x="172" y="13"/>
      <point x="190" y="31"/>
      <point x="190" y="53" type="curve" smooth="yes"/>
      <point x="190" y="321" type="line" smooth="yes"/>
      <point x="190" y="343"/>
      <point x="172" y="361"/>
      <point x="150" y="361" type="curve" smooth="yes"/>
      <point x="35" y="361" type="line"/>
      <point x="35" y="700" type="line"/>
      <point x="260" y="700" type="line"/>
      <point x="260" y="490" type="line"/>
      <point x="180" y="490" type="line"/>
      <point x="180" y="682" type="line"/>
      <point x="115" y="682" type="line"/>
      <point x="115" y="379" type="line"/>
      <point x="150" y="379" type="line" smooth="yes"/>
      <point x="216" y="379"/>
      <point x="270" y="333"/>
      <point x="270" y="277" type="curve" smooth="yes"/>
    </contour>
  </outline>
</glyph>
<glyph name="six" format="1">
  <advance width="300"/>
  <unicode hex="0036"/>
  <outline>
    <contour>
      <point x="270" y="97" type="line" smooth="yes"/>
      <point x="270" y="41"/>
      <point x="216" y="-5"/>
      <point x="150" y="-5" type="curve" smooth="yes"/>
      <point x="84" y="-5"/>
      <point x="30" y="41"/>
      <point x="30" y="97" type="curve" smooth="yes"/>
      <point x="30" y="603" type="line" smooth="yes"/>
      <point x="30" y="659"/>
      <point x="84" y="705"/>
      <point x="150" y="705" type="curve" smooth="yes"/>
      <point x="216" y="705"/>
      <point x="270" y="659"/>
      <point x="270" y="603" type="curve" smooth="yes"/>
      <point x="270" y="490" type="line"/>
      <point x="190" y="490" type="line"/>
      <point x="190" y="647" type="line" smooth="yes"/>
      <point x="190" y="669"/>
      <point x="172" y="687"/>
      <point x="150" y="687" type="curve" smooth="yes"/>
      <point x="128" y="687"/>
      <point x="110" y="669"/>
      <point x="110" y="647" type="curve" smooth="yes"/>
      <point x="110" y="365" type="line"/>
      <point x="123" y="376"/>
      <point x="145" y="384"/>
      <point x="171" y="384" type="curve" smooth="yes"/>
      <point x="230" y="384"/>
      <point x="270" y="354"/>
      <point x="270" y="292" type="curve" smooth="yes"/>
    </contour>
    <contour>
      <point x="190" y="53" type="curve" smooth="yes"/>
      <point x="190" y="326" type="line" smooth="yes"/>
      <point x="190" y="348"/>
      <point x="174" y="364"/>
      <point x="150" y="364" type="curve" smooth="yes"/>
      <point x="137" y="364"/>
      <point x="123" y="359"/>
      <point x="110" y="347" type="curve"/>
      <point x="110" y="53" type="line" smooth="yes"/>
      <point x="110" y="31"/>
      <point x="128" y="13"/>
      <point x="150" y="13" type="curve" smooth="yes"/>
      <point x="172" y="13"/>
      <point x="190" y="31"/>
    </contour>
  </outline>
</glyph>
<glyph name="seven" format="1">
  <advance width="277"/>
  <unicode hex="0037"/>
  <outline>
    <contour>
      <point x="262" y="682" type="line"/>
      <point x="144" y="0" type="line"/>
      <point x="65" y="0" type="line"/>
      <point x="183" y="682" type="line"/>
      <point x="95" y="682" type="line"/>
      <point x="95" y="490" type="line"/>
      <point x="17" y="490" type="line"/>
      <point x="17" y="700" type="line"/>
      <point x="262" y="700" type="line"/>
    </contour>
  </outline>
</glyph>
<glyph name="nine" format="1">
  <advance width="300"/>
  <unicode hex="0039"/>
  <outline>
    <contour>
      <point x="270" y="97" type="line" smooth="yes"/>
      <point x="270" y="41"/>
      <point x="216" y="-5"/>
      <point x="150" y="-5" type="curve" smooth="yes"/>
      <point x="84" y="-5"/>
      <point x="30" y="41"/>
      <point x="30" y="97" type="curve" smooth="yes"/>
      <point x="30" y="210" type="line"/>
      <point x="110" y="210" type="line"/>
      <point x="110" y="53" type="line" smooth="yes"/>
      <point x="110" y="31"/>
      <point x="128" y="13"/>
      <point x="150" y="13" type="curve" smooth="yes"/>
      <point x="172" y="13"/>
      <point x="190" y="31"/>
      <point x="190" y="53" type="curve" smooth="yes"/>
      <point x="190" y="335" type="line"/>
      <point x="177" y="324"/>
      <point x="155" y="316"/>
      <point x="129" y="316" type="curve" smooth="yes"/>
      <point x="70" y="316"/>
      <point x="30" y="346"/>
      <point x="30" y="408" type="curve" smooth="yes"/>
      <point x="30" y="603" type="line" smooth="yes"/>
      <point x="30" y="659"/>
      <point x="84" y="705"/>
      <point x="150" y="705" type="curve" smooth="yes"/>
      <point x="216" y="705"/>
      <point x="270" y="659"/>
      <point x="270" y="603" type="curve" smooth="yes"/>
    </contour>
    <contour>
      <point x="190" y="353" type="curve"/>
      <point x="190" y="647" type="line" smooth="yes"/>
      <point x="190" y="669"/>
      <point x="172" y="687"/>
      <point x="150" y="687" type="curve" smooth="yes"/>
      <point x="128" y="687"/>
      <point x="110" y="669"/>
      <point x="110" y="647" type="curve" smooth="yes"/>
      <point x="110" y="374" type="line" smooth="yes"/>
      <point x="110" y="352"/>
      <point x="126" y="336"/>
      <point x="150" y="336" type="curve" smooth="yes"/>
      <point x="163" y="336"/>
      <point x="177" y="341"/>
    </contour>
  </outline>
</glyph>
<glyph name="colon" format="1">
  <advance width="125"/>
  <unicode hex="003A"/>
  <outline>
    <contour>
      <point x="101" y="259" type="line"/>
      <point x="24" y="259" type="line"/>
      <point x="24" y="379" type="line"/>
      <point x="101" y="379" type="line"/>
    </contour>
    <contour>
      <point x="101" y="0" type="line"/>
      <point x="24" y="0" type="line"/>
      <point x="24" y="120" type="line"/>
      <point x="101" y="120" type="line"/>
    </contour>
  </outline>
</glyph>
<glyph name="semicolon" format="1">
  <advance width="125"/>
  <unicode hex="003B"/>
  <outline>
    <contour>
      <point x="103" y="259" type="line"/>
      <point x="26" y="259" type="line"/>
      <point x="26" y="379" type="line"/>
      <point x="103" y="379" type="line"/>
    </contour>
    <contour>
      <point x="103" y="104" type="line"/>
      <point x="47" y="-60" type="line"/>
      <point x="10" y="-60" type="line"/>
      <point x="26" y="120" type="line"/>
      <point x="103" y="120" type="line"/>
    </contour>
  </outline>
</glyph>
<glyph name="question" format="1">
  <advance width="274"/>
  <unicode hex="003F"/>
  <outline>
    <contour>
      <point x="250" y="503" type="line" smooth="yes"/>
      <point x="250" y="469"/>
      <point x="243" y="443"/>
      <point x="224" y="413" type="curve" smooth="yes"/>
      <point x="199" y="374" type="line" smooth="yes"/>
      <point x="174" y="335"/>
      <point x="166" y="319"/>
      <point x="162" y="280" type="curve" smooth="yes"/>
      <point x="150" y="150" type="line"/>
      <point x="120" y="150" type="line"/>
      <point x="106" y="300" type="line" smooth="yes"/>
      <point x="105" y="316"/>
      <point x="104" y="328"/>
      <point x="104" y="339" type="curve" smooth="yes"/>
      <point x="104" y="364"/>
      <point x="108" y="379"/>
      <point x="121" y="399" type="curve" smooth="yes"/>
      <point x="146" y="438" type="line" smooth="yes"/>
      <point x="165" y="468"/>
      <point x="170" y="489"/>
      <point x="170" y="525" type="curve" smooth="yes"/>
      <point x="170" y="647" type="line" smooth="yes"/>
      <point x="170" y="669"/>
      <point x="157" y="687"/>
      <point x="135" y="687" type="curve" smooth="yes"/>
      <point x="113" y="687"/>
      <point x="100" y="669"/>
      <point x="100" y="647" type="curve" smooth="yes"/>
      <point x="100" y="490" type="line"/>
      <point x="20" y="490" type="line"/>
      <point x="20" y="603" type="line" smooth="yes"/>
      <point x="20" y="659"/>
      <point x="69" y="705"/>
      <point x="135" y="705" type="curve" smooth="yes"/>
      <point x="201" y="705"/>
      <point x="250" y="659"/>
      <point x="250" y="603" type="curve" smooth="yes"/>
    </contour>
    <contour>
      <point x="175" y="0" type="line"/>
      <point x="95" y="0" type="line"/>
      <point x="95" y="120" type="line"/>
      <point x="175" y="120" type="line"/>
    </contour>
  </outline>
</glyph>
<glyph name="A" format="1">
  <advance width="275"/>
  <unicode hex="0041"/>
  <outline>
    <contour>
      <point x="270" y="0" type="line"/>
      <point x="140" y="0" type="line"/>
      <point x="140" y="18" type="line"/>
      <point x="165" y="18" type="line"/>
      <point x="147" y="221" type="line"/>
      <point x="75" y="221" type="line"/>
      <point x="55" y="18" type="line"/>
      <point x="80" y="18" type="line"/>
      <point x="80" y="0" type="line"/>
      <point x="5" y="0" type="line"/>
      <point x="5" y="18" type="line"/>
      <point x="30" y="18" type="line"/>
      <point x="100" y="700" type="line"/>
      <point x="180" y="700" type="line"/>
      <point x="245" y="18" type="line"/>
      <point x="270" y="18" type="line"/>
    </contour>
    <contour>
      <point x="146" y="239" type="line"/>
      <point x="113" y="617" type="line"/>
      <point x="76" y="239" type="line"/>
    </contour>
  </outline>
</glyph>
<glyph name="B" format="1">
  <advance width="305"/>
  <unicode hex="0042"/>
  <outline>
    <contour>
      <point x="275" y="102" type="line" smooth="yes"/>
      <point x="275" y="46"/>
      <point x="221" y="0"/>
      <point x="155" y="0" type="curve" smooth="yes"/>
      <point x="15" y="0" type="line"/>
      <point x="15" y="18" type="line"/>
      <point x="40" y="18" type="line"/>
      <point x="40" y="682" type="line"/>
      <point x="15" y="682" type="line"/>
      <point x="15" y="700" type="line"/>
      <point x="155" y="700" type="line" smooth="yes"/>
      <point x="221" y="700"/>
      <point x="275" y="654"/>
      <point x="275" y="598" type="curve" smooth="yes"/>
      <point x="275" y="463" type="line" smooth="yes"/>
      <point x="275" y="422"/>
      <point x="246" y="386"/>
      <point x="205" y="370" type="curve"/>
      <point x="246" y="353"/>
      <point x="275" y="318"/>
      <point x="275" y="277" type="curve" smooth="yes"/>
    </contour>
    <contour>
      <point x="195" y="419" type="curve" smooth="yes"/>
      <point x="195" y="642" type="line" smooth="yes"/>
      <point x="195" y="664"/>
      <point x="177" y="682"/>
      <point x="155" y="682" type="curve" smooth="yes"/>
      <point x="120" y="682" type="line"/>
      <point x="120" y="379" type="line"/>
      <point x="155" y="379" type="line" smooth="yes"/>
      <point x="177" y="379"/>
      <point x="195" y="397"/>
    </contour>
    <contour>
      <point x="195" y="58" type="curve" smooth="yes"/>
      <point x="195" y="321" type="line" smooth="yes"/>
      <point x="195" y="343"/>
      <point x="177" y="361"/>
      <point x="155" y="361" type="curve" smooth="yes"/>
      <point x="120" y="361" type="line"/>
      <point x="120" y="18" type="line"/>
      <point x="155" y="18" type="line" smooth="yes"/>
      <point x="177" y="18"/>
      <point x="195" y="36"/>
    </contour>
  </outline>
</glyph>
<glyph name="C" format="1">
  <advance width="300"/>
  <unicode hex="0043"/>
  <outline>
    <contour>
      <point x="270" y="97" type="line" smooth="yes"/>
      <point x="270" y="41"/>
      <point x="216" y="-5"/>
      <point x="150" y="-5" type="curve" smooth="yes"/>
      <point x="84" y="-5"/>
      <point x="30" y="41"/>
      <point x="30" y="97" type="curve" smooth="yes"/>
      <point x="30" y="603" type="line" smooth="yes"/>
      <point x="30" y="659"/>
      <point x="84" y="705"/>
      <point x="150" y="705" type="curve" smooth="yes"/>
      <point x="216" y="705"/>
      <point x="270" y="659"/>
      <point x="270" y="603" type="curve" smooth="yes"/>
      <point x="270" y="490" type="line"/>
      <point x="190" y="490" type="line"/>
      <point x="190" y="647" type="line" smooth="yes"/>
      <point x="190" y="669"/>
      <point x="172" y="687"/>
      <point x="150" y="687" type="curve" smooth="yes"/>
      <point x="128" y="687"/>
      <point x="110" y="669"/>
      <point x="110" y="647" type="curve" smooth="yes"/>
      <point x="110" y="53" type="line" smooth="yes"/>
      <point x="110" y="31"/>
      <point x="128" y="13"/>
      <point x="150" y="13" type="curve" smooth="yes"/>
      <point x="172" y="13"/>
      <point x="190" y="31"/>
      <point x="190" y="53" type="curve" smooth="yes"/>
      <point x="190" y="210" type="line"/>
      <point x="270" y="210" type="line"/>
    </contour>
  </outline>
</glyph>
<glyph name="F" format="1">
  <advance width="275"/>
  <unicode hex="0046"/>
  <outline>
    <contour>
      <point x="260" y="490" type="line"/>
      <point x="180" y="490" type="line"/>
      <point x="180" y="682" type="line"/>
      <point x="120" y="682" type="line"/>
      <point x="120" y="379" type="line"/>
      <point x="210" y="379" type="line"/>
      <point x="210" y="361" type="line"/>
      <point x="120" y="361" type="line"/>
      <point x="120" y="18" type="line"/>
      <point x="145" y="18" type="line"/>
      <point x="145" y="0" type="line"/>
      <point x="15" y="0" type="line"/>
      <point x="15" y="18" type="line"/>
      <point x="40" y="18" type="line"/>
      <point x="40" y="682" type="line"/>
      <point x="15" y="682" type="line"/>
      <point x="15" y="700" type="line"/>
      <point x="260" y="700" type="line"/>
    </contour>
  </outline>
</glyph>
<glyph name="H" format="1">
  <advance width="320"/>
  <unicode hex="0048"/>
  <outline>
    <contour>
      <point x="305" y="0" type="line"/>
      <point x="175" y="0" type="line"/>
      <point x="175" y="18" type="line"/>
      <point x="200" y="18" type="line"/>
      <point x="200" y="361" type="line"/>
      <point x="120" y="361" type="line"/>
      <point x="120" y="18" type="line"/>
      <point x="145" y="18" type="line"/>
      <point x="145" y="0" type="line"/>
      <point x="15" y="0" type="line"/>
      <point x="15" y="18" type="line"/>
      <point x="40" y="18" type="line"/>
      <point x="40" y="682" type="line"/>
      <point x="15" y="682" type="line"/>
      <point x="15" y="700" type="line"/>
      <point x="145" y="700" type="line"/>
      <point x="145" y="682" type="line"/>
      <point x="120" y="682" type="line"/>
      <point x="120" y="379" type="line"/>
      <point x="200" y="379" type="line"/>
      <point x="200" y="682" type="line"/>
      <point x="175" y="682" type="line"/>
      <point x="175" y="700" type="line"/>
      <point x="305" y="700" type="line"/>
      <point x="305" y="682" type="line"/>
      <point x="280" y="682" type="line"/>
      <point x="280" y="18" type="line"/>
      <point x="305" y="18" type="line"/>
    </contour>
  </outline>
</glyph>
<glyph name="I" format="1">
  <advance width="164"/>
  <unicode hex="0049"/>
  <outline>
    <contour>
      <point x="147" y="0" type="line"/>
      <point x="17" y="0" type="line"/>
      <point x="17" y="18" type="line"/>
      <point x="42" y="18" type="line"/>
      <point x="42" y="682" type="line"/>
      <point x="17" y="682" type="line"/>
      <point x="17" y="700" type="line"/>
      <point x="147" y="700" type="line"/>
      <point x="147" y="682" type="line"/>
      <point x="122" y="682" type="line"/>
      <point x="122" y="18" type="line"/>
      <point x="147" y="18" type="line"/>
    </contour>
  </outline>
</glyph>
<glyph name="J" format="1">
  <advance width="275"/>
  <unicode hex="004A"/>
  <outline>
    <contour>
      <point x="265" y="682" type="line"/>
      <point x="240" y="682" type="line"/>
      <point x="240" y="87" type="line" smooth="yes"/>
      <point x="240" y="37"/>
      <point x="196" y="-5"/>
      <point x="130" y="-5" type="curve" smooth="yes"/>
      <point x="64" y="-5"/>
      <point x="20" y="37"/>
      <point x="20" y="87" type="curve" smooth="yes"/>
      <point x="20" y="210" type="line"/>
      <point x="100" y="210" type="line"/>
      <point x="100" y="49" type="line" smooth="yes"/>
      <point x="100" y="30"/>
      <point x="108" y="13"/>
      <point x="130" y="13" type="curve" smooth="yes"/>
      <point x="152" y="13"/>
      <point x="160" y="30"/>
      <point x="160" y="49" type="curve" smooth="yes"/>
      <point x="160" y="682" type="line"/>
      <point x="135" y="682" type="line"/>
      <point x="135" y="700" type="line"/>
      <point x="265" y="700" type="line"/>
    </contour>
  </outline>
</glyph>
<glyph name="K" format="1">
  <advance width="310"/>
  <unicode hex="004B"/>
  <outline>
    <contour>
      <point x="305" y="0" type="line"/>
      <point x="208" y="0" type="line"/>
      <point x="120" y="340" type="line"/>
      <point x="120" y="18" type="line"/>
      <point x="145" y="18" type="line"/>
      <point x="145" y="0" type="line"/>
      <point x="15" y="0" type="line"/>
      <point x="15" y="18" type="line"/>
      <point x="40" y="18" type="line"/>
      <point x="40" y="682" type="line"/>
      <point x="15" y="682" type="line"/>
      <point x="15" y="700" type="line"/>
      <point x="145" y="700" type="line"/>
      <point x="145" y="682" type="line"/>
      <point x="120" y="682" type="line"/>
      <point x="120" y="379" type="line"/>
      <point x="230" y="682" type="line"/>
      <point x="205" y="682" type="line"/>
      <point x="205" y="700" type="line"/>
      <point x="280" y="700" type="line"/>
      <point x="280" y="682" type="line"/>
      <point x="255" y="682" type="line"/>
      <point x="169" y="445" type="line"/>
      <point x="280" y="18" type="line"/>
      <point x="305" y="18" type="line"/>
    </contour>
  </outline>
</glyph>
<glyph name="L" format="1">
  <advance width="275"/>
  <unicode hex="004C"/>
  <outline>
    <contour>
      <point x="260" y="0" type="line"/>
      <point x="15" y="0" type="line"/>
      <point x="15" y="18" type="line"/>
      <point x="40" y="18" type="line"/>
      <point x="40" y="682" type="line"/>
      <point x="15" y="682" type="line"/>
      <point x="15" y="700" type="line"/>
      <point x="145" y="700" type="line"/>
      <point x="145" y="682" type="line"/>
      <point x="120" y="682" type="line"/>
      <point x="120" y="18" type="line"/>
      <point x="180" y="18" type="line"/>
      <point x="180" y="210" type="line"/>
      <point x="260" y="210" type="line"/>
    </contour>
  </outline>
</glyph>
<glyph name="M" format="1">
  <advance width="371"/>
  <unicode hex="004D"/>
  <outline>
    <contour>
      <point x="356" y="0" type="line"/>
      <point x="226" y="0" type="line"/>
      <point x="226" y="18" type="line"/>
      <point x="251" y="18" type="line"/>
      <point x="251" y="495" type="line"/>
      <point x="195" y="0" type="line"/>
      <point x="131" y="0" type="line"/>
      <point x="65" y="495" type="line"/>
      <point x="65" y="18" type="line"/>
      <point x="90" y="18" type="line"/>
      <point x="90" y="0" type="line"/>
      <point x="15" y="0" type="line"/>
      <point x="15" y="18" type="line"/>
      <point x="40" y="18" type="line"/>
      <point x="40" y="682" type="line"/>
      <point x="15" y="682" type="line"/>
      <point x="15" y="700" type="line"/>
      <point x="121" y="700" type="line"/>
      <point x="190" y="155" type="line"/>
      <point x="250" y="700" type="line"/>
      <point x="356" y="700" type="line"/>
      <point x="356" y="682" type="line"/>
      <point x="331" y="682" type="line"/>
      <point x="331" y="18" type="line"/>
      <point x="356" y="18" type="line"/>
    </contour>
  </outline>
</glyph>
<glyph name="N" format="1">
  <advance width="290"/>
  <unicode hex="004E"/>
  <outline>
    <contour>
      <point x="275" y="682" type="line"/>
      <point x="250" y="682" type="line"/>
      <point x="250" y="0" type="line"/>
      <point x="186" y="0" type="line"/>
      <point x="65" y="545" type="line"/>
      <point x="65" y="18" type="line"/>
      <point x="90" y="18" type="line"/>
      <point x="90" y="0" type="line"/>
      <point x="15" y="0" type="line"/>
      <point x="15" y="18" type="line"/>
      <point x="40" y="18" type="line"/>
      <point x="40" y="682" type="line"/>
      <point x="15" y="682" type="line"/>
      <point x="15" y="700" type="line"/>
      <point x="116" y="700" type="line"/>
      <point x="225" y="214" type="line"/>
      <point x="225" y="682" type="line"/>
      <point x="200" y="682" type="line"/>
      <point x="200" y="700" type="line"/>
      <point x="275" y="700" type="line"/>
    </contour>
  </outline>
</glyph>
<glyph name="P" format="1">
  <advance width="295"/>
  <unicode hex="0050"/>
  <outline>
    <contour>
      <point x="275" y="402" type="line" smooth="yes"/>
      <point x="275" y="346"/>
      <point x="221" y="300"/>
      <point x="155" y="300" type="curve" smooth="yes"/>
      <point x="120" y="300" type="line"/>
      <point x="120" y="18" type="line"/>
      <point x="145" y="18" type="line"/>
      <point x="145" y="0" type="line"/>
      <point x="15" y="0" type="line"/>
      <point x="15" y="18" type="line"/>
      <point x="40" y="18" type="line"/>
      <point x="40" y="682" type="line"/>
      <point x="15" y="682" type="line"/>
      <point x="15" y="700" type="line"/>
      <point x="155" y="700" type="line" smooth="yes"/>
      <point x="221" y="700"/>
      <point x="275" y="654"/>
      <point x="275" y="598" type="curve" smooth="yes"/>
    </contour>
    <contour>
      <point x="195" y="358" type="curve" smooth="yes"/>
      <point x="195" y="642" type="line" smooth="yes"/>
      <point x="195" y="664"/>
      <point x="177" y="682"/>
      <point x="155" y="682" type="curve" smooth="yes"/>
      <point x="120" y="682" type="line"/>
      <point x="120" y="318" type="line"/>
      <point x="155" y="318" type="line" smooth="yes"/>
      <point x="177" y="318"/>
      <point x="195" y="336"/>
    </contour>
  </outline>
</glyph>
<glyph name="Q" format="1">
  <advance width="300"/>
  <unicode hex="0051"/>
  <outline>
    <contour>
      <point x="270" y="97" type="line" smooth="yes"/>
      <point x="270" y="44"/>
      <point x="221" y="0"/>
      <point x="160" y="-5" type="curve"/>
      <point x="160" y="-90" type="line"/>
      <point x="140" y="-90" type="line"/>
      <point x="140" y="-5" type="line"/>
      <point x="79" y="0"/>
      <point x="30" y="44"/>
      <point x="30" y="97" type="curve" smooth="yes"/>
      <point x="30" y="603" type="line" smooth="yes"/>
      <point x="30" y="659"/>
      <point x="84" y="705"/>
      <point x="150" y="705" type="curve" smooth="yes"/>
      <point x="216" y="705"/>
      <point x="270" y="659"/>
      <point x="270" y="603" type="curve" smooth="yes"/>
    </contour>
    <contour>
      <point x="190" y="53" type="curve" smooth="yes"/>
      <point x="190" y="647" type="line" smooth="yes"/>
      <point x="190" y="669"/>
      <point x="172" y="687"/>
      <point x="150" y="687" type="curve" smooth="yes"/>
      <point x="128" y="687"/>
      <point x="110" y="669"/>
      <point x="110" y="647" type="curve" smooth="yes"/>
      <point x="110" y="53" type="line" smooth="yes"/>
      <point x="110" y="34"/>
      <point x="123" y="19"/>
      <point x="140" y="14" type="curve"/>
      <point x="140" y="118" type="line"/>
      <point x="160" y="118" type="line"/>
      <point x="160" y="14" type="line"/>
      <point x="177" y="19"/>
      <point x="190" y="34"/>
    </contour>
  </outline>
</glyph>
<glyph name="R" format="1">
  <advance width="310"/>
  <unicode hex="0052"/>
  <outline>
    <contour>
      <point x="300" y="0" type="line"/>
      <point x="265" y="0" type="line" smooth="yes"/>
      <point x="220" y="0"/>
      <point x="195" y="22"/>
      <point x="195" y="73" type="curve" smooth="yes"/>
      <point x="195" y="321" type="line" smooth="yes"/>
      <point x="195" y="343"/>
      <point x="177" y="361"/>
      <point x="155" y="361" type="curve" smooth="yes"/>
      <point x="120" y="361" type="line"/>
      <point x="120" y="18" type="line"/>
      <point x="145" y="18" type="line"/>
      <point x="145" y="0" type="line"/>
      <point x="15" y="0" type="line"/>
      <point x="15" y="18" type="line"/>
      <point x="40" y="18" type="line"/>
      <point x="40" y="682" type="line"/>
      <point x="15" y="682" type="line"/>
      <point x="15" y="700" type="line"/>
      <point x="155" y="700" type="line" smooth="yes"/>
      <point x="221" y="700"/>
      <point x="275" y="654"/>
      <point x="275" y="598" type="curve" smooth="yes"/>
      <point x="275" y="463" type="line" smooth="yes"/>
      <point x="275" y="422"/>
      <point x="246" y="386"/>
      <point x="205" y="370" type="curve"/>
      <point x="246" y="353"/>
      <point x="275" y="318"/>
      <point x="275" y="277" type="curve" smooth="yes"/>
      <point x="275" y="45" type="line" smooth="yes"/>
      <point x="275" y="26"/>
      <point x="280" y="18"/>
      <point x="298" y="18" type="curve" smooth="yes"/>
      <point x="300" y="18" type="line"/>
    </contour>
    <contour>
      <point x="195" y="419" type="curve" smooth="yes"/>
      <point x="195" y="642" type="line" smooth="yes"/>
      <point x="195" y="664"/>
      <point x="177" y="682"/>
      <point x="155" y="682" type="curve" smooth="yes"/>
      <point x="120" y="682" type="line"/>
      <point x="120" y="379" type="line"/>
      <point x="155" y="379" type="line" smooth="yes"/>
      <point x="177" y="379"/>
      <point x="195" y="397"/>
    </contour>
  </outline>
</glyph>
<glyph name="S" format="1">
  <advance width="282"/>
  <unicode hex="0053"/>
  <outline>
    <contour>
      <point x="256" y="97" type="line" smooth="yes"/>
      <point x="256" y="41"/>
      <point x="207" y="-5"/>
      <point x="141" y="-5" type="curve" smooth="yes"/>
      <point x="75" y="-5"/>
      <point x="26" y="41"/>
      <point x="26" y="97" type="curve" smooth="yes"/>
      <point x="26" y="210" type="line"/>
      <point x="106" y="210" type="line"/>
      <point x="106" y="53" type="line" smooth="yes"/>
      <point x="106" y="31"/>
      <point x="119" y="13"/>
      <point x="141" y="13" type="curve" smooth="yes"/>
      <point x="163" y="13"/>
      <point x="176" y="31"/>
      <point x="176" y="53" type="curve" smooth="yes"/>
      <point x="176" y="175" type="line" smooth="yes"/>
      <point x="176" y="211"/>
      <point x="171" y="232"/>
      <point x="152" y="262" type="curve" smooth="yes"/>
      <point x="52" y="418" type="line" smooth="yes"/>
      <point x="33" y="448"/>
      <point x="26" y="474"/>
      <point x="26" y="508" type="curve" smooth="yes"/>
      <point x="26" y="603" type="line" smooth="yes"/>
      <point x="26" y="659"/>
      <point x="75" y="705"/>
      <point x="141" y="705" type="curve" smooth="yes"/>
      <point x="207" y="705"/>
      <point x="256" y="659"/>
      <point x="256" y="603" type="curve" smooth="yes"/>
      <point x="256" y="490" type="line"/>
      <point x="176" y="490" type="line"/>
      <point x="176" y="647" type="line" smooth="yes"/>
      <point x="176" y="669"/>
      <point x="163" y="687"/>
      <point x="141" y="687" type="curve" smooth="yes"/>
      <point x="119" y="687"/>
      <point x="106" y="669"/>
      <point x="106" y="647" type="curve" smooth="yes"/>
      <point x="106" y="530" type="line" smooth="yes"/>
      <point x="106" y="494"/>
      <point x="111" y="473"/>
      <point x="130" y="443" type="curve" smooth="yes"/>
      <point x="230" y="287" type="line" smooth="yes"/>
      <point x="249" y="257"/>
      <point x="256" y="231"/>
      <point x="256" y="197" type="curve" smooth="yes"/>
    </contour>
  </outline>
</glyph>
<glyph name="U" format="1">
  <advance width="310"/>
  <unicode hex="0055"/>
  <outline>
    <contour>
      <point x="300" y="682" type="line"/>
      <point x="275" y="682" type="line"/>
      <point x="275" y="97" type="line" smooth="yes"/>
      <point x="275" y="41"/>
      <point x="221" y="-5"/>
      <point x="155" y="-5" type="curve" smooth="yes"/>
      <point x="89" y="-5"/>
      <point x="35" y="41"/>
      <point x="35" y="97" type="curve" smooth="yes"/>
      <point x="35" y="682" type="line"/>
      <point x="10" y="682" type="line"/>
      <point x="10" y="700" type="line"/>
      <point x="140" y="700" type="line"/>
      <point x="140" y="682" type="line"/>
      <point x="115" y="682" type="line"/>
      <point x="115" y="53" type="line" smooth="yes"/>
      <point x="115" y="31"/>
      <point x="133" y="13"/>
      <point x="155" y="13" type="curve" smooth="yes"/>
      <point x="177" y="13"/>
      <point x="195" y="31"/>
      <point x="195" y="53" type="curve" smooth="yes"/>
      <point x="195" y="682" type="line"/>
      <point x="170" y="682" type="line"/>
      <point x="170" y="700" type="line"/>
      <point x="300" y="700" type="line"/>
    </contour>
  </outline>
</glyph>
<glyph name="V" format="1">
  <advance width="275"/>
  <unicode hex="0056"/>
  <outline>
    <contour>
      <point x="270" y="682" type="line"/>
      <point x="245" y="682" type="line"/>
      <point x="175" y="0" type="line"/>
      <point x="95" y="0" type="line"/>
      <point x="30" y="682" type="line"/>
      <point x="5" y="682" type="line"/>
      <point x="5" y="700" type="line"/>
      <point x="135" y="700" type="line"/>
      <point x="135" y="682" type="line"/>
      <point x="110" y="682" type="line"/>
      <point x="162" y="83" type="line"/>
      <point x="220" y="682" type="line"/>
      <point x="195" y="682" type="line"/>
      <point x="195" y="700" type="line"/>
      <point x="270" y="700" type="line"/>
    </contour>
  </outline>
</glyph>
<glyph name="Y" format="1">
  <advance width="285"/>
  <unicode hex="0059"/>
  <outline>
    <contour>
      <point x="280" y="682" type="line"/>
      <point x="255" y="682" type="line"/>
      <point x="180" y="283" type="line"/>
      <point x="180" y="18" type="line"/>
      <point x="205" y="18" type="line"/>
      <point x="205" y="0" type="line"/>
      <point x="75" y="0" type="line"/>
      <point x="75" y="18" type="line"/>
      <point x="100" y="18" type="line"/>
      <point x="100" y="283" type="line"/>
      <point x="30" y="682" type="line"/>
      <point x="5" y="682" type="line"/>
      <point x="5" y="700" type="line"/>
      <point x="133" y="700" type="line"/>
      <point x="133" y="682" type="line"/>
      <point x="108" y="682" type="line"/>
      <point x="167" y="334" type="line"/>
      <point x="231" y="682" type="line"/>
      <point x="206" y="682" type="line"/>
      <point x="206" y="700" type="line"/>
      <point x="280" y="700" type="line"/>
    </contour>
  </outline>
</glyph>
<glyph name="Z" format="1">
  <advance width="284"/>
  <unicode hex="005A"/>
  <outline>
    <contour>
      <point x="264" y="682" type="line"/>
      <point x="100" y="18" type="line"/>
      <point x="185" y="18" type="line"/>
      <point x="185" y="210" type="line"/>
      <point x="259" y="210" type="line"/>
      <point x="259" y="0" type="line"/>
      <point x="20" y="0" type="line"/>
      <point x="20" y="18" type="line"/>
      <point x="184" y="682" type="line"/>
      <point x="99" y="682" type="line"/>
      <point x="99" y="490" type="line"/>
      <point x="25" y="490" type="line"/>
      <point x="25" y="700" type="line"/>
      <point x="264" y="700" type="line"/>
    </contour>
  </outline>
</glyph>
<glyph name="bracketleft" format="1">
  <advance width="175"/>
  <unicode hex="005B"/>
  <outline>
    <contour>
      <point x="158" y="0" type="line"/>
      <point x="35" y="0" type="line"/>
      <point x="35" y="700" type="line"/>
      <point x="158" y="700" type="line"/>
      <point x="158" y="682" type="line"/>
      <point x="113" y="682" type="line"/>
      <point x="113" y="18" type="line"/>
      <point x="158" y="18" type="line"/>
    </contour>
  </outline>
</glyph>
<glyph name="bracketright" format="1">
  <advance width="175"/>
  <unicode hex="005D"/>
  <outline>
    <contour>
      <point x="140" y="0" type="line"/>
      <point x="17" y="0" type="line"/>
      <point x="17" y="18" type="line"/>
      <point x="62" y="18" type="line"/>
      <point x="62" y="682" type="line"/>
      <point x="17" y="682" type="line"/>
      <point x="17" y="700" type="line"/>
      <point x="140" y="700" type="line"/>
    </contour>
  </outline>
</glyph>
<glyph name="asciicircum" format="1">
  <advance width="280"/>
  <unicode hex="005E"/>
  <outline>
    <contour>
      <point x="235" y="490" type="line"/>
      <point x="210" y="490" type="line"/>
      <point x="140" y="665" type="line"/>
      <point x="70" y="490" type="line"/>
      <point x="45" y="490" type="line"/>
      <point x="130" y="700" type="line"/>
      <point x="150" y="700" type="line"/>
    </contour>
  </outline>
</glyph>
<glyph name="grave" format="1">
  <advance width="300"/>
  <unicode hex="0060"/>
  <outline>
    <contour>
      <point x="197" y="550" type="line"/>
      <point x="175" y="550" type="line"/>
      <point x="71" y="690" type="line"/>
      <point x="71" y="700" type="line"/>
      <point x="156" y="700" type="line"/>
    </contour>
  </outline>
</glyph>
<glyph name="a" format="1">
  <advance width="269"/>
  <unicode hex="0061"/>
  <outline>
    <contour>
      <point x="264" y="0" type="line"/>
      <point x="161" y="0" type="line"/>
      <point x="161" y="14" type="line"/>
      <point x="146" y="1"/>
      <point x="128" y="-5"/>
      <point x="105" y="-5" type="curve" smooth="yes"/>
      <point x="49" y="-5"/>
      <point x="22" y="27"/>
      <point x="22" y="87" type="curve" smooth="yes"/>
      <point x="22" y="202" type="line" smooth="yes"/>
      <point x="22" y="273"/>
      <point x="72" y="299"/>
      <point x="137" y="299" type="curve" smooth="yes"/>
      <point x="161" y="299" type="line"/>
      <point x="161" y="467" type="line" smooth="yes"/>
      <point x="161" y="489"/>
      <point x="154" y="507"/>
      <point x="132" y="507" type="curve" smooth="yes"/>
      <point x="110" y="507"/>
      <point x="103" y="489"/>
      <point x="103" y="467" type="curve" smooth="yes"/>
      <point x="103" y="361" type="line"/>
      <point x="25" y="361" type="line"/>
      <point x="25" y="423" type="line" smooth="yes"/>
      <point x="25" y="484"/>
      <point x="66" y="525"/>
      <point x="132" y="525" type="curve" smooth="yes"/>
      <point x="198" y="525"/>
      <point x="239" y="484"/>
      <point x="239" y="423" type="curve" smooth="yes"/>
      <point x="239" y="18" type="line"/>
      <point x="264" y="18" type="line"/>
    </contour>
    <contour>
      <point x="161" y="32" type="curve"/>
      <point x="161" y="281" type="line"/>
      <point x="138" y="281" type="line" smooth="yes"/>
      <point x="112" y="281"/>
      <point x="100" y="266"/>
      <point x="100" y="241" type="curve" smooth="yes"/>
      <point x="100" y="53" type="line" smooth="yes"/>
      <point x="100" y="31"/>
      <point x="105" y="15"/>
      <point x="127" y="15" type="curve" smooth="yes"/>
      <point x="141" y="15"/>
      <point x="150" y="21"/>
    </contour>
  </outline>
</glyph>
<glyph name="e" format="1">
  <advance width="276"/>
  <unicode hex="0065"/>
  <outline>
    <contour>
      <point x="251" y="97" type="line" smooth="yes"/>
      <point x="251" y="41"/>
      <point x="204" y="-5"/>
      <point x="138" y="-5" type="curve" smooth="yes"/>
      <point x="72" y="-5"/>
      <point x="25" y="41"/>
      <point x="25" y="97" type="curve" smooth="yes"/>
      <point x="25" y="423" type="line" smooth="yes"/>
      <point x="25" y="479"/>
      <point x="72" y="525"/>
      <point x="138" y="525" type="curve" smooth="yes"/>
      <point x="204" y="525"/>
      <point x="251" y="479"/>
      <point x="251" y="423" type="curve" smooth="yes"/>
      <point x="251" y="252" type="line"/>
      <point x="103" y="252" type="line"/>
      <point x="103" y="53" type="line" smooth="yes"/>
      <point x="103" y="31"/>
      <point x="116" y="13"/>
      <point x="138" y="13" type="curve" smooth="yes"/>
      <point x="160" y="13"/>
      <point x="173" y="31"/>
      <point x="173" y="53" type="curve" smooth="yes"/>
      <point x="173" y="159" type="line"/>
      <point x="251" y="159" type="line"/>
    </contour>
    <contour>
      <point x="173" y="270" type="line"/>
      <point x="173" y="467" type="line" smooth="yes"/>
      <point x="173" y="489"/>
      <point x="160" y="507"/>
      <point x="138" y="507" type="curve" smooth="yes"/>
      <point x="116" y="507"/>
      <point x="103" y="489"/>
      <point x="103" y="467" type="curve" smooth="yes"/>
      <point x="103" y="270" type="line"/>
    </contour>
  </outline>
</glyph>
<glyph name="f" format="1">
  <advance width="168"/>
  <unicode hex="0066"/>
  <outline>
    <contour>
      <point x="176" y="682" type="line"/>
      <point x="151" y="682" type="line" smooth="yes"/>
      <point x="129" y="682"/>
      <point x="116" y="664"/>
      <point x="116" y="642" type="curve" smooth="yes"/>
      <point x="116" y="520" type="line"/>
      <point x="156" y="520" type="line"/>
      <point x="156" y="502" type="line"/>
      <point x="116" y="502" type="line"/>
      <point x="116" y="18" type="line"/>
      <point x="141" y="18" type="line"/>
      <point x="141" y="0" type="line"/>
      <point x="13" y="0" type="line"/>
      <point x="13" y="18" type="line"/>
      <point x="38" y="18" type="line"/>
      <point x="38" y="502" type="line"/>
      <point x="13" y="502" type="line"/>
      <point x="13" y="520" type="line"/>
      <point x="38" y="520" type="line"/>
      <point x="38" y="598" type="line" smooth="yes"/>
      <point x="38" y="654"/>
      <point x="85" y="700"/>
      <point x="151" y="700" type="curve" smooth="yes"/>
      <point x="176" y="700" type="line"/>
    </contour>
  </outline>
</glyph>
<glyph name="g" format="1">
  <advance width="280"/>
  <unicode hex="0067"/>
  <outline>
    <contour>
      <point x="272" y="502" type="line"/>
      <point x="247" y="502" type="line"/>
      <point x="247" y="-43" type="line" smooth="yes"/>
      <point x="247" y="-99"/>
      <point x="204" y="-145"/>
      <point x="138" y="-145" type="curve" smooth="yes"/>
      <point x="78" y="-145"/>
      <point x="26" y="-99"/>
      <point x="26" y="-43" type="curve" smooth="yes"/>
      <point x="26" y="-25" type="line"/>
      <point x="104" y="-25" type="line"/>
      <point x="104" y="-87" type="line" smooth="yes"/>
      <point x="104" y="-109"/>
      <point x="118" y="-127"/>
      <point x="138" y="-127" type="curve" smooth="yes"/>
      <point x="160" y="-127"/>
      <point x="169" y="-109"/>
      <point x="169" y="-87" type="curve" smooth="yes"/>
      <point x="169" y="24" type="line"/>
      <point x="154" y="11"/>
      <point x="134" y="5"/>
      <point x="111" y="5" type="curve" smooth="yes"/>
      <point x="55" y="5"/>
      <point x="26" y="37"/>
      <point x="26" y="97" type="curve" smooth="yes"/>
      <point x="26" y="433" type="line" smooth="yes"/>
      <point x="26" y="493"/>
      <point x="55" y="525"/>
      <point x="111" y="525" type="curve" smooth="yes"/>
      <point x="134" y="525"/>
      <point x="154" y="519"/>
      <point x="169" y="506" type="curve"/>
      <point x="169" y="520" type="line"/>
      <point x="272" y="520" type="line"/>
    </contour>
    <contour>
      <point x="169" y="42" type="curve"/>
      <point x="169" y="488" type="line"/>
      <point x="158" y="499"/>
      <point x="147" y="505"/>
      <point x="133" y="505" type="curve" smooth="yes"/>
      <point x="111" y="505"/>
      <point x="104" y="489"/>
      <point x="104" y="467" type="curve" smooth="yes"/>
      <point x="104" y="63" type="line" smooth="yes"/>
      <point x="104" y="41"/>
      <point x="111" y="25"/>
      <point x="133" y="25" type="curve" smooth="yes"/>
      <point x="147" y="25"/>
      <point x="158" y="31"/>
    </contour>
  </outline>
</glyph>
<glyph name="j" format="1">
  <advance width="152"/>
  <unicode hex="006A"/>
  <outline>
    <contour>
      <point x="114" y="580" type="line"/>
      <point x="36" y="580" type="line"/>
      <point x="36" y="700" type="line"/>
      <point x="114" y="700" type="line"/>
    </contour>
    <contour>
      <point x="114" y="-38" type="line" smooth="yes"/>
      <point x="114" y="-94"/>
      <point x="67" y="-140"/>
      <point x="1" y="-140" type="curve" smooth="yes"/>
      <point x="-24" y="-140" type="line"/>
      <point x="-24" y="-122" type="line"/>
      <point x="1" y="-122" type="line" smooth="yes"/>
      <point x="23" y="-122"/>
      <point x="36" y="-104"/>
      <point x="36" y="-82" type="curve" smooth="yes"/>
      <point x="36" y="502" type="line"/>
      <point x="11" y="502" type="line"/>
      <point x="11" y="520" type="line"/>
      <point x="114" y="520" type="line"/>
    </contour>
  </outline>
</glyph>
<glyph name="m" format="1">
  <advance width="429"/>
  <unicode hex="006D"/>
  <outline>
    <contour>
      <point x="424" y="0" type="line"/>
      <point x="321" y="0" type="line"/>
      <point x="321" y="467" type="line" smooth="yes"/>
      <point x="321" y="489"/>
      <point x="314" y="505"/>
      <point x="292" y="505" type="curve" smooth="yes"/>
      <point x="278" y="505"/>
      <point x="263" y="498"/>
      <point x="247" y="481" type="curve"/>
      <point x="253" y="468"/>
      <point x="256" y="452"/>
      <point x="256" y="433" type="curve" smooth="yes"/>
      <point x="256" y="18" type="line"/>
      <point x="281" y="18" type="line"/>
      <point x="281" y="0" type="line"/>
      <point x="178" y="0" type="line"/>
      <point x="178" y="467" type="line" smooth="yes"/>
      <point x="178" y="489"/>
      <point x="171" y="505"/>
      <point x="149" y="505" type="curve" smooth="yes"/>
      <point x="135" y="505"/>
      <point x="124" y="499"/>
      <point x="113" y="488" type="curve"/>
      <point x="113" y="18" type="line"/>
      <point x="138" y="18" type="line"/>
      <point x="138" y="0" type="line"/>
      <point x="10" y="0" type="line"/>
      <point x="10" y="18" type="line"/>
      <point x="35" y="18" type="line"/>
      <point x="35" y="502" type="line"/>
      <point x="10" y="502" type="line"/>
      <point x="10" y="520" type="line"/>
      <point x="113" y="520" type="line"/>
      <point x="113" y="506" type="line"/>
      <point x="128" y="519"/>
      <point x="148" y="525"/>
      <point x="171" y="525" type="curve" smooth="yes"/>
      <point x="203" y="525"/>
      <point x="226" y="515"/>
      <point x="240" y="495" type="curve"/>
      <point x="257" y="512"/>
      <point x="279" y="525"/>
      <point x="314" y="525" type="curve" smooth="yes"/>
      <point x="370" y="525"/>
      <point x="399" y="493"/>
      <point x="399" y="433" type="curve" smooth="yes"/>
      <point x="399" y="18" type="line"/>
      <point x="424" y="18" type="line"/>
    </contour>
  </outline>
</glyph>
<glyph name="n" format="1">
  <advance width="286"/>
  <unicode hex="006E"/>
  <outline>
    <contour>
      <point x="281" y="0" type="line"/>
      <point x="178" y="0" type="line"/>
      <point x="178" y="467" type="line" smooth="yes"/>
      <point x="178" y="489"/>
      <point x="171" y="505"/>
      <point x="149" y="505" type="curve" smooth="yes"/>
      <point x="135" y="505"/>
      <point x="124" y="499"/>
      <point x="113" y="488" type="curve"/>
      <point x="113" y="18" type="line"/>
      <point x="138" y="18" type="line"/>
      <point x="138" y="0" type="line"/>
      <point x="10" y="0" type="line"/>
      <point x="10" y="18" type="line"/>
      <point x="35" y="18" type="line"/>
      <point x="35" y="502" type="line"/>
      <point x="10" y="502" type="line"/>
      <point x="10" y="520" type="line"/>
      <point x="113" y="520" type="line"/>
      <point x="113" y="506" type="line"/>
      <point x="128" y="519"/>
      <point x="148" y="525"/>
      <point x="171" y="525" type="curve" smooth="yes"/>
      <point x="227" y="525"/>
      <point x="256" y="493"/>
      <point x="256" y="433" type="curve" smooth="yes"/>
      <point x="256" y="18" type="line"/>
      <point x="281" y="18" type="line"/>
    </contour>
  </outline>
</glyph>
<glyph name="p" format="1">
  <advance width="280"/>
  <unicode hex="0070"/>
  <outline>
    <contour>
      <point x="254" y="87" type="line" smooth="yes"/>
      <point x="254" y="27"/>
      <point x="225" y="-5"/>
      <point x="169" y="-5" type="curve" smooth="yes"/>
      <point x="146" y="-5"/>
      <point x="126" y="1"/>
      <point x="111" y="14" type="curve"/>
      <point x="111" y="-122" type="line"/>
      <point x="136" y="-122" type="line"/>
      <point x="136" y="-140" type="line"/>
      <point x="8" y="-140" type="line"/>
      <point x="8" y="-122" type="line"/>
      <point x="33" y="-122" type="line"/>
      <point x="33" y="502" type="line"/>
      <point x="8" y="502" type="line"/>
      <point x="8" y="520" type="line"/>
      <point x="111" y="520" type="line"/>
      <point x="111" y="506" type="line"/>
      <point x="126" y="519"/>
      <point x="146" y="525"/>
      <point x="169" y="525" type="curve" smooth="yes"/>
      <point x="225" y="525"/>
      <point x="254" y="493"/>
      <point x="254" y="433" type="curve" smooth="yes"/>
    </contour>
    <contour>
      <point x="176" y="53" type="curve" smooth="yes"/>
      <point x="176" y="467" type="line" smooth="yes"/>
      <point x="176" y="489"/>
      <point x="169" y="505"/>
      <point x="147" y="505" type="curve" smooth="yes"/>
      <point x="133" y="505"/>
      <point x="122" y="499"/>
      <point x="111" y="488" type="curve"/>
      <point x="111" y="32" type="line"/>
      <point x="122" y="21"/>
      <point x="133" y="15"/>
      <point x="147" y="15" type="curve" smooth="yes"/>
      <point x="169" y="15"/>
      <point x="176" y="31"/>
    </contour>
  </outline>
</glyph>
<glyph name="q" format="1">
  <advance width="280"/>
  <unicode hex="0071"/>
  <outline>
    <contour>
      <point x="272" y="-140" type="line"/>
      <point x="144" y="-140" type="line"/>
      <point x="144" y="-122" type="line"/>
      <point x="169" y="-122" type="line"/>
      <point x="169" y="14" type="line"/>
      <point x="154" y="1"/>
      <point x="134" y="-5"/>
      <point x="111" y="-5" type="curve" smooth="yes"/>
      <point x="55" y="-5"/>
      <point x="26" y="27"/>
      <point x="26" y="87" type="curve" smooth="yes"/>
      <point x="26" y="433" type="line" smooth="yes"/>
      <point x="26" y="493"/>
      <point x="55" y="525"/>
      <point x="111" y="525" type="curve" smooth="yes"/>
      <point x="134" y="525"/>
      <point x="154" y="519"/>
      <point x="169" y="506" type="curve"/>
      <point x="169" y="520" type="line"/>
      <point x="272" y="520" type="line"/>
      <point x="272" y="502" type="line"/>
      <point x="247" y="502" type="line"/>
      <point x="247" y="-122" type="line"/>
      <point x="272" y="-122" type="line"/>
    </contour>
    <contour>
      <point x="169" y="32" type="curve"/>
      <point x="169" y="488" type="line"/>
      <point x="158" y="499"/>
      <point x="147" y="505"/>
      <point x="133" y="505" type="curve" smooth="yes"/>
      <point x="111" y="505"/>
      <point x="104" y="489"/>
      <point x="104" y="467" type="curve" smooth="yes"/>
      <point x="104" y="53" type="line" smooth="yes"/>
      <point x="104" y="31"/>
      <point x="111" y="15"/>
      <point x="133" y="15" type="curve" smooth="yes"/>
      <point x="147" y="15"/>
      <point x="158" y="21"/>
    </contour>
  </outline>
</glyph>
<glyph name="t" format="1">
  <advance width="181"/>
  <unicode hex="0074"/>
  <outline>
    <contour>
      <point x="171" y="0" type="line"/>
      <point x="146" y="0" type="line" smooth="yes"/>
      <point x="80" y="0"/>
      <point x="33" y="46"/>
      <point x="33" y="102" type="curve" smooth="yes"/>
      <point x="33" y="502" type="line"/>
      <point x="8" y="502" type="line"/>
      <point x="8" y="520" type="line"/>
      <point x="33" y="520" type="line"/>
      <point x="33" y="665" type="line"/>
      <point x="111" y="700" type="line"/>
      <point x="111" y="520" type="line"/>
      <point x="167" y="520" type="line"/>
      <point x="167" y="502" type="line"/>
      <point x="111" y="502" type="line"/>
      <point x="111" y="58" type="line" smooth="yes"/>
      <point x="111" y="36"/>
      <point x="124" y="18"/>
      <point x="146" y="18" type="curve" smooth="yes"/>
      <point x="171" y="18" type="line"/>
    </contour>
  </outline>
</glyph>
<glyph name="u" format="1">
  <advance width="284"/>
  <unicode hex="0075"/>
  <outline>
    <contour>
      <point x="276" y="0" type="line"/>
      <point x="173" y="0" type="line"/>
      <point x="173" y="14" type="line"/>
      <point x="158" y="1"/>
      <point x="138" y="-5"/>
      <point x="115" y="-5" type="curve" smooth="yes"/>
      <point x="59" y="-5"/>
      <point x="30" y="27"/>
      <point x="30" y="87" type="curve" smooth="yes"/>
      <point x="30" y="502" type="line"/>
      <point x="5" y="502" type="line"/>
      <point x="5" y="520" type="line"/>
      <point x="108" y="520" type="line"/>
      <point x="108" y="53" type="line" smooth="yes"/>
      <point x="108" y="31"/>
      <point x="115" y="15"/>
      <point x="137" y="15" type="curve" smooth="yes"/>
      <point x="151" y="15"/>
      <point x="162" y="21"/>
      <point x="173" y="32" type="curve"/>
      <point x="173" y="502" type="line"/>
      <point x="148" y="502" type="line"/>
      <point x="148" y="520" type="line"/>
      <point x="251" y="520" type="line"/>
      <point x="251" y="18" type="line"/>
      <point x="276" y="18" type="line"/>
    </contour>
  </outline>
</glyph>
<glyph name="w" format="1">
  <advance width="363"/>
  <unicode hex="0077"/>
  <outline>
    <contour>
      <point x="358" y="502" type="line"/>
      <point x="333" y="502" type="line"/>
      <point x="287" y="0" type="line"/>
      <point x="211" y="0" type="line"/>
      <point x="177" y="379" type="line"/>
      <point x="152" y="0" type="line"/>
      <point x="76" y="0" type="line"/>
      <point x="30" y="502" type="line"/>
      <point x="5" y="502" type="line"/>
      <point x="5" y="520" type="line"/>
      <point x="132" y="520" type="line"/>
      <point x="132" y="502" type="line"/>
      <point x="107" y="502" type="line"/>
      <point x="135" y="108" type="line"/>
      <point x="163" y="520" type="line"/>
      <point x="237" y="520" type="line"/>
      <point x="272" y="108" type="line"/>
      <point x="305" y="502" type="line"/>
      <point x="280" y="502" type="line"/>
      <point x="280" y="520" type="line"/>
      <point x="358" y="520" type="line"/>
    </contour>
  </outline>
</glyph>
<glyph name="y" format="1">
  <advance width="282"/>
  <unicode hex="0079"/>
  <outline>
    <contour>
      <point x="251" y="-43" type="line" smooth="yes"/>
      <point x="251" y="-99"/>
      <point x="208" y="-145"/>
      <point x="142" y="-145" type="curve" smooth="yes"/>
      <point x="82" y="-145"/>
      <point x="30" y="-99"/>
      <point x="30" y="-43" type="curve" smooth="yes"/>
      <point x="30" y="-25" type="line"/>
      <point x="108" y="-25" type="line"/>
      <point x="108" y="-87" type="line" smooth="yes"/>
      <point x="108" y="-109"/>
      <point x="122" y="-127"/>
      <point x="142" y="-127" type="curve" smooth="yes"/>
      <point x="164" y="-127"/>
      <point x="173" y="-109"/>
      <point x="173" y="-87" type="curve" smooth="yes"/>
      <point x="173" y="24" type="line"/>
      <point x="158" y="11"/>
      <point x="138" y="5"/>
      <point x="115" y="5" type="curve" smooth="yes"/>
      <point x="59" y="5"/>
      <point x="30" y="37"/>
      <point x="30" y="97" type="curve" smooth="yes"/>
      <point x="30" y="502" type="line"/>
      <point x="5" y="502" type="line"/>
      <point x="5" y="520" type="line"/>
      <point x="108" y="520" type="line"/>
      <point x="108" y="63" type="line" smooth="yes"/>
      <point x="108" y="41"/>
      <point x="115" y="25"/>
      <point x="137" y="25" type="curve" smooth="yes"/>
      <point x="151" y="25"/>
      <point x="162" y="31"/>
      <point x="173" y="42" type="curve"/>
      <point x="173" y="502" type="line"/>
      <point x="148" y="502" type="line"/>
      <point x="148" y="520" type="line"/>
      <point x="251" y="520" type="line"/>
    </contour>
  </outline>
</glyph>
<glyph name="braceleft" format="1">
  <advance width="210"/>
  <unicode hex="007B"/>
  <outline>
    <contour>
      <point x="193" y="0" type="line"/>
      <point x="178" y="0" type="line" smooth="yes"/>
      <point x="112" y="0"/>
      <point x="65" y="46"/>
      <point x="65" y="102" type="curve" smooth="yes"/>
      <point x="65" y="321" type="line" smooth="yes"/>
      <point x="65" y="343"/>
      <point x="47" y="361"/>
      <point x="25" y="361" type="curve" smooth="yes"/>
      <point x="15" y="361" type="line"/>
      <point x="15" y="379" type="line"/>
      <point x="25" y="379" type="line" smooth="yes"/>
      <point x="47" y="379"/>
      <point x="65" y="397"/>
      <point x="65" y="419" type="curve" smooth="yes"/>
      <point x="65" y="598" type="line" smooth="yes"/>
      <point x="65" y="654"/>
      <point x="112" y="700"/>
      <point x="178" y="700" type="curve" smooth="yes"/>
      <point x="193" y="700" type="line"/>
      <point x="193" y="682" type="line"/>
      <point x="178" y="682" type="line" smooth="yes"/>
      <point x="156" y="682"/>
      <point x="143" y="664"/>
      <point x="143" y="642" type="curve" smooth="yes"/>
      <point x="143" y="463" type="line" smooth="yes"/>
      <point x="143" y="422"/>
      <point x="114" y="386"/>
      <point x="73" y="370" type="curve"/>
      <point x="114" y="353"/>
      <point x="143" y="318"/>
      <point x="143" y="277" type="curve" smooth="yes"/>
      <point x="143" y="58" type="line" smooth="yes"/>
      <point x="143" y="36"/>
      <point x="156" y="18"/>
      <point x="178" y="18" type="curve" smooth="yes"/>
      <point x="193" y="18" type="line"/>
    </contour>
  </outline>
</glyph>
<glyph name="braceright" format="1">
  <advance width="210"/>
  <unicode hex="007D"/>
  <outline>
    <contour>
      <point x="195" y="361" type="line"/>
      <point x="185" y="361" type="line" smooth="yes"/>
      <point x="163" y="361"/>
      <point x="145" y="343"/>
      <point x="145" y="321" type="curve" smooth="yes"/>
      <point x="145" y="102" type="line" smooth="yes"/>
      <point x="145" y="46"/>
      <point x="98" y="0"/>
      <point x="32" y="0" type="curve" smooth="yes"/>
      <point x="17" y="0" type="line"/>
      <point x="17" y="18" type="line"/>
      <point x="32" y="18" type="line" smooth="yes"/>
      <point x="54" y="18"/>
      <point x="67" y="36"/>
      <point x="67" y="58" type="curve" smooth="yes"/>
      <point x="67" y="277" type="line" smooth="yes"/>
      <point x="67" y="318"/>
      <point x="96" y="353"/>
      <point x="137" y="370" type="curve"/>
      <point x="96" y="386"/>
      <point x="67" y="422"/>
      <point x="67" y="463" type="curve" smooth="yes"/>
      <point x="67" y="642" type="line" smooth="yes"/>
      <point x="67" y="664"/>
      <point x="54" y="682"/>
      <point x="32" y="682" type="curve" smooth="yes"/>
      <point x="17" y="682" type="line"/>
      <point x="17" y="700" type="line"/>
      <point x="32" y="700" type="line" smooth="yes"/>
      <point x="98" y="700"/>
      <point x="145" y="654"/>
      <point x="145" y="598" type="curve" smooth="yes"/>
      <point x="145" y="419" type="line" smooth="yes"/>
      <point x="145" y="397"/>
      <point x="163" y="379"/>
      <point x="185" y="379" type="curve" smooth="yes"/>
      <point x="195" y="379" type="line"/>
    </contour>
  </outline>
</glyph>
<glyph name="asciitilde" format="1">
  <advance width="300"/>
  <unicode hex="007E"/>
  <outline>
    <contour>
      <point x="271" y="414" type="line"/>
      <point x="265" y="383" type="line" smooth="yes"/>
      <point x="255" y="334"/>
      <point x="221" y="322"/>
      <point x="181" y="331" type="curve" smooth="yes"/>
      <point x="97" y="349" type="line" smooth="yes"/>
      <point x="71" y="355"/>
      <point x="58" y="343"/>
      <point x="46" y="323" type="curve"/>
      <point x="29" y="326" type="line"/>
      <point x="35" y="357" type="line" smooth="yes"/>
      <point x="45" y="406"/>
      <point x="80" y="417"/>
      <point x="120" y="409" type="curve" smooth="yes"/>
      <point x="205" y="391" type="line" smooth="yes"/>
      <point x="230" y="386"/>
      <point x="242" y="397"/>
      <point x="254" y="417" type="curve"/>
    </contour>
  </outline>
</glyph>
<glyph name="cent" format="1">
  <advance width="273"/>
  <unicode hex="00A2"/>
  <outline>
    <contour>
      <point x="251" y="177" type="line" smooth="yes"/>
      <point x="251" y="124"/>
      <point x="210" y="81"/>
      <point x="150" y="76" type="curve"/>
      <point x="150" y="-10" type="line"/>
      <point x="126" y="-10" type="line"/>
      <point x="126" y="75" type="line"/>
      <point x="66" y="81"/>
      <point x="25" y="124"/>
      <point x="25" y="177" type="curve" smooth="yes"/>
      <point x="25" y="523" type="line" smooth="yes"/>
      <point x="25" y="576"/>
      <point x="66" y="619"/>
      <point x="126" y="624" type="curve"/>
      <point x="126" y="710" type="line"/>
      <point x="150" y="710" type="line"/>
      <point x="150" y="624" type="line"/>
      <point x="210" y="619"/>
      <point x="251" y="576"/>
      <point x="251" y="523" type="curve" smooth="yes"/>
      <point x="251" y="461" type="line"/>
      <point x="173" y="461" type="line"/>
      <point x="173" y="567" type="line" smooth="yes"/>
      <point x="173" y="589"/>
      <point x="160" y="607"/>
      <point x="138" y="607" type="curve" smooth="yes"/>
      <point x="116" y="607"/>
      <point x="103" y="589"/>
      <point x="103" y="567" type="curve" smooth="yes"/>
      <point x="103" y="133" type="line" smooth="yes"/>
      <point x="103" y="111"/>
      <point x="116" y="93"/>
      <point x="138" y="93" type="curve" smooth="yes"/>
      <point x="160" y="93"/>
      <point x="173" y="111"/>
      <point x="173" y="133" type="curve" smooth="yes"/>
      <point x="173" y="239" type="line"/>
      <point x="251" y="239" type="line"/>
    </contour>
  </outline>
</glyph>
<glyph name="sterling" format="1">
  <advance width="305"/>
  <unicode hex="00A3"/>
  <outline>
    <contour>
      <point x="275" y="0" type="line"/>
      <point x="10" y="0" type="line"/>
      <point x="10" y="18" type="line"/>
      <point x="35" y="18" type="line"/>
      <point x="35" y="361" type="line"/>
      <point x="10" y="361" type="line"/>
      <point x="10" y="379" type="line"/>
      <point x="35" y="379" type="line"/>
      <point x="35" y="603" type="line" smooth="yes"/>
      <point x="35" y="659"/>
      <point x="89" y="705"/>
      <point x="155" y="705" type="curve" smooth="yes"/>
      <point x="221" y="705"/>
      <point x="275" y="659"/>
      <point x="275" y="603" type="curve" smooth="yes"/>
      <point x="275" y="490" type="line"/>
      <point x="195" y="490" type="line"/>
      <point x="195" y="647" type="line" smooth="yes"/>
      <point x="195" y="669"/>
      <point x="177" y="687"/>
      <point x="155" y="687" type="curve" smooth="yes"/>
      <point x="133" y="687"/>
      <point x="115" y="669"/>
      <point x="115" y="647" type="curve" smooth="yes"/>
      <point x="115" y="379" type="line"/>
      <point x="210" y="379" type="line"/>
      <point x="210" y="361" type="line"/>
      <point x="115" y="361" type="line"/>
      <point x="115" y="18" type="line"/>
      <point x="195" y="18" type="line"/>
      <point x="195" y="210" type="line"/>
      <point x="275" y="210" type="line"/>
    </contour>
  </outline>
</glyph>
<glyph name="yen" format="1">
  <advance width="285"/>
  <unicode hex="00A5"/>
  <outline>
    <contour>
      <point x="280" y="682" type="line"/>
      <point x="255" y="682" type="line"/>
      <point x="180" y="283" type="line"/>
      <point x="180" y="250" type="line"/>
      <point x="245" y="250" type="line"/>
      <point x="245" y="232" type="line"/>
      <point x="180" y="232" type="line"/>
      <point x="180" y="199" type="line"/>
      <point x="245" y="199" type="line"/>
      <point x="245" y="181" type="line"/>
      <point x="180" y="181" type="line"/>
      <point x="180" y="18" type="line"/>
      <point x="205" y="18" type="line"/>
      <point x="205" y="0" type="line"/>
      <point x="75" y="0" type="line"/>
      <point x="75" y="18" type="line"/>
      <point x="100" y="18" type="line"/>
      <point x="100" y="181" type="line"/>
      <point x="35" y="181" type="line"/>
      <point x="35" y="199" type="line"/>
      <point x="100" y="199" type="line"/>
      <point x="100" y="232" type="line"/>
      <point x="35" y="232" type="line"/>
      <point x="35" y="250" type="line"/>
      <point x="100" y="250" type="line"/>
      <point x="100" y="283" type="line"/>
      <point x="30" y="682" type="line"/>
      <point x="5" y="682" type="line"/>
      <point x="5" y="700" type="line"/>
      <point x="133" y="700" type="line"/>
      <point x="133" y="682" type="line"/>
      <point x="108" y="682" type="line"/>
      <point x="167" y="334" type="line"/>
      <point x="231" y="682" type="line"/>
      <point x="206" y="682" type="line"/>
      <point x="206" y="700" type="line"/>
      <point x="280" y="700" type="line"/>
    </contour>
  </outline>
</glyph>
<glyph name="section" format="1">
  <advance width="290"/>
  <unicode hex="00A7"/>
  <outline>
    <contour>
      <point x="275" y="341" type="curve" smooth="yes"/>
      <point x="275" y="303"/>
      <point x="255" y="276"/>
      <point x="219" y="245" type="curve"/>
      <point x="224" y="241" type="line" smooth="yes"/>
      <point x="250" y="220"/>
      <point x="260" y="189"/>
      <point x="260" y="150" type="curve" smooth="yes"/>
      <point x="260" y="97" type="line" smooth="yes"/>
      <point x="260" y="41"/>
      <point x="211" y="-5"/>
      <point x="145" y="-5" type="curve" smooth="yes"/>
      <point x="79" y="-5"/>
      <point x="30" y="41"/>
      <point x="30" y="97" type="curve" smooth="yes"/>
      <point x="30" y="210" type="line"/>
      <point x="110" y="210" type="line"/>
      <point x="110" y="53" type="line" smooth="yes"/>
      <point x="110" y="31"/>
      <point x="123" y="13"/>
      <point x="145" y="13" type="curve" smooth="yes"/>
      <point x="167" y="13"/>
      <point x="180" y="31"/>
      <point x="180" y="53" type="curve" smooth="yes"/>
      <point x="180" y="129" type="line" smooth="yes"/>
      <point x="180" y="161"/>
      <point x="172" y="181"/>
      <point x="150" y="200" type="curve" smooth="yes"/>
      <point x="59" y="276" type="line" smooth="yes"/>
      <point x="31" y="299"/>
      <point x="15" y="322"/>
      <point x="15" y="358" type="curve" smooth="yes"/>
      <point x="15" y="396"/>
      <point x="35" y="423"/>
      <point x="71" y="454" type="curve"/>
      <point x="65" y="459" type="line" smooth="yes"/>
      <point x="39" y="481"/>
      <point x="30" y="511"/>
      <point x="30" y="550" type="curve" smooth="yes"/>
      <point x="30" y="603" type="line" smooth="yes"/>
      <point x="30" y="659"/>
      <point x="79" y="705"/>
      <point x="145" y="705" type="curve" smooth="yes"/>
      <point x="211" y="705"/>
      <point x="260" y="659"/>
      <point x="260" y="603" type="curve" smooth="yes"/>
      <point x="260" y="490" type="line"/>
      <point x="180" y="490" type="line"/>
      <point x="180" y="647" type="line" smooth="yes"/>
      <point x="180" y="669"/>
      <point x="167" y="687"/>
      <point x="145" y="687" type="curve" smooth="yes"/>
      <point x="123" y="687"/>
      <point x="110" y="669"/>
      <point x="110" y="647" type="curve" smooth="yes"/>
      <point x="110" y="566" type="line" smooth="yes"/>
      <point x="110" y="533"/>
      <point x="117" y="518"/>
      <point x="139" y="499" type="curve" smooth="yes"/>
      <point x="231" y="423" type="line" smooth="yes"/>
      <point x="258" y="400"/>
      <point x="275" y="377"/>
    </contour>
    <contour>
      <point x="220" y="297" type="curve" smooth="yes"/>
      <point x="220" y="320"/>
      <point x="211" y="339"/>
      <point x="183" y="362" type="curve" smooth="yes"/>
      <point x="85" y="442" type="line"/>
      <point x="74" y="428"/>
      <point x="70" y="415"/>
      <point x="70" y="402" type="curve" smooth="yes"/>
      <point x="70" y="379"/>
      <point x="77" y="362"/>
      <point x="101" y="342" type="curve" smooth="yes"/>
      <point x="205" y="257" type="line"/>
      <point x="216" y="271"/>
      <point x="220" y="284"/>
    </contour>
  </outline>
</glyph>
<glyph name="dieresis" format="1">
  <advance width="300"/>
  <unicode hex="00A8"/>
  <outline>
    <contour>
      <point x="239" y="558" type="line"/>
      <point x="169" y="558" type="line"/>
      <point x="169" y="663" type="line"/>
      <point x="239" y="663" type="line"/>
    </contour>
    <contour>
      <point x="131" y="558" type="line"/>
      <point x="61" y="558" type="line"/>
      <point x="61" y="663" type="line"/>
      <point x="131" y="663" type="line"/>
    </contour>
  </outline>
</glyph>
<glyph name="ordfeminine" format="1">
  <advance width="245"/>
  <unicode hex="00AA"/>
  <outline>
    <contour>
      <point x="232" y="297" type="line"/>
      <point x="145" y="297" type="line"/>
      <point x="145" y="309" type="line"/>
      <point x="132" y="298"/>
      <point x="118" y="294"/>
      <point x="99" y="294" type="curve" smooth="yes"/>
      <point x="51" y="294"/>
      <point x="27" y="320"/>
      <point x="27" y="370" type="curve" smooth="yes"/>
      <point x="27" y="447" type="line" smooth="yes"/>
      <point x="27" y="506"/>
      <point x="70" y="527"/>
      <point x="125" y="527" type="curve" smooth="yes"/>
      <point x="145" y="527" type="line"/>
      <point x="145" y="656" type="line" smooth="yes"/>
      <point x="145" y="674"/>
      <point x="140" y="690"/>
      <point x="121" y="690" type="curve" smooth="yes"/>
      <point x="103" y="690"/>
      <point x="98" y="674"/>
      <point x="98" y="656" type="curve" smooth="yes"/>
      <point x="98" y="575" type="line"/>
      <point x="31" y="575" type="line"/>
      <point x="31" y="619" type="line" smooth="yes"/>
      <point x="31" y="670"/>
      <point x="65" y="705"/>
      <point x="121" y="705" type="curve" smooth="yes"/>
      <point x="177" y="705"/>
      <point x="212" y="670"/>
      <point x="212" y="619" type="curve" smooth="yes"/>
      <point x="212" y="313" type="line"/>
      <point x="232" y="313" type="line"/>
    </contour>
    <contour>
      <point x="145" y="325" type="curve"/>
      <point x="145" y="513" type="line"/>
      <point x="127" y="513" type="line" smooth="yes"/>
      <point x="104" y="513"/>
      <point x="95" y="500"/>
      <point x="95" y="479" type="curve" smooth="yes"/>
      <point x="95" y="342" type="line" smooth="yes"/>
      <point x="95" y="324"/>
      <point x="99" y="310"/>
      <point x="117" y="310" type="curve" smooth="yes"/>
      <point x="129" y="310"/>
      <point x="135" y="315"/>
    </contour>
  </outline>
</glyph>
<glyph name="guillemotleft" format="1">
  <advance width="300"/>
  <unicode hex="00AB"/>
  <outline>
    <contour>
      <point x="272" y="141" type="line"/>
      <point x="242" y="141" type="line"/>
      <point x="140" y="320" type="line"/>
      <point x="140" y="340" type="line"/>
      <point x="242" y="520" type="line"/>
      <point x="272" y="520" type="line"/>
      <point x="227" y="330" type="line"/>
    </contour>
    <contour>
      <point x="148" y="141" type="line"/>
      <point x="118" y="141" type="line"/>
      <point x="16" y="320" type="line"/>
      <point x="16" y="340" type="line"/>
      <point x="118" y="520" type="line"/>
      <point x="148" y="520" type="line"/>
      <point x="103" y="330" type="line"/>
    </contour>
  </outline>
</glyph>
<glyph name="degree" format="1">
  <advance width="276"/>
  <unicode hex="00B0"/>
  <outline>
    <contour>
      <point x="251" y="397" type="line" smooth="yes"/>
      <point x="251" y="341"/>
      <point x="204" y="295"/>
      <point x="138" y="295" type="curve" smooth="yes"/>
      <point x="72" y="295"/>
      <point x="25" y="341"/>
      <point x="25" y="397" type="curve" smooth="yes"/>
      <point x="25" y="603" type="line" smooth="yes"/>
      <point x="25" y="659"/>
      <point x="72" y="705"/>
      <point x="138" y="705" type="curve" smooth="yes"/>
      <point x="204" y="705"/>
      <point x="251" y="659"/>
      <point x="251" y="603" type="curve" smooth="yes"/>
    </contour>
    <contour>
      <point x="173" y="353" type="curve" smooth="yes"/>
      <point x="173" y="647" type="line" smooth="yes"/>
      <point x="173" y="669"/>
      <point x="160" y="687"/>
      <point x="138" y="687" type="curve" smooth="yes"/>
      <point x="116" y="687"/>
      <point x="103" y="669"/>
      <point x="103" y="647" type="curve" smooth="yes"/>
      <point x="103" y="353" type="line" smooth="yes"/>
      <point x="103" y="331"/>
      <point x="116" y="313"/>
      <point x="138" y="313" type="curve" smooth="yes"/>
      <point x="160" y="313"/>
      <point x="173" y="331"/>
    </contour>
  </outline>
</glyph>
<glyph name="acute" format="1">
  <advance width="300"/>
  <unicode hex="00B4"/>
  <outline>
    <contour>
      <point x="229" y="690" type="line"/>
      <point x="125" y="550" type="line"/>
      <point x="103" y="550" type="line"/>
      <point x="144" y="700" type="line"/>
      <point x="229" y="700" type="line"/>
    </contour>
  </outline>
</glyph>
<glyph name="paragraph" format="1">
  <advance width="295"/>
  <unicode hex="00B6"/>
  <outline>
    <contour>
      <point x="280" y="0" type="line"/>
      <point x="215" y="0" type="line"/>
      <point x="215" y="682" type="line"/>
      <point x="195" y="682" type="line"/>
      <point x="195" y="0" type="line"/>
      <point x="150" y="0" type="line"/>
      <point x="150" y="18" type="line"/>
      <point x="175" y="18" type="line"/>
      <point x="175" y="300" type="line"/>
      <point x="140" y="300" type="line" smooth="yes"/>
      <point x="74" y="300"/>
      <point x="20" y="346"/>
      <point x="20" y="402" type="curve" smooth="yes"/>
      <point x="20" y="598" type="line" smooth="yes"/>
      <point x="20" y="654"/>
      <point x="74" y="700"/>
      <point x="140" y="700" type="curve" smooth="yes"/>
      <point x="280" y="700" type="line"/>
      <point x="280" y="682" type="line"/>
      <point x="255" y="682" type="line"/>
      <point x="255" y="18" type="line"/>
      <point x="280" y="18" type="line"/>
    </contour>
    <contour>
      <point x="175" y="318" type="line"/>
      <point x="175" y="682" type="line"/>
      <point x="140" y="682" type="line" smooth="yes"/>
      <point x="118" y="682"/>
      <point x="100" y="664"/>
      <point x="100" y="642" type="curve" smooth="yes"/>
      <point x="100" y="358" type="line" smooth="yes"/>
      <point x="100" y="336"/>
      <point x="118" y="318"/>
      <point x="140" y="318" type="curve" smooth="yes"/>
    </contour>
  </outline>
</glyph>
<glyph name="cedilla" format="1">
  <advance width="300"/>
  <unicode hex="00B8"/>
  <outline>
    <contour>
      <point x="212" y="-84" type="curve" smooth="yes"/>
      <point x="212" y="-119"/>
      <point x="188" y="-140"/>
      <point x="151" y="-140" type="curve" smooth="yes"/>
      <point x="97" y="-140" type="line"/>
      <point x="97" y="-125" type="line"/>
      <point x="116" y="-125" type="line" smooth="yes"/>
      <point x="141" y="-125"/>
      <point x="147" y="-109"/>
      <point x="147" y="-84" type="curve" smooth="yes"/>
      <point x="147" y="-59"/>
      <point x="141" y="-43"/>
      <point x="116" y="-43" type="curve" smooth="yes"/>
      <point x="112" y="-43" type="line"/>
      <point x="112" y="-30" type="line"/>
      <point x="129" y="0" type="line"/>
      <point x="151" y="0" type="line"/>
      <point x="134" y="-28" type="line"/>
      <point x="151" y="-28" type="line" smooth="yes"/>
      <point x="188" y="-28"/>
      <point x="212" y="-49"/>
    </contour>
  </outline>
</glyph>
<glyph name="ordmasculine" format="1">
  <advance width="256"/>
  <unicode hex="00BA"/>
  <outline>
    <contour>
      <point x="224" y="379" type="line" smooth="yes"/>
      <point x="224" y="333"/>
      <point x="183" y="294"/>
      <point x="128" y="294" type="curve" smooth="yes"/>
      <point x="73" y="294"/>
      <point x="32" y="333"/>
      <point x="32" y="379" type="curve" smooth="yes"/>
      <point x="32" y="620" type="line" smooth="yes"/>
      <point x="32" y="666"/>
      <point x="73" y="705"/>
      <point x="128" y="705" type="curve" smooth="yes"/>
      <point x="183" y="705"/>
      <point x="224" y="666"/>
      <point x="224" y="620" type="curve" smooth="yes"/>
    </contour>
    <contour>
      <point x="157" y="342" type="curve" smooth="yes"/>
      <point x="157" y="657" type="line" smooth="yes"/>
      <point x="157" y="675"/>
      <point x="147" y="690"/>
      <point x="128" y="690" type="curve" smooth="yes"/>
      <point x="110" y="690"/>
      <point x="100" y="675"/>
      <point x="100" y="657" type="curve" smooth="yes"/>
      <point x="100" y="342" type="line" smooth="yes"/>
      <point x="100" y="324"/>
      <point x="110" y="309"/>
      <point x="128" y="309" type="curve" smooth="yes"/>
      <point x="147" y="309"/>
      <point x="157" y="324"/>
    </contour>
  </outline>
</glyph>
<glyph name="guillemotright" format="1">
  <advance width="300"/>
  <unicode hex="00BB"/>
  <outline>
    <contour>
      <point x="284" y="320" type="line"/>
      <point x="182" y="141" type="line"/>
      <point x="152" y="141" type="line"/>
      <point x="197" y="330" type="line"/>
      <point x="152" y="520" type="line"/>
      <point x="182" y="520" type="line"/>
      <point x="284" y="340" type="line"/>
    </contour>
    <contour>
      <point x="160" y="320" type="line"/>
      <point x="58" y="141" type="line"/>
      <point x="28" y="141" type="line"/>
      <point x="73" y="330" type="line"/>
      <point x="28" y="520" type="line"/>
      <point x="58" y="520" type="line"/>
      <point x="160" y="340" type="line"/>
    </contour>
  </outline>
</glyph>
<glyph name="questiondown" format="1">
  <advance width="274"/>
  <unicode hex="00BF"/>
  <outline>
    <contour>
      <point x="179" y="580" type="line"/>
      <point x="99" y="580" type="line"/>
      <point x="99" y="700" type="line"/>
      <point x="179" y="700" type="line"/>
    </contour>
    <contour>
      <point x="254" y="97" type="line" smooth="yes"/>
      <point x="254" y="41"/>
      <point x="205" y="-5"/>
      <point x="139" y="-5" type="curve" smooth="yes"/>
      <point x="73" y="-5"/>
      <point x="24" y="41"/>
      <point x="24" y="97" type="curve" smooth="yes"/>
      <point x="24" y="197" type="line" smooth="yes"/>
      <point x="24" y="231"/>
      <point x="31" y="257"/>
      <point x="50" y="287" type="curve" smooth="yes"/>
      <point x="75" y="326" type="line" smooth="yes"/>
      <point x="100" y="365"/>
      <point x="108" y="381"/>
      <point x="112" y="420" type="curve" smooth="yes"/>
      <point x="124" y="550" type="line"/>
      <point x="154" y="550" type="line"/>
      <point x="168" y="400" type="line" smooth="yes"/>
      <point x="169" y="384"/>
      <point x="170" y="372"/>
      <point x="170" y="361" type="curve" smooth="yes"/>
      <point x="170" y="336"/>
      <point x="166" y="321"/>
      <point x="153" y="301" type="curve" smooth="yes"/>
      <point x="128" y="262" type="line" smooth="yes"/>
      <point x="109" y="232"/>
      <point x="104" y="211"/>
      <point x="104" y="175" type="curve" smooth="yes"/>
      <point x="104" y="53" type="line" smooth="yes"/>
      <point x="104" y="31"/>
      <point x="117" y="13"/>
      <point x="139" y="13" type="curve" smooth="yes"/>
      <point x="161" y="13"/>
      <point x="174" y="31"/>
      <point x="174" y="53" type="curve" smooth="yes"/>
      <point x="174" y="210" type="line"/>
      <point x="254" y="210" type="line"/>
    </contour>
  </outline>
</glyph>
<glyph name="Aring" format="1">
  <advance width="275"/>
  <unicode hex="00C5"/>
  <outline>
    <contour>
      <point x="270" y="0" type="line"/>
      <point x="140" y="0" type="line"/>
      <point x="140" y="18" type="line"/>
      <point x="165" y="18" type="line"/>
      <point x="147" y="221" type="line"/>
      <point x="75" y="221" type="line"/>
      <point x="55" y="18" type="line"/>
      <point x="80" y="18" type="line"/>
      <point x="80" y="0" type="line"/>
      <point x="5" y="0" type="line"/>
      <point x="5" y="18" type="line"/>
      <point x="30" y="18" type="line"/>
      <point x="100" y="700" type="line"/>
      <point x="180" y="700" type="line"/>
      <point x="245" y="18" type="line"/>
      <point x="270" y="18" type="line"/>
    </contour>
    <contour>
      <point x="146" y="239" type="line"/>
      <point x="113" y="617" type="line"/>
      <point x="76" y="239" type="line"/>
    </contour>
    <contour>
      <point x="235" y="800" type="curve" smooth="yes"/>
      <point x="235" y="755"/>
      <point x="202" y="725"/>
      <point x="140" y="725" type="curve" smooth="yes"/>
      <point x="78" y="725"/>
      <point x="45" y="755"/>
      <point x="45" y="800" type="curve" smooth="yes"/>
      <point x="45" y="845"/>
      <point x="78" y="875"/>
      <point x="140" y="875" type="curve" smooth="yes"/>
      <point x="202" y="875"/>
      <point x="235" y="845"/>
    </contour>
    <contour>
      <point x="166" y="770" type="curve" smooth="yes"/>
      <point x="166" y="830" type="line" smooth="yes"/>
      <point x="166" y="846"/>
      <point x="157" y="860"/>
      <point x="140" y="860" type="curve" smooth="yes"/>
      <point x="123" y="860"/>
      <point x="114" y="846"/>
      <point x="114" y="830" type="curve" smooth="yes"/>
      <point x="114" y="770" type="line" smooth="yes"/>
      <point x="114" y="753"/>
      <point x="123" y="740"/>
      <point x="140" y="740" type="curve" smooth="yes"/>
      <point x="157" y="740"/>
      <point x="166" y="753"/>
    </contour>
  </outline>
</glyph>
<glyph name="Ccedilla" format="1">
  <advance width="300"/>
  <unicode hex="00C7"/>
  <outline>
    <contour>
      <point x="270" y="97" type="line" smooth="yes"/>
      <point x="270" y="41"/>
      <point x="217" y="-5"/>
      <point x="151" y="-5" type="curve"/>
      <point x="137" y="-28" type="line"/>
      <point x="154" y="-28" type="line" smooth="yes"/>
      <point x="191" y="-28"/>
      <point x="215" y="-49"/>
      <point x="215" y="-84" type="curve" smooth="yes"/>
      <point x="215" y="-119"/>
      <point x="191" y="-140"/>
      <point x="154" y="-140" type="curve" smooth="yes"/>
      <point x="100" y="-140" type="line"/>
      <point x="100" y="-125" type="line"/>
      <point x="119" y="-125" type="line" smooth="yes"/>
      <point x="144" y="-125"/>
      <point x="150" y="-109"/>
      <point x="150" y="-84" type="curve" smooth="yes"/>
      <point x="150" y="-59"/>
      <point x="144" y="-43"/>
      <point x="119" y="-43" type="curve" smooth="yes"/>
      <point x="115" y="-43" type="line"/>
      <point x="115" y="-30" type="line"/>
      <point x="130" y="-4" type="line"/>
      <point x="73" y="5"/>
      <point x="30" y="47"/>
      <point x="30" y="97" type="curve" smooth="yes"/>
      <point x="30" y="603" type="line" smooth="yes"/>
      <point x="30" y="659"/>
      <point x="84" y="705"/>
      <point x="150" y="705" type="curve" smooth="yes"/>
      <point x="216" y="705"/>
      <point x="270" y="659"/>
      <point x="270" y="603" type="curve" smooth="yes"/>
      <point x="270" y="490" type="line"/>
      <point x="190" y="490" type="line"/>
      <point x="190" y="647" type="line" smooth="yes"/>
      <point x="190" y="669"/>
      <point x="172" y="687"/>
      <point x="150" y="687" type="curve" smooth="yes"/>
      <point x="128" y="687"/>
      <point x="110" y="669"/>
      <point x="110" y="647" type="curve" smooth="yes"/>
      <point x="110" y="53" type="line" smooth="yes"/>
      <point x="110" y="31"/>
      <point x="128" y="13"/>
      <point x="150" y="13" type="curve" smooth="yes"/>
      <point x="172" y="13"/>
      <point x="190" y="31"/>
      <point x="190" y="53" type="curve" smooth="yes"/>
      <point x="190" y="210" type="line"/>
      <point x="270" y="210" type="line"/>
    </contour>
  </outline>
</glyph>
<glyph name="Oslash" format="1">
  <advance width="300"/>
  <unicode hex="00D8"/>
  <outline>
    <contour>
      <point x="270" y="97" type="line" smooth="yes"/>
      <point x="270" y="41"/>
      <point x="216" y="-5"/>
      <point x="150" y="-5" type="curve" smooth="yes"/>
      <point x="127" y="-5"/>
      <point x="105" y="1"/>
      <point x="87" y="10" type="curve"/>
      <point x="69" y="-60" type="line"/>
      <point x="45" y="-60" type="line"/>
      <point x="67" y="24" type="line"/>
      <point x="44" y="42"/>
      <point x="30" y="69"/>
      <point x="30" y="97" type="curve" smooth="yes"/>
      <point x="30" y="603" type="line" smooth="yes"/>
      <point x="30" y="659"/>
      <point x="84" y="705"/>
      <point x="150" y="705" type="curve" smooth="yes"/>
      <point x="173" y="705"/>
      <point x="195" y="699"/>
      <point x="213" y="690" type="curve"/>
      <point x="231" y="760" type="line"/>
      <point x="255" y="760" type="line"/>
      <point x="233" y="676" type="line"/>
      <point x="256" y="658"/>
      <point x="270" y="631"/>
      <point x="270" y="603" type="curve" smooth="yes"/>
    </contour>
    <contour>
      <point x="190" y="592" type="line"/>
      <point x="190" y="647" type="line" smooth="yes"/>
      <point x="190" y="669"/>
      <point x="172" y="687"/>
      <point x="150" y="687" type="curve" smooth="yes"/>
      <point x="128" y="687"/>
      <point x="110" y="669"/>
      <point x="110" y="647" type="curve" smooth="yes"/>
      <point x="110" y="219" type="line"/>
    </contour>
    <contour>
      <point x="190" y="53" type="curve" smooth="yes"/>
      <point x="190" y="480" type="line"/>
      <point x="110" y="108" type="line"/>
      <point x="110" y="53" type="line" smooth="yes"/>
      <point x="110" y="31"/>
      <point x="128" y="13"/>
      <point x="150" y="13" type="curve" smooth="yes"/>
      <point x="172" y="13"/>
      <point x="190" y="31"/>
    </contour>
  </outline>
</glyph>
<glyph name="Thorn" format="1">
  <advance width="295"/>
  <unicode hex="00DE"/>
  <outline>
    <contour>
      <point x="275" y="267" type="line" smooth="yes"/>
      <point x="275" y="211"/>
      <point x="221" y="165"/>
      <point x="155" y="165" type="curve" smooth="yes"/>
      <point x="120" y="165" type="line"/>
      <point x="120" y="18" type="line"/>
      <point x="145" y="18" type="line"/>
      <point x="145" y="0" type="line"/>
      <point x="15" y="0" type="line"/>
      <point x="15" y="18" type="line"/>
      <point x="40" y="18" type="line"/>
      <point x="40" y="682" type="line"/>
      <point x="15" y="682" type="line"/>
      <point x="15" y="700" type="line"/>
      <point x="145" y="700" type="line"/>
      <point x="145" y="682" type="line"/>
      <point x="120" y="682" type="line"/>
      <point x="120" y="565" type="line"/>
      <point x="155" y="565" type="line" smooth="yes"/>
      <point x="221" y="565"/>
      <point x="275" y="519"/>
      <point x="275" y="463" type="curve" smooth="yes"/>
    </contour>
    <contour>
      <point x="195" y="223" type="curve" smooth="yes"/>
      <point x="195" y="507" type="line" smooth="yes"/>
      <point x="195" y="529"/>
      <point x="177" y="547"/>
      <point x="155" y="547" type="curve" smooth="yes"/>
      <point x="120" y="547" type="line"/>
      <point x="120" y="183" type="line"/>
      <point x="155" y="183" type="line" smooth="yes"/>
      <point x="177" y="183"/>
      <point x="195" y="201"/>
    </contour>
  </outline>
</glyph>
<glyph name="germandbls" format="1">
  <advance width="280"/>
  <unicode hex="00DF"/>
  <outline>
    <contour>
      <point x="255" y="102" type="line" smooth="yes"/>
      <point x="255" y="46"/>
      <point x="208" y="0"/>
      <point x="142" y="0" type="curve" smooth="yes"/>
      <point x="132" y="0" type="line"/>
      <point x="132" y="18" type="line"/>
      <point x="142" y="18" type="line" smooth="yes"/>
      <point x="164" y="18"/>
      <point x="177" y="36"/>
      <point x="177" y="58" type="curve" smooth="yes"/>
      <point x="177" y="321" type="line" smooth="yes"/>
      <point x="177" y="343"/>
      <point x="159" y="361"/>
      <point x="137" y="361" type="curve" smooth="yes"/>
      <point x="132" y="361" type="line"/>
      <point x="132" y="379" type="line"/>
      <point x="137" y="379" type="line" smooth="yes"/>
      <point x="159" y="379"/>
      <point x="177" y="397"/>
      <point x="177" y="419" type="curve" smooth="yes"/>
      <point x="177" y="647" type="line" smooth="yes"/>
      <point x="177" y="669"/>
      <point x="166" y="687"/>
      <point x="144" y="687" type="curve" smooth="yes"/>
      <point x="122" y="687"/>
      <point x="111" y="669"/>
      <point x="111" y="647" type="curve" smooth="yes"/>
      <point x="111" y="0" type="line"/>
      <point x="8" y="0" type="line"/>
      <point x="8" y="18" type="line"/>
      <point x="33" y="18" type="line"/>
      <point x="33" y="603" type="line" smooth="yes"/>
      <point x="33" y="659"/>
      <point x="78" y="705"/>
      <point x="144" y="705" type="curve" smooth="yes"/>
      <point x="210" y="705"/>
      <point x="255" y="659"/>
      <point x="255" y="603" type="curve" smooth="yes"/>
      <point x="255" y="463" type="line" smooth="yes"/>
      <point x="255" y="422"/>
      <point x="226" y="386"/>
      <point x="185" y="370" type="curve"/>
      <point x="226" y="353"/>
      <point x="255" y="318"/>
      <point x="255" y="277" type="curve" smooth="yes"/>
    </contour>
  </outline>
</glyph>
<glyph name="ae" format="1">
  <advance width="412"/>
  <unicode hex="00E6"/>
  <outline>
    <contour>
      <point x="387" y="97" type="line" smooth="yes"/>
      <point x="387" y="41"/>
      <point x="340" y="-5"/>
      <point x="274" y="-5" type="curve" smooth="yes"/>
      <point x="245" y="-5"/>
      <point x="219" y="9"/>
      <point x="200" y="24" type="curve"/>
      <point x="183" y="8"/>
      <point x="161" y="-5"/>
      <point x="130" y="-5" type="curve" smooth="yes"/>
      <point x="64" y="-5"/>
      <point x="22" y="36"/>
      <point x="22" y="97" type="curve" smooth="yes"/>
      <point x="22" y="202" type="line" smooth="yes"/>
      <point x="22" y="273"/>
      <point x="72" y="299"/>
      <point x="137" y="299" type="curve" smooth="yes"/>
      <point x="161" y="299" type="line"/>
      <point x="161" y="467" type="line" smooth="yes"/>
      <point x="161" y="489"/>
      <point x="154" y="507"/>
      <point x="132" y="507" type="curve" smooth="yes"/>
      <point x="110" y="507"/>
      <point x="103" y="489"/>
      <point x="103" y="467" type="curve" smooth="yes"/>
      <point x="103" y="361" type="line"/>
      <point x="25" y="361" type="line"/>
      <point x="25" y="423" type="line" smooth="yes"/>
      <point x="25" y="484"/>
      <point x="66" y="525"/>
      <point x="132" y="525" type="curve" smooth="yes"/>
      <point x="161" y="525"/>
      <point x="185" y="517"/>
      <point x="203" y="503" type="curve"/>
      <point x="222" y="517"/>
      <point x="246" y="525"/>
      <point x="274" y="525" type="curve" smooth="yes"/>
      <point x="340" y="525"/>
      <point x="387" y="479"/>
      <point x="387" y="423" type="curve" smooth="yes"/>
      <point x="387" y="252" type="line"/>
      <point x="239" y="252" type="line"/>
      <point x="239" y="53" type="line" smooth="yes"/>
      <point x="239" y="31"/>
      <point x="252" y="13"/>
      <point x="274" y="13" type="curve" smooth="yes"/>
      <point x="296" y="13"/>
      <point x="309" y="31"/>
      <point x="309" y="53" type="curve" smooth="yes"/>
      <point x="309" y="159" type="line"/>
      <point x="387" y="159" type="line"/>
    </contour>
    <contour>
      <point x="309" y="270" type="line"/>
      <point x="309" y="467" type="line" smooth="yes"/>
      <point x="309" y="489"/>
      <point x="296" y="507"/>
      <point x="274" y="507" type="curve" smooth="yes"/>
      <point x="252" y="507"/>
      <point x="239" y="489"/>
      <point x="239" y="467" type="curve" smooth="yes"/>
      <point x="239" y="270" type="line"/>
    </contour>
    <contour>
      <point x="161" y="53" type="curve" smooth="yes"/>
      <point x="161" y="281" type="line"/>
      <point x="138" y="281" type="line" smooth="yes"/>
      <point x="112" y="281"/>
      <point x="100" y="266"/>
      <point x="100" y="241" type="curve" smooth="yes"/>
      <point x="100" y="53" type="line" smooth="yes"/>
      <point x="100" y="31"/>
      <point x="108" y="13"/>
      <point x="130" y="13" type="curve" smooth="yes"/>
      <point x="152" y="13"/>
      <point x="161" y="31"/>
    </contour>
  </outline>
</glyph>
<glyph name="eth" format="1">
  <advance width="276"/>
  <unicode hex="00F0"/>
  <outline>
    <contour>
      <point x="276" y="652" type="line"/>
      <point x="244" y="635" type="line"/>
      <point x="248" y="623"/>
      <point x="251" y="611"/>
      <point x="251" y="598" type="curve" smooth="yes"/>
      <point x="251" y="97" type="line" smooth="yes"/>
      <point x="251" y="41"/>
      <point x="204" y="-5"/>
      <point x="138" y="-5" type="curve" smooth="yes"/>
      <point x="72" y="-5"/>
      <point x="25" y="41"/>
      <point x="25" y="97" type="curve" smooth="yes"/>
      <point x="25" y="433" type="line" smooth="yes"/>
      <point x="25" y="493"/>
      <point x="56" y="525"/>
      <point x="112" y="525" type="curve" smooth="yes"/>
      <point x="139" y="525"/>
      <point x="159" y="517"/>
      <point x="173" y="506" type="curve"/>
      <point x="173" y="598" type="line"/>
      <point x="128" y="574" type="line"/>
      <point x="128" y="594" type="line"/>
      <point x="173" y="618" type="line"/>
      <point x="173" y="642" type="line" smooth="yes"/>
      <point x="173" y="664"/>
      <point x="160" y="682"/>
      <point x="138" y="682" type="curve" smooth="yes"/>
      <point x="113" y="682" type="line"/>
      <point x="113" y="700" type="line"/>
      <point x="138" y="700" type="line" smooth="yes"/>
      <point x="181" y="700"/>
      <point x="217" y="680"/>
      <point x="235" y="651" type="curve"/>
      <point x="276" y="672" type="line"/>
    </contour>
    <contour>
      <point x="173" y="53" type="curve" smooth="yes"/>
      <point x="173" y="488" type="line"/>
      <point x="162" y="499"/>
      <point x="146" y="505"/>
      <point x="132" y="505" type="curve" smooth="yes"/>
      <point x="110" y="505"/>
      <point x="103" y="489"/>
      <point x="103" y="467" type="curve" smooth="yes"/>
      <point x="103" y="53" type="line" smooth="yes"/>
      <point x="103" y="31"/>
      <point x="116" y="13"/>
      <point x="138" y="13" type="curve" smooth="yes"/>
      <point x="160" y="13"/>
      <point x="173" y="31"/>
    </contour>
  </outline>
</glyph>
<glyph name="thorn" format="1">
  <advance width="278"/>
  <unicode hex="00FE"/>
  <outline>
    <contour>
      <point x="252" y="87" type="line" smooth="yes"/>
      <point x="252" y="27"/>
      <point x="223" y="-5"/>
      <point x="167" y="-5" type="curve" smooth="yes"/>
      <point x="144" y="-5"/>
      <point x="124" y="1"/>
      <point x="109" y="14" type="curve"/>
      <point x="109" y="-122" type="line"/>
      <point x="134" y="-122" type="line"/>
      <point x="134" y="-140" type="line"/>
      <point x="6" y="-140" type="line"/>
      <point x="6" y="-122" type="line"/>
      <point x="31" y="-122" type="line"/>
      <point x="31" y="682" type="line"/>
      <point x="6" y="682" type="line"/>
      <point x="6" y="700" type="line"/>
      <point x="109" y="700" type="line"/>
      <point x="109" y="506" type="line"/>
      <point x="124" y="519"/>
      <point x="144" y="525"/>
      <point x="167" y="525" type="curve" smooth="yes"/>
      <point x="223" y="525"/>
      <point x="252" y="493"/>
      <point x="252" y="433" type="curve" smooth="yes"/>
    </contour>
    <contour>
      <point x="174" y="53" type="curve" smooth="yes"/>
      <point x="174" y="467" type="line" smooth="yes"/>
      <point x="174" y="489"/>
      <point x="167" y="505"/>
      <point x="145" y="505" type="curve" smooth="yes"/>
      <point x="131" y="505"/>
      <point x="120" y="499"/>
      <point x="109" y="488" type="curve"/>
      <point x="109" y="32" type="line"/>
      <point x="120" y="21"/>
      <point x="131" y="15"/>
      <point x="145" y="15" type="curve" smooth="yes"/>
      <point x="167" y="15"/>
      <point x="174" y="31"/>
    </contour>
  </outline>
</glyph>
<glyph name="dotlessi" format="1">
  <advance width="152"/>
  <unicode hex="0131"/>
  <outline>
    <contour>
      <point x="141" y="0" type="line"/>
      <point x="13" y="0" type="line"/>
      <point x="13" y="18" type="line"/>
      <point x="38" y="18" type="line"/>
      <point x="38" y="502" type="line"/>
      <point x="13" y="502" type="line"/>
      <point x="13" y="520" type="line"/>
      <point x="116" y="520" type="line"/>
      <point x="116" y="18" type="line"/>
      <point x="141" y="18" type="line"/>
    </contour>
  </outline>
</glyph>
<glyph name="Lslash" format="1">
  <advance width="275"/>
  <unicode hex="0141"/>
  <outline>
    <contour>
      <point x="260" y="0" type="line"/>
      <point x="15" y="0" type="line"/>
      <point x="15" y="18" type="line"/>
      <point x="40" y="18" type="line"/>
      <point x="40" y="325" type="line"/>
      <point x="15" y="310" type="line"/>
      <point x="15" y="330" type="line"/>
      <point x="40" y="345" type="line"/>
      <point x="40" y="682" type="line"/>
      <point x="15" y="682" type="line"/>
      <point x="15" y="700" type="line"/>
      <point x="145" y="700" type="line"/>
      <point x="145" y="682" type="line"/>
      <point x="120" y="682" type="line"/>
      <point x="120" y="394" type="line"/>
      <point x="180" y="430" type="line"/>
      <point x="180" y="410" type="line"/>
      <point x="120" y="374" type="line"/>
      <point x="120" y="18" type="line"/>
      <point x="180" y="18" type="line"/>
      <point x="180" y="210" type="line"/>
      <point x="260" y="210" type="line"/>
    </contour>
  </outline>
</glyph>
<glyph name="lslash" format="1">
  <advance width="150"/>
  <unicode hex="0142"/>
  <outline>
    <contour>
      <point x="139" y="0" type="line"/>
      <point x="11" y="0" type="line"/>
      <point x="11" y="18" type="line"/>
      <point x="36" y="18" type="line"/>
      <point x="36" y="337" type="line"/>
      <point x="11" y="322" type="line"/>
      <point x="11" y="341" type="line"/>
      <point x="36" y="356" type="line"/>
      <point x="36" y="682" type="line"/>
      <point x="11" y="682" type="line"/>
      <point x="11" y="700" type="line"/>
      <point x="114" y="700" type="line"/>
      <point x="114" y="404" type="line"/>
      <point x="139" y="419" type="line"/>
      <point x="139" y="400" type="line"/>
      <point x="114" y="385" type="line"/>
      <point x="114" y="18" type="line"/>
      <point x="139" y="18" type="line"/>
    </contour>
  </outline>
</glyph>
<glyph name="OE" format="1">
  <advance width="440"/>
  <unicode hex="0152"/>
  <outline>
    <contour>
      <point x="415" y="0" type="line"/>
      <point x="150" y="0" type="line" smooth="yes"/>
      <point x="84" y="0"/>
      <point x="30" y="46"/>
      <point x="30" y="102" type="curve" smooth="yes"/>
      <point x="30" y="598" type="line" smooth="yes"/>
      <point x="30" y="654"/>
      <point x="84" y="700"/>
      <point x="150" y="700" type="curve" smooth="yes"/>
      <point x="415" y="700" type="line"/>
      <point x="415" y="490" type="line"/>
      <point x="335" y="490" type="line"/>
      <point x="335" y="682" type="line"/>
      <point x="270" y="682" type="line"/>
      <point x="270" y="379" type="line"/>
      <point x="365" y="379" type="line"/>
      <point x="365" y="361" type="line"/>
      <point x="270" y="361" type="line"/>
      <point x="270" y="18" type="line"/>
      <point x="335" y="18" type="line"/>
      <point x="335" y="210" type="line"/>
      <point x="415" y="210" type="line"/>
    </contour>
    <contour>
      <point x="190" y="18" type="line"/>
      <point x="190" y="682" type="line"/>
      <point x="150" y="682" type="line" smooth="yes"/>
      <point x="128" y="682"/>
      <point x="110" y="664"/>
      <point x="110" y="642" type="curve" smooth="yes"/>
      <point x="110" y="58" type="line" smooth="yes"/>
      <point x="110" y="36"/>
      <point x="128" y="18"/>
      <point x="150" y="18" type="curve" smooth="yes"/>
    </contour>
  </outline>
</glyph>
<glyph name="oe" format="1">
  <advance width="424"/>
  <unicode hex="0153"/>
  <outline>
    <contour>
      <point x="399" y="97" type="line" smooth="yes"/>
      <point x="399" y="41"/>
      <point x="352" y="-5"/>
      <point x="286" y="-5" type="curve" smooth="yes"/>
      <point x="257" y="-5"/>
      <point x="231" y="9"/>
      <point x="212" y="24" type="curve"/>
      <point x="195" y="8"/>
      <point x="173" y="-5"/>
      <point x="138" y="-5" type="curve" smooth="yes"/>
      <point x="72" y="-5"/>
      <point x="25" y="41"/>
      <point x="25" y="97" type="curve" smooth="yes"/>
      <point x="25" y="423" type="line" smooth="yes"/>
      <point x="25" y="479"/>
      <point x="72" y="525"/>
      <point x="138" y="525" type="curve" smooth="yes"/>
      <point x="167" y="525"/>
      <point x="193" y="516"/>
      <point x="212" y="501" type="curve"/>
      <point x="231" y="516"/>
      <point x="257" y="525"/>
      <point x="286" y="525" type="curve" smooth="yes"/>
      <point x="352" y="525"/>
      <point x="399" y="479"/>
      <point x="399" y="423" type="curve" smooth="yes"/>
      <point x="399" y="252" type="line"/>
      <point x="251" y="252" type="line"/>
      <point x="251" y="53" type="line" smooth="yes"/>
      <point x="251" y="31"/>
      <point x="264" y="13"/>
      <point x="286" y="13" type="curve" smooth="yes"/>
      <point x="308" y="13"/>
      <point x="321" y="31"/>
      <point x="321" y="53" type="curve" smooth="yes"/>
      <point x="321" y="159" type="line"/>
      <point x="399" y="159" type="line"/>
    </contour>
    <contour>
      <point x="321" y="270" type="line"/>
      <point x="321" y="467" type="line" smooth="yes"/>
      <point x="321" y="489"/>
      <point x="308" y="507"/>
      <point x="286" y="507" type="curve" smooth="yes"/>
      <point x="264" y="507"/>
      <point x="251" y="489"/>
      <point x="251" y="467" type="curve" smooth="yes"/>
      <point x="251" y="270" type="line"/>
    </contour>
    <contour>
      <point x="173" y="53" type="curve" smooth="yes"/>
      <point x="173" y="467" type="line" smooth="yes"/>
      <point x="173" y="489"/>
      <point x="160" y="507"/>
      <point x="138" y="507" type="curve" smooth="yes"/>
      <point x="116" y="507"/>
      <point x="103" y="489"/>
      <point x="103" y="467" type="curve" smooth="yes"/>
      <point x="103" y="53" type="line" smooth="yes"/>
      <point x="103" y="31"/>
      <point x="116" y="13"/>
      <point x="138" y="13" type="curve" smooth="yes"/>
      <point x="160" y="13"/>
      <point x="173" y="31"/>
    </contour>
  </outline>
</glyph>
<glyph name="florin" format="1">
  <advance width="178"/>
  <unicode hex="0192"/>
  <outline>
    <contour>
      <point x="176" y="682" type="line"/>
      <point x="156" y="682" type="line" smooth="yes"/>
      <point x="134" y="682"/>
      <point x="121" y="664"/>
      <point x="121" y="642" type="curve" smooth="yes"/>
      <point x="121" y="520" type="line"/>
      <point x="161" y="520" type="line"/>
      <point x="161" y="502" type="line"/>
      <point x="121" y="502" type="line"/>
      <point x="121" y="-38" type="line" smooth="yes"/>
      <point x="121" y="-94"/>
      <point x="74" y="-140"/>
      <point x="8" y="-140" type="curve" smooth="yes"/>
      <point x="-17" y="-140" type="line"/>
      <point x="-17" y="-122" type="line"/>
      <point x="2" y="-122" type="line" smooth="yes"/>
      <point x="29" y="-122"/>
      <point x="41" y="-104"/>
      <point x="41" y="-82" type="curve" smooth="yes"/>
      <point x="41" y="502" type="line"/>
      <point x="16" y="502" type="line"/>
      <point x="16" y="520" type="line"/>
      <point x="41" y="520" type="line"/>
      <point x="41" y="598" type="line" smooth="yes"/>
      <point x="41" y="654"/>
      <point x="90" y="700"/>
      <point x="156" y="700" type="curve" smooth="yes"/>
      <point x="176" y="700" type="line"/>
    </contour>
  </outline>
</glyph>
<glyph name="caron" format="1">
  <advance width="300"/>
  <unicode hex="02C7"/>
  <outline>
    <contour>
      <point x="245" y="700" type="line"/>
      <point x="168" y="550" type="line"/>
      <point x="130" y="550" type="line"/>
      <point x="54" y="700" type="line"/>
      <point x="77" y="700" type="line"/>
      <point x="150" y="629" type="line"/>
      <point x="223" y="700" type="line"/>
    </contour>
  </outline>
</glyph>
<glyph name="breve" format="1">
  <advance width="300"/>
  <unicode hex="02D8"/>
  <outline>
    <contour>
      <point x="245" y="635" type="line" smooth="yes"/>
      <point x="245" y="590"/>
      <point x="212" y="560"/>
      <point x="150" y="560" type="curve" smooth="yes"/>
      <point x="88" y="560"/>
      <point x="55" y="590"/>
      <point x="55" y="635" type="curve" smooth="yes"/>
      <point x="55" y="659" type="line"/>
      <point x="124" y="659" type="line"/>
      <point x="124" y="605" type="line" smooth="yes"/>
      <point x="124" y="588"/>
      <point x="133" y="575"/>
      <point x="150" y="575" type="curve" smooth="yes"/>
      <point x="167" y="575"/>
      <point x="176" y="588"/>
      <point x="176" y="605" type="curve" smooth="yes"/>
      <point x="176" y="659" type="line"/>
      <point x="245" y="659" type="line"/>
    </contour>
  </outline>
</glyph>
<glyph name="dotaccent" format="1">
  <advance width="300"/>
  <unicode hex="02D9"/>
  <outline>
    <contour>
      <point x="185" y="558" type="line"/>
      <point x="115" y="558" type="line"/>
      <point x="115" y="663" type="line"/>
      <point x="185" y="663" type="line"/>
    </contour>
  </outline>
</glyph>
<glyph name="ring" format="1">
  <advance width="300"/>
  <unicode hex="02DA"/>
  <outline>
    <contour>
      <point x="245" y="625" type="curve" smooth="yes"/>
      <point x="245" y="580"/>
      <point x="212" y="550"/>
      <point x="150" y="550" type="curve" smooth="yes"/>
      <point x="88" y="550"/>
      <point x="55" y="580"/>
      <point x="55" y="625" type="curve" smooth="yes"/>
      <point x="55" y="670"/>
      <point x="88" y="700"/>
      <point x="150" y="700" type="curve" smooth="yes"/>
      <point x="212" y="700"/>
      <point x="245" y="670"/>
    </contour>
    <contour>
      <point x="176" y="595" type="curve" smooth="yes"/>
      <point x="176" y="655" type="line" smooth="yes"/>
      <point x="176" y="671"/>
      <point x="167" y="685"/>
      <point x="150" y="685" type="curve" smooth="yes"/>
      <point x="133" y="685"/>
      <point x="124" y="671"/>
      <point x="124" y="655" type="curve" smooth="yes"/>
      <point x="124" y="595" type="line" smooth="yes"/>
      <point x="124" y="578"/>
      <point x="133" y="565"/>
      <point x="150" y="565" type="curve" smooth="yes"/>
      <point x="167" y="565"/>
      <point x="176" y="578"/>
    </contour>
  </outline>
</glyph>
<glyph name="ogonek" format="1">
  <advance width="300"/>
  <unicode hex="02DB"/>
  <outline>
    <contour>
      <point x="221" y="-140" type="line"/>
      <point x="211" y="-140" type="line" smooth="yes"/>
      <point x="145" y="-140"/>
      <point x="111" y="-104"/>
      <point x="111" y="-48" type="curve" smooth="yes"/>
      <point x="111" y="0" type="line"/>
      <point x="176" y="0" type="line"/>
      <point x="176" y="-77" type="line" smooth="yes"/>
      <point x="176" y="-103"/>
      <point x="189" y="-122"/>
      <point x="211" y="-122" type="curve" smooth="yes"/>
      <point x="221" y="-122" type="line"/>
    </contour>
  </outline>
</glyph>
<glyph name="tilde" format="1">
  <advance width="300"/>
  <unicode hex="02DC"/>
  <outline>
    <contour>
      <point x="266" y="650" type="line"/>
      <point x="260" y="621" type="line" smooth="yes"/>
      <point x="250" y="571"/>
      <point x="217" y="559"/>
      <point x="176" y="569" type="curve" smooth="yes"/>
      <point x="100" y="587" type="line" smooth="yes"/>
      <point x="75" y="593"/>
      <point x="62" y="583"/>
      <point x="51" y="561" type="curve"/>
      <point x="34" y="566" type="line"/>
      <point x="40" y="595" type="line" smooth="yes"/>
      <point x="50" y="645"/>
      <point x="83" y="657"/>
      <point x="124" y="647" type="curve" smooth="yes"/>
      <point x="200" y="629" type="line" smooth="yes"/>
      <point x="225" y="623"/>
      <point x="238" y="633"/>
      <point x="249" y="655" type="curve"/>
    </contour>
  </outline>
</glyph>
<glyph name="hungarumlaut" format="1">
  <advance width="300"/>
  <unicode hex="02DD"/>
  <outline>
    <contour>
      <point x="264" y="690" type="line"/>
      <point x="160" y="550" type="line"/>
      <point x="138" y="550" type="line"/>
      <point x="179" y="700" type="line"/>
      <point x="264" y="700" type="line"/>
    </contour>
    <contour>
      <point x="154" y="690" type="line"/>
      <point x="50" y="550" type="line"/>
      <point x="28" y="550" type="line"/>
      <point x="69" y="700" type="line"/>
      <point x="154" y="700" type="line"/>
    </contour>
  </outline>
</glyph>
<glyph name="quotesinglbase" format="1">
  <advance width="132"/>
  <unicode hex="201A"/>
  <outline>
    <contour>
      <point x="112" y="102" type="line"/>
      <point x="53" y="-90" type="line"/>
      <point x="16" y="-90" type="line"/>
      <point x="32" y="120" type="line"/>
      <point x="112" y="120" type="line"/>
    </contour>
  </outline>
</glyph>
<glyph name="quotedblleft" format="1">
  <advance width="240"/>
  <unicode hex="201C"/>
  <outline>
    <contour>
      <point x="217" y="700" type="line"/>
      <point x="201" y="490" type="line"/>
      <point x="121" y="490" type="line"/>
      <point x="121" y="508" type="line"/>
      <point x="180" y="700" type="line"/>
    </contour>
    <contour>
      <point x="109" y="700" type="line"/>
      <point x="93" y="490" type="line"/>
      <point x="13" y="490" type="line"/>
      <point x="13" y="508" type="line"/>
      <point x="72" y="700" type="line"/>
    </contour>
  </outline>
</glyph>
<glyph name="quotedblright" format="1">
  <advance width="240"/>
  <unicode hex="201D"/>
  <outline>
    <contour>
      <point x="218" y="682" type="line"/>
      <point x="159" y="490" type="line"/>
      <point x="122" y="490" type="line"/>
      <point x="138" y="700" type="line"/>
      <point x="218" y="700" type="line"/>
    </contour>
    <contour>
      <point x="110" y="682" type="line"/>
      <point x="51" y="490" type="line"/>
      <point x="14" y="490" type="line"/>
      <point x="30" y="700" type="line"/>
      <point x="110" y="700" type="line"/>
    </contour>
  </outline>
</glyph>
<glyph name="quotedblbase" format="1">
  <advance width="240"/>
  <unicode hex="201E"/>
  <outline>
    <contour>
      <point x="220" y="102" type="line"/>
      <point x="161" y="-90" type="line"/>
      <point x="124" y="-90" type="line"/>
      <point x="140" y="120" type="line"/>
      <point x="220" y="120" type="line"/>
    </contour>
    <contour>
      <point x="112" y="102" type="line"/>
      <point x="53" y="-90" type="line"/>
      <point x="16" y="-90" type="line"/>
      <point x="32" y="120" type="line"/>
      <point x="112" y="120" type="line"/>
    </contour>
  </outline>
</glyph>
<glyph name="dagger" format="1">
  <advance width="258"/>
  <unicode hex="2020"/>
  <outline>
    <contour>
      <point x="243" y="490" type="line"/>
      <point x="168" y="490" type="line"/>
      <point x="168" y="266" type="line"/>
      <point x="144" y="0" type="line"/>
      <point x="114" y="0" type="line"/>
      <point x="90" y="266" type="line"/>
      <point x="90" y="490" type="line"/>
      <point x="15" y="490" type="line"/>
      <point x="15" y="508" type="line"/>
      <point x="90" y="508" type="line"/>
      <point x="90" y="682" type="line"/>
      <point x="65" y="682" type="line"/>
      <point x="65" y="700" type="line"/>
      <point x="193" y="700" type="line"/>
      <point x="193" y="682" type="line"/>
      <point x="168" y="682" type="line"/>
      <point x="168" y="508" type="line"/>
      <point x="243" y="508" type="line"/>
    </contour>
  </outline>
</glyph>
<glyph name="ellipsis" format="1">
  <advance width="375"/>
  <unicode hex="2026"/>
  <outline>
    <contour>
      <point x="351" y="0" type="line"/>
      <point x="274" y="0" type="line"/>
      <point x="274" y="120" type="line"/>
      <point x="351" y="120" type="line"/>
    </contour>
    <contour>
      <point x="226" y="0" type="line"/>
      <point x="149" y="0" type="line"/>
      <point x="149" y="120" type="line"/>
      <point x="226" y="120" type="line"/>
    </contour>
    <contour>
      <point x="101" y="0" type="line"/>
      <point x="24" y="0" type="line"/>
      <point x="24" y="120" type="line"/>
      <point x="101" y="120" type="line"/>
    </contour>
  </outline>
</glyph>
<glyph name="perthousand" format="1">
  <advance width="705"/>
  <unicode hex="2030"/>
  <outline>
    <contour>
      <point x="685" y="81" type="line" smooth="yes"/>
      <point x="685" y="34"/>
      <point x="645" y="-5"/>
      <point x="589" y="-5" type="curve" smooth="yes"/>
      <point x="533" y="-5"/>
      <point x="493" y="34"/>
      <point x="493" y="81" type="curve" smooth="yes"/>
      <point x="493" y="319" type="line" smooth="yes"/>
      <point x="493" y="366"/>
      <point x="533" y="405"/>
      <point x="589" y="405" type="curve" smooth="yes"/>
      <point x="645" y="405"/>
      <point x="685" y="366"/>
      <point x="685" y="319" type="curve" smooth="yes"/>
    </contour>
    <contour>
      <point x="215" y="381" type="line" smooth="yes"/>
      <point x="215" y="334"/>
      <point x="175" y="295"/>
      <point x="119" y="295" type="curve" smooth="yes"/>
      <point x="63" y="295"/>
      <point x="23" y="334"/>
      <point x="23" y="381" type="curve" smooth="yes"/>
      <point x="23" y="619" type="line" smooth="yes"/>
      <point x="23" y="666"/>
      <point x="63" y="705"/>
      <point x="119" y="705" type="curve" smooth="yes"/>
      <point x="175" y="705"/>
      <point x="215" y="666"/>
      <point x="215" y="619" type="curve" smooth="yes"/>
    </contour>
    <contour>
      <point x="384" y="700" type="line"/>
      <point x="124" y="0" type="line"/>
      <point x="101" y="0" type="line"/>
      <point x="361" y="700" type="line"/>
    </contour>
    <contour>
      <point x="462" y="81" type="line" smooth="yes"/>
      <point x="462" y="34"/>
      <point x="422" y="-5"/>
      <point x="366" y="-5" type="curve" smooth="yes"/>
      <point x="310" y="-5"/>
      <point x="270" y="34"/>
      <point x="270" y="81" type="curve" smooth="yes"/>
      <point x="270" y="319" type="line" smooth="yes"/>
      <point x="270" y="366"/>
      <point x="310" y="405"/>
      <point x="366" y="405" type="curve" smooth="yes"/>
      <point x="422" y="405"/>
      <point x="462" y="366"/>
      <point x="462" y="319" type="curve" smooth="yes"/>
    </contour>
    <contour>
      <point x="616" y="45" type="curve" smooth="yes"/>
      <point x="616" y="355" type="line" smooth="yes"/>
      <point x="616" y="373"/>
      <point x="607" y="387"/>
      <point x="589" y="387" type="curve" smooth="yes"/>
      <point x="571" y="387"/>
      <point x="562" y="373"/>
      <point x="562" y="355" type="curve" smooth="yes"/>
      <point x="562" y="45" type="line" smooth="yes"/>
      <point x="562" y="27"/>
      <point x="571" y="13"/>
      <point x="589" y="13" type="curve" smooth="yes"/>
      <point x="607" y="13"/>
      <point x="616" y="27"/>
    </contour>
    <contour>
      <point x="146" y="345" type="curve" smooth="yes"/>
      <point x="146" y="655" type="line" smooth="yes"/>
      <point x="146" y="673"/>
      <point x="137" y="687"/>
      <point x="119" y="687" type="curve" smooth="yes"/>
      <point x="101" y="687"/>
      <point x="92" y="673"/>
      <point x="92" y="655" type="curve" smooth="yes"/>
      <point x="92" y="345" type="line" smooth="yes"/>
      <point x="92" y="327"/>
      <point x="101" y="313"/>
      <point x="119" y="313" type="curve" smooth="yes"/>
      <point x="137" y="313"/>
      <point x="146" y="327"/>
    </contour>
    <contour>
      <point x="393" y="45" type="curve" smooth="yes"/>
      <point x="393" y="355" type="line" smooth="yes"/>
      <point x="393" y="373"/>
      <point x="384" y="387"/>
      <point x="366" y="387" type="curve" smooth="yes"/>
      <point x="348" y="387"/>
      <point x="339" y="373"/>
      <point x="339" y="355" type="curve" smooth="yes"/>
      <point x="339" y="45" type="line" smooth="yes"/>
      <point x="339" y="27"/>
      <point x="348" y="13"/>
      <point x="366" y="13" type="curve" smooth="yes"/>
      <point x="384" y="13"/>
      <point x="393" y="27"/>
    </contour>
  </outline>
</glyph>
<glyph name="fraction" format="1">
  <advance width="160"/>
  <unicode hex="2044"/>
  <outline>
    <contour>
      <point x="144" y="700" type="line"/>
      <point x="44" y="0" type="line"/>
      <point x="16" y="0" type="line"/>
      <point x="116" y="700" type="line"/>
    </contour>
  </outline>
</glyph>
<glyph name="Euro" format="1">
  <advance width="300"/>
  <unicode hex="20AC"/>
  <outline>
    <contour>
      <point x="115" y="317" type="line"/>
      <point x="115" y="53" type="line" smooth="yes"/>
      <point x="115" y="31"/>
      <point x="133" y="13"/>
      <point x="155" y="13" type="curve" smooth="yes"/>
      <point x="177" y="13"/>
      <point x="195" y="31"/>
      <point x="195" y="53" type="curve" smooth="yes"/>
      <point x="195" y="210" type="line"/>
      <point x="275" y="210" type="line"/>
      <point x="275" y="97" type="line" smooth="yes"/>
      <point x="275" y="41"/>
      <point x="221" y="-5"/>
      <point x="155" y="-5" type="curve" smooth="yes"/>
      <point x="89" y="-5"/>
      <point x="35" y="41"/>
      <point x="35" y="97" type="curve" smooth="yes"/>
      <point x="35" y="317" type="line"/>
      <point x="5" y="317" type="line"/>
      <point x="5" y="335" type="line"/>
      <point x="35" y="335" type="line"/>
      <point x="35" y="368" type="line"/>
      <point x="5" y="368" type="line"/>
      <point x="5" y="386" type="line"/>
      <point x="35" y="386" type="line"/>
      <point x="35" y="603" type="line" smooth="yes"/>
      <point x="35" y="659"/>
      <point x="89" y="705"/>
      <point x="155" y="705" type="curve" smooth="yes"/>
      <point x="221" y="705"/>
      <point x="275" y="659"/>
      <point x="275" y="603" type="curve" smooth="yes"/>
      <point x="275" y="490" type="line"/>
      <point x="195" y="490" type="line"/>
      <point x="195" y="647" type="line" smooth="yes"/>
      <point x="195" y="669"/>
      <point x="177" y="687"/>
      <point x="155" y="687" type="curve" smooth="yes"/>
      <point x="133" y="687"/>
      <point x="115" y="669"/>
      <point x="115" y="647" type="curve" smooth="yes"/>
      <point x="115" y="386" type="line"/>
      <point x="192" y="386" type="line"/>
      <point x="192" y="368" type="line"/>
      <point x="115" y="368" type="line"/>
      <point x="115" y="335" type="line"/>
      <point x="192" y="335" type="line"/>
      <point x="192" y="317" type="line"/>
    </contour>
  </outline>
</glyph>
<glyph name="trademark" format="1">
  <advance width="500"/>
  <unicode hex="2122"/>
  <outline>
    <contour>
      <point x="487" y="290" type="line"/>
      <point x="396" y="290" type="line"/>
      <point x="396" y="302" type="line"/>
      <point x="412" y="302" type="line"/>
      <point x="412" y="551" type="line"/>
      <point x="374" y="290" type="line"/>
      <point x="329" y="290" type="line"/>
      <point x="284" y="551" type="line"/>
      <point x="284" y="302" type="line"/>
      <point x="301" y="302" type="line"/>
      <point x="301" y="290" type="line"/>
      <point x="248" y="290" type="line"/>
      <point x="248" y="302" type="line"/>
      <point x="265" y="302" type="line"/>
      <point x="265" y="687" type="line"/>
      <point x="248" y="687" type="line"/>
      <point x="248" y="700" type="line"/>
      <point x="322" y="700" type="line"/>
      <point x="371" y="388" type="line"/>
      <point x="413" y="700" type="line"/>
      <point x="487" y="700" type="line"/>
      <point x="487" y="687" type="line"/>
      <point x="470" y="687" type="line"/>
      <point x="470" y="302" type="line"/>
      <point x="487" y="302" type="line"/>
    </contour>
    <contour>
      <point x="226" y="553" type="line"/>
      <point x="172" y="553" type="line"/>
      <point x="172" y="687" type="line"/>
      <point x="149" y="687" type="line"/>
      <point x="149" y="302" type="line"/>
      <point x="166" y="302" type="line"/>
      <point x="166" y="290" type="line"/>
      <point x="75" y="290" type="line"/>
      <point x="75" y="302" type="line"/>
      <point x="91" y="302" type="line"/>
      <point x="91" y="687" type="line"/>
      <point x="68" y="687" type="line"/>
      <point x="68" y="553" type="line"/>
      <point x="14" y="553" type="line"/>
      <point x="14" y="700" type="line"/>
      <point x="226" y="700" type="line"/>
    </contour>
  </outline>
</glyph>
<glyph name="radical" format="1">
  <advance width="275"/>
  <unicode hex="221A"/>
  <outline>
    <contour>
      <point x="264" y="700" type="line"/>
      <point x="169" y="0" type="line"/>
      <point x="98" y="0" type="line"/>
      <point x="27" y="281" type="line"/>
      <point x="2" y="281" type="line"/>
      <point x="2" y="299" type="line"/>
      <point x="105" y="299" type="line"/>
      <point x="156" y="83" type="line"/>
      <point x="239" y="700" type="line"/>
    </contour>
  </outline>
</glyph>
<glyph name="apple" format="1">
  <advance width="275"/>
  <unicode hex="F8FF"/>
  <outline>
    <contour>
      <point x="268" y="0" type="line"/>
      <point x="133" y="0" type="line"/>
      <point x="133" y="18" type="line"/>
      <point x="158" y="18" type="line"/>
      <point x="116" y="114" type="line"/>
      <point x="55" y="18" type="line"/>
      <point x="80" y="18" type="line"/>
      <point x="80" y="0" type="line"/>
      <point x="7" y="0" type="line"/>
      <point x="7" y="18" type="line"/>
      <point x="32" y="18" type="line"/>
      <point x="106" y="136" type="line"/>
      <point x="11" y="350" type="line"/>
      <point x="110" y="507" type="line"/>
      <point x="32" y="682" type="line"/>
      <point x="7" y="682" type="line"/>
      <point x="7" y="700" type="line"/>
      <point x="142" y="700" type="line"/>
      <point x="142" y="682" type="line"/>
      <point x="117" y="682" type="line"/>
      <point x="159" y="586" type="line"/>
      <point x="220" y="682" type="line"/>
      <point x="195" y="682" type="line"/>
      <point x="195" y="700" type="line"/>
      <point x="268" y="700" type="line"/>
      <point x="268" y="682" type="line"/>
      <point x="243" y="682" type="line"/>
      <point x="169" y="564" type="line"/>
      <point x="264" y="350" type="line"/>
      <point x="165" y="193" type="line"/>
      <point x="243" y="18" type="line"/>
      <point x="268" y="18" type="line"/>
    </contour>
    <contour>
      <point x="205" y="295" type="line"/>
      <point x="120" y="485" type="line"/>
      <point x="70" y="405" type="line"/>
      <point x="155" y="215" type="line"/>
    </contour>
  </outline>
</glyph>
<glyph name="f_f_l" format="1">
  <advance width="468"/>
  <unicode hex="FB04"/>
  <outline>
    <contour>
      <point x="460" y="0" type="line"/>
      <point x="332" y="0" type="line"/>
      <point x="332" y="18" type="line"/>
      <point x="357" y="18" type="line"/>
      <point x="357" y="682" type="line"/>
      <point x="309" y="682" type="line" smooth="yes"/>
      <point x="287" y="682"/>
      <point x="274" y="664"/>
      <point x="274" y="642" type="curve" smooth="yes"/>
      <point x="274" y="520" type="line"/>
      <point x="314" y="520" type="line"/>
      <point x="314" y="502" type="line"/>
      <point x="274" y="502" type="line"/>
      <point x="274" y="18" type="line"/>
      <point x="299" y="18" type="line"/>
      <point x="299" y="0" type="line"/>
      <point x="171" y="0" type="line"/>
      <point x="171" y="18" type="line"/>
      <point x="196" y="18" type="line"/>
      <point x="196" y="502" type="line"/>
      <point x="113" y="502" type="line"/>
      <point x="113" y="18" type="line"/>
      <point x="138" y="18" type="line"/>
      <point x="138" y="0" type="line"/>
      <point x="10" y="0" type="line"/>
      <point x="10" y="18" type="line"/>
      <point x="35" y="18" type="line"/>
      <point x="35" y="502" type="line"/>
      <point x="10" y="502" type="line"/>
      <point x="10" y="520" type="line"/>
      <point x="35" y="520" type="line"/>
      <point x="35" y="598" type="line" smooth="yes"/>
      <point x="35" y="654"/>
      <point x="82" y="700"/>
      <point x="148" y="700" type="curve" smooth="yes"/>
      <point x="173" y="700" type="line"/>
      <point x="173" y="682" type="line"/>
      <point x="148" y="682" type="line" smooth="yes"/>
      <point x="126" y="682"/>
      <point x="113" y="664"/>
      <point x="113" y="642" type="curve" smooth="yes"/>
      <point x="113" y="520" type="line"/>
      <point x="196" y="520" type="line"/>
      <point x="196" y="598" type="line" smooth="yes"/>
      <point x="196" y="654"/>
      <point x="243" y="700"/>
      <point x="309" y="700" type="curve" smooth="yes"/>
      <point x="435" y="700" type="line"/>
      <point x="435" y="18" type="line"/>
      <point x="460" y="18" type="line"/>
    </contour>
  </outline>
</glyph>
<glyph name="B.sc" format="1">
  <advance width="281"/>
  <outline>
    <contour>
      <point x="256" y="102" type="line" smooth="yes"/>
      <point x="256" y="46"/>
      <point x="209" y="0"/>
      <point x="143" y="0" type="curve" smooth="yes"/>
      <point x="10" y="0" type="line"/>
      <point x="10" y="18" type="line"/>
      <point x="35" y="18" type="line"/>
      <point x="35" y="502" type="line"/>
      <point x="10" y="502" type="line"/>
      <point x="10" y="520" type="line"/>
      <point x="143" y="520" type="line" smooth="yes"/>
      <point x="209" y="520"/>
      <point x="256" y="474"/>
      <point x="256" y="418" type="curve" smooth="yes"/>
      <point x="256" y="358" type="line" smooth="yes"/>
      <point x="256" y="316"/>
      <point x="228" y="284"/>
      <point x="186" y="270" type="curve"/>
      <point x="228" y="256"/>
      <point x="256" y="224"/>
      <point x="256" y="182" type="curve" smooth="yes"/>
    </contour>
    <contour>
      <point x="178" y="319" type="curve" smooth="yes"/>
      <point x="178" y="462" type="line" smooth="yes"/>
      <point x="178" y="484"/>
      <point x="165" y="502"/>
      <point x="143" y="502" type="curve" smooth="yes"/>
      <point x="113" y="502" type="line"/>
      <point x="113" y="279" type="line"/>
      <point x="138" y="279" type="line" smooth="yes"/>
      <point x="162" y="279"/>
      <point x="178" y="297"/>
    </contour>
    <contour>
      <point x="178" y="58" type="curve" smooth="yes"/>
      <point x="178" y="221" type="line" smooth="yes"/>
      <point x="178" y="243"/>
      <point x="162" y="261"/>
      <point x="138" y="261" type="curve" smooth="yes"/>
      <point x="113" y="261" type="line"/>
      <point x="113" y="18" type="line"/>
      <point x="143" y="18" type="line" smooth="yes"/>
      <point x="165" y="18"/>
      <point x="178" y="36"/>
    </contour>
  </outline>
</glyph>
<glyph name="Ccedilla.sc" format="1">
  <advance width="273"/>
  <outline>
    <contour>
      <point x="251" y="97" type="line" smooth="yes"/>
      <point x="251" y="42"/>
      <point x="205" y="-4"/>
      <point x="140" y="-5" type="curve"/>
      <point x="126" y="-28" type="line"/>
      <point x="143" y="-28" type="line" smooth="yes"/>
      <point x="180" y="-28"/>
      <point x="204" y="-49"/>
      <point x="204" y="-84" type="curve" smooth="yes"/>
      <point x="204" y="-119"/>
      <point x="180" y="-140"/>
      <point x="143" y="-140" type="curve" smooth="yes"/>
      <point x="89" y="-140" type="line"/>
      <point x="89" y="-125" type="line"/>
      <point x="108" y="-125" type="line" smooth="yes"/>
      <point x="133" y="-125"/>
      <point x="139" y="-109"/>
      <point x="139" y="-84" type="curve" smooth="yes"/>
      <point x="139" y="-59"/>
      <point x="133" y="-43"/>
      <point x="108" y="-43" type="curve" smooth="yes"/>
      <point x="104" y="-43" type="line"/>
      <point x="104" y="-30" type="line"/>
      <point x="119" y="-4" type="line"/>
      <point x="63" y="4"/>
      <point x="25" y="47"/>
      <point x="25" y="97" type="curve" smooth="yes"/>
      <point x="25" y="423" type="line" smooth="yes"/>
      <point x="25" y="479"/>
      <point x="72" y="525"/>
      <point x="138" y="525" type="curve" smooth="yes"/>
      <point x="204" y="525"/>
      <point x="251" y="479"/>
      <point x="251" y="423" type="curve" smooth="yes"/>
      <point x="251" y="361" type="line"/>
      <point x="173" y="361" type="line"/>
      <point x="173" y="467" type="line" smooth="yes"/>
      <point x="173" y="489"/>
      <point x="160" y="507"/>
      <point x="138" y="507" type="curve" smooth="yes"/>
      <point x="116" y="507"/>
      <point x="103" y="489"/>
      <point x="103" y="467" type="curve" smooth="yes"/>
      <point x="103" y="53" type="line" smooth="yes"/>
      <point x="103" y="31"/>
      <point x="116" y="13"/>
      <point x="138" y="13" type="curve" smooth="yes"/>
      <point x="160" y="13"/>
      <point x="173" y="31"/>
      <point x="173" y="53" type="curve" smooth="yes"/>
      <point x="173" y="159" type="line"/>
      <point x="251" y="159" type="line"/>
    </contour>
  </outline>
</glyph>
<glyph name="E.sc" format="1">
  <advance width="270"/>
  <outline>
    <contour>
      <point x="249" y="0" type="line"/>
      <point x="10" y="0" type="line"/>
      <point x="10" y="18" type="line"/>
      <point x="35" y="18" type="line"/>
      <point x="35" y="502" type="line"/>
      <point x="10" y="502" type="line"/>
      <point x="10" y="520" type="line"/>
      <point x="249" y="520" type="line"/>
      <point x="249" y="361" type="line"/>
      <point x="171" y="361" type="line"/>
      <point x="171" y="502" type="line"/>
      <point x="113" y="502" type="line"/>
      <point x="113" y="279" type="line"/>
      <point x="191" y="279" type="line"/>
      <point x="191" y="261" type="line"/>
      <point x="113" y="261" type="line"/>
      <point x="113" y="18" type="line"/>
      <point x="171" y="18" type="line"/>
      <point x="171" y="159" type="line"/>
      <point x="249" y="159" type="line"/>
    </contour>
  </outline>
</glyph>
<glyph name="Eth.sc" format="1">
  <advance width="281"/>
  <outline>
    <contour>
      <point x="256" y="102" type="line" smooth="yes"/>
      <point x="256" y="46"/>
      <point x="209" y="0"/>
      <point x="143" y="0" type="curve" smooth="yes"/>
      <point x="10" y="0" type="line"/>
      <point x="10" y="18" type="line"/>
      <point x="35" y="18" type="line"/>
      <point x="35" y="261" type="line"/>
      <point x="10" y="261" type="line"/>
      <point x="10" y="279" type="line"/>
      <point x="35" y="279" type="line"/>
      <point x="35" y="502" type="line"/>
      <point x="10" y="502" type="line"/>
      <point x="10" y="520" type="line"/>
      <point x="143" y="520" type="line" smooth="yes"/>
      <point x="209" y="520"/>
      <point x="256" y="474"/>
      <point x="256" y="418" type="curve" smooth="yes"/>
    </contour>
    <contour>
      <point x="178" y="58" type="curve" smooth="yes"/>
      <point x="178" y="462" type="line" smooth="yes"/>
      <point x="178" y="484"/>
      <point x="165" y="502"/>
      <point x="143" y="502" type="curve" smooth="yes"/>
      <point x="113" y="502" type="line"/>
      <point x="113" y="279" type="line"/>
      <point x="140" y="279" type="line"/>
      <point x="140" y="261" type="line"/>
      <point x="113" y="261" type="line"/>
      <point x="113" y="18" type="line"/>
      <point x="143" y="18" type="line" smooth="yes"/>
      <point x="165" y="18"/>
      <point x="178" y="36"/>
    </contour>
  </outline>
</glyph>
<glyph name="Euro.sc" format="1">
  <advance width="283"/>
  <outline>
    <contour>
      <point x="113" y="226" type="line"/>
      <point x="113" y="53" type="line" smooth="yes"/>
      <point x="113" y="31"/>
      <point x="126" y="13"/>
      <point x="148" y="13" type="curve" smooth="yes"/>
      <point x="170" y="13"/>
      <point x="183" y="31"/>
      <point x="183" y="53" type="curve" smooth="yes"/>
      <point x="183" y="159" type="line"/>
      <point x="261" y="159" type="line"/>
      <point x="261" y="97" type="line" smooth="yes"/>
      <point x="261" y="41"/>
      <point x="214" y="-5"/>
      <point x="148" y="-5" type="curve" smooth="yes"/>
      <point x="82" y="-5"/>
      <point x="35" y="41"/>
      <point x="35" y="97" type="curve" smooth="yes"/>
      <point x="35" y="226" type="line"/>
      <point x="5" y="226" type="line"/>
      <point x="5" y="244" type="line"/>
      <point x="35" y="244" type="line"/>
      <point x="35" y="277" type="line"/>
      <point x="5" y="277" type="line"/>
      <point x="5" y="295" type="line"/>
      <point x="35" y="295" type="line"/>
      <point x="35" y="423" type="line" smooth="yes"/>
      <point x="35" y="479"/>
      <point x="82" y="525"/>
      <point x="148" y="525" type="curve" smooth="yes"/>
      <point x="214" y="525"/>
      <point x="261" y="479"/>
      <point x="261" y="423" type="curve" smooth="yes"/>
      <point x="261" y="361" type="line"/>
      <point x="183" y="361" type="line"/>
      <point x="183" y="467" type="line" smooth="yes"/>
      <point x="183" y="489"/>
      <point x="170" y="507"/>
      <point x="148" y="507" type="curve" smooth="yes"/>
      <point x="126" y="507"/>
      <point x="113" y="489"/>
      <point x="113" y="467" type="curve" smooth="yes"/>
      <point x="113" y="295" type="line"/>
      <point x="183" y="295" type="line"/>
      <point x="183" y="277" type="line"/>
      <point x="113" y="277" type="line"/>
      <point x="113" y="244" type="line"/>
      <point x="183" y="244" type="line"/>
      <point x="183" y="226" type="line"/>
    </contour>
  </outline>
</glyph>
<glyph name="H.sc" format="1">
  <advance width="291"/>
  <outline>
    <contour>
      <point x="281" y="0" type="line"/>
      <point x="156" y="0" type="line"/>
      <point x="156" y="18" type="line"/>
      <point x="178" y="18" type="line"/>
      <point x="178" y="261" type="line"/>
      <point x="113" y="261" type="line"/>
      <point x="113" y="18" type="line"/>
      <point x="135" y="18" type="line"/>
      <point x="135" y="0" type="line"/>
      <point x="10" y="0" type="line"/>
      <point x="10" y="18" type="line"/>
      <point x="35" y="18" type="line"/>
      <point x="35" y="502" type="line"/>
      <point x="10" y="502" type="line"/>
      <point x="10" y="520" type="line"/>
      <point x="135" y="520" type="line"/>
      <point x="135" y="502" type="line"/>
      <point x="113" y="502" type="line"/>
      <point x="113" y="279" type="line"/>
      <point x="178" y="279" type="line"/>
      <point x="178" y="502" type="line"/>
      <point x="156" y="502" type="line"/>
      <point x="156" y="520" type="line"/>
      <point x="281" y="520" type="line"/>
      <point x="281" y="502" type="line"/>
      <point x="256" y="502" type="line"/>
      <point x="256" y="18" type="line"/>
      <point x="281" y="18" type="line"/>
    </contour>
  </outline>
</glyph>
<glyph name="J.sc" format="1">
  <advance width="259"/>
  <outline>
    <contour>
      <point x="251" y="502" type="line"/>
      <point x="226" y="502" type="line"/>
      <point x="226" y="97" type="line" smooth="yes"/>
      <point x="226" y="41"/>
      <point x="179" y="-5"/>
      <point x="120" y="-5" type="curve" smooth="yes"/>
      <point x="61" y="-5"/>
      <point x="14" y="41"/>
      <point x="14" y="97" type="curve" smooth="yes"/>
      <point x="14" y="159" type="line"/>
      <point x="92" y="159" type="line"/>
      <point x="92" y="48" type="line" smooth="yes"/>
      <point x="92" y="26"/>
      <point x="102" y="13"/>
      <point x="120" y="13" type="curve" smooth="yes"/>
      <point x="138" y="13"/>
      <point x="148" y="26"/>
      <point x="148" y="48" type="curve" smooth="yes"/>
      <point x="148" y="502" type="line"/>
      <point x="123" y="502" type="line"/>
      <point x="123" y="520" type="line"/>
      <point x="251" y="520" type="line"/>
    </contour>
  </outline>
</glyph>
<glyph name="K.sc" format="1">
  <advance width="283"/>
  <outline>
    <contour>
      <point x="279" y="0" type="line"/>
      <point x="178" y="0" type="line"/>
      <point x="113" y="255" type="line"/>
      <point x="113" y="18" type="line"/>
      <point x="138" y="18" type="line"/>
      <point x="138" y="0" type="line"/>
      <point x="10" y="0" type="line"/>
      <point x="10" y="18" type="line"/>
      <point x="35" y="18" type="line"/>
      <point x="35" y="502" type="line"/>
      <point x="10" y="502" type="line"/>
      <point x="10" y="520" type="line"/>
      <point x="138" y="520" type="line"/>
      <point x="138" y="502" type="line"/>
      <point x="113" y="502" type="line"/>
      <point x="113" y="289" type="line"/>
      <point x="213" y="502" type="line"/>
      <point x="187" y="502" type="line"/>
      <point x="187" y="520" type="line"/>
      <point x="263" y="520" type="line"/>
      <point x="263" y="502" type="line"/>
      <point x="238" y="502" type="line"/>
      <point x="164" y="342" type="line"/>
      <point x="252" y="18" type="line"/>
      <point x="279" y="18" type="line"/>
    </contour>
  </outline>
</glyph>
<glyph name="L.sc" format="1">
  <advance width="258"/>
  <outline>
    <contour>
      <point x="244" y="0" type="line"/>
      <point x="10" y="0" type="line"/>
      <point x="10" y="18" type="line"/>
      <point x="35" y="18" type="line"/>
      <point x="35" y="502" type="line"/>
      <point x="10" y="502" type="line"/>
      <point x="10" y="520" type="line"/>
      <point x="138" y="520" type="line"/>
      <point x="138" y="502" type="line"/>
      <point x="113" y="502" type="line"/>
      <point x="113" y="18" type="line"/>
      <point x="166" y="18" type="line"/>
      <point x="166" y="159" type="line"/>
      <point x="244" y="159" type="line"/>
    </contour>
  </outline>
</glyph>
<glyph name="N.sc" format="1">
  <advance width="261"/>
  <outline>
    <contour>
      <point x="251" y="502" type="line"/>
      <point x="226" y="502" type="line"/>
      <point x="226" y="0" type="line"/>
      <point x="172" y="0" type="line"/>
      <point x="59" y="409" type="line"/>
      <point x="59" y="18" type="line"/>
      <point x="84" y="18" type="line"/>
      <point x="84" y="0" type="line"/>
      <point x="10" y="0" type="line"/>
      <point x="10" y="18" type="line"/>
      <point x="35" y="18" type="line"/>
      <point x="35" y="502" type="line"/>
      <point x="10" y="502" type="line"/>
      <point x="10" y="520" type="line"/>
      <point x="108" y="520" type="line"/>
      <point x="202" y="180" type="line"/>
      <point x="202" y="502" type="line"/>
      <point x="177" y="502" type="line"/>
      <point x="177" y="520" type="line"/>
      <point x="251" y="520" type="line"/>
    </contour>
  </outline>
</glyph>
<glyph name="P.sc" format="1">
  <advance width="268"/>
  <outline>
    <contour>
      <point x="256" y="322" type="line" smooth="yes"/>
      <point x="256" y="266"/>
      <point x="209" y="220"/>
      <point x="143" y="220" type="curve" smooth="yes"/>
      <point x="113" y="220" type="line"/>
      <point x="113" y="18" type="line"/>
      <point x="138" y="18" type="line"/>
      <point x="138" y="0" type="line"/>
      <point x="10" y="0" type="line"/>
      <point x="10" y="18" type="line"/>
      <point x="35" y="18" type="line"/>
      <point x="35" y="502" type="line"/>
      <point x="10" y="502" type="line"/>
      <point x="10" y="520" type="line"/>
      <point x="143" y="520" type="line" smooth="yes"/>
      <point x="209" y="520"/>
      <point x="256" y="474"/>
      <point x="256" y="418" type="curve" smooth="yes"/>
    </contour>
    <contour>
      <point x="178" y="278" type="curve" smooth="yes"/>
      <point x="178" y="462" type="line" smooth="yes"/>
      <point x="178" y="484"/>
      <point x="165" y="502"/>
      <point x="143" y="502" type="curve" smooth="yes"/>
      <point x="113" y="502" type="line"/>
      <point x="113" y="238" type="line"/>
      <point x="143" y="238" type="line" smooth="yes"/>
      <point x="165" y="238"/>
      <point x="178" y="256"/>
    </contour>
  </outline>
</glyph>
<glyph name="Q.sc" format="1">
  <advance width="276"/>
  <outline>
    <contour>
      <point x="251" y="97" type="line" smooth="yes"/>
      <point x="251" y="44"/>
      <point x="208" y="-1"/>
      <point x="147" y="-5" type="curve"/>
      <point x="147" y="-90" type="line"/>
      <point x="129" y="-90" type="line"/>
      <point x="129" y="-5" type="line"/>
      <point x="68" y="-1"/>
      <point x="25" y="44"/>
      <point x="25" y="97" type="curve" smooth="yes"/>
      <point x="25" y="423" type="line" smooth="yes"/>
      <point x="25" y="479"/>
      <point x="72" y="525"/>
      <point x="138" y="525" type="curve" smooth="yes"/>
      <point x="204" y="525"/>
      <point x="251" y="479"/>
      <point x="251" y="423" type="curve" smooth="yes"/>
    </contour>
    <contour>
      <point x="173" y="53" type="curve" smooth="yes"/>
      <point x="173" y="467" type="line" smooth="yes"/>
      <point x="173" y="489"/>
      <point x="160" y="507"/>
      <point x="138" y="507" type="curve" smooth="yes"/>
      <point x="116" y="507"/>
      <point x="103" y="489"/>
      <point x="103" y="467" type="curve" smooth="yes"/>
      <point x="103" y="53" type="line" smooth="yes"/>
      <point x="103" y="34"/>
      <point x="112" y="18"/>
      <point x="129" y="14" type="curve"/>
      <point x="129" y="118" type="line"/>
      <point x="147" y="118" type="line"/>
      <point x="147" y="14" type="line"/>
      <point x="164" y="18"/>
      <point x="173" y="34"/>
    </contour>
  </outline>
</glyph>
<glyph name="R.sc" format="1">
  <advance width="285"/>
  <outline>
    <contour>
      <point x="281" y="0" type="line"/>
      <point x="246" y="0" type="line" smooth="yes"/>
      <point x="201" y="0"/>
      <point x="178" y="17"/>
      <point x="178" y="68" type="curve" smooth="yes"/>
      <point x="178" y="221" type="line" smooth="yes"/>
      <point x="178" y="243"/>
      <point x="162" y="261"/>
      <point x="138" y="261" type="curve" smooth="yes"/>
      <point x="113" y="261" type="line"/>
      <point x="113" y="18" type="line"/>
      <point x="135" y="18" type="line"/>
      <point x="135" y="0" type="line"/>
      <point x="10" y="0" type="line"/>
      <point x="10" y="18" type="line"/>
      <point x="35" y="18" type="line"/>
      <point x="35" y="502" type="line"/>
      <point x="10" y="502" type="line"/>
      <point x="10" y="520" type="line"/>
      <point x="143" y="520" type="line" smooth="yes"/>
      <point x="209" y="520"/>
      <point x="256" y="474"/>
      <point x="256" y="418" type="curve" smooth="yes"/>
      <point x="256" y="358" type="line" smooth="yes"/>
      <point x="256" y="316"/>
      <point x="228" y="284"/>
      <point x="186" y="270" type="curve"/>
      <point x="228" y="256"/>
      <point x="256" y="224"/>
      <point x="256" y="182" type="curve" smooth="yes"/>
      <point x="256" y="45" type="line" smooth="yes"/>
      <point x="256" y="26"/>
      <point x="261" y="18"/>
      <point x="279" y="18" type="curve" smooth="yes"/>
      <point x="281" y="18" type="line"/>
    </contour>
    <contour>
      <point x="178" y="319" type="curve" smooth="yes"/>
      <point x="178" y="462" type="line" smooth="yes"/>
      <point x="178" y="484"/>
      <point x="165" y="502"/>
      <point x="143" y="502" type="curve" smooth="yes"/>
      <point x="113" y="502" type="line"/>
      <point x="113" y="279" type="line"/>
      <point x="138" y="279" type="line" smooth="yes"/>
      <point x="162" y="279"/>
      <point x="178" y="297"/>
    </contour>
  </outline>
</glyph>
<glyph name="S.sc" format="1">
  <advance width="260"/>
  <outline>
    <contour>
      <point x="239" y="97" type="line" smooth="yes"/>
      <point x="239" y="41"/>
      <point x="197" y="-5"/>
      <point x="131" y="-5" type="curve" smooth="yes"/>
      <point x="65" y="-5"/>
      <point x="21" y="41"/>
      <point x="21" y="97" type="curve" smooth="yes"/>
      <point x="21" y="159" type="line"/>
      <point x="99" y="159" type="line"/>
      <point x="99" y="53" type="line" smooth="yes"/>
      <point x="99" y="31"/>
      <point x="109" y="13"/>
      <point x="131" y="13" type="curve" smooth="yes"/>
      <point x="153" y="13"/>
      <point x="161" y="31"/>
      <point x="161" y="53" type="curve" smooth="yes"/>
      <point x="161" y="130" type="line" smooth="yes"/>
      <point x="161" y="166"/>
      <point x="158" y="181"/>
      <point x="134" y="205" type="curve" smooth="yes"/>
      <point x="52" y="286" type="line" smooth="yes"/>
      <point x="26" y="312"/>
      <point x="21" y="337"/>
      <point x="21" y="375" type="curve" smooth="yes"/>
      <point x="21" y="423" type="line" smooth="yes"/>
      <point x="21" y="479"/>
      <point x="63" y="525"/>
      <point x="129" y="525" type="curve" smooth="yes"/>
      <point x="195" y="525"/>
      <point x="237" y="479"/>
      <point x="237" y="423" type="curve" smooth="yes"/>
      <point x="237" y="361" type="line"/>
      <point x="159" y="361" type="line"/>
      <point x="159" y="467" type="line" smooth="yes"/>
      <point x="159" y="489"/>
      <point x="151" y="507"/>
      <point x="129" y="507" type="curve" smooth="yes"/>
      <point x="107" y="507"/>
      <point x="99" y="489"/>
      <point x="99" y="467" type="curve" smooth="yes"/>
      <point x="99" y="398" type="line" smooth="yes"/>
      <point x="99" y="362"/>
      <point x="102" y="347"/>
      <point x="126" y="323" type="curve" smooth="yes"/>
      <point x="208" y="242" type="line" smooth="yes"/>
      <point x="234" y="216"/>
      <point x="239" y="191"/>
      <point x="239" y="153" type="curve" smooth="yes"/>
    </contour>
  </outline>
</glyph>
<glyph name="T.sc" format="1">
  <advance width="290"/>
  <outline>
    <contour>
      <point x="280" y="361" type="line"/>
      <point x="210" y="361" type="line"/>
      <point x="210" y="502" type="line"/>
      <point x="182" y="502" type="line"/>
      <point x="182" y="18" type="line"/>
      <point x="207" y="18" type="line"/>
      <point x="207" y="0" type="line"/>
      <point x="83" y="0" type="line"/>
      <point x="83" y="18" type="line"/>
      <point x="108" y="18" type="line"/>
      <point x="108" y="502" type="line"/>
      <point x="80" y="502" type="line"/>
      <point x="80" y="361" type="line"/>
      <point x="10" y="361" type="line"/>
      <point x="10" y="520" type="line"/>
      <point x="280" y="520" type="line"/>
    </contour>
  </outline>
</glyph>
<glyph name="Thorn.sc" format="1">
  <advance width="268"/>
  <outline>
    <contour>
      <point x="256" y="223" type="line" smooth="yes"/>
      <point x="256" y="167"/>
      <point x="209" y="121"/>
      <point x="143" y="121" type="curve" smooth="yes"/>
      <point x="113" y="121" type="line"/>
      <point x="113" y="18" type="line"/>
      <point x="138" y="18" type="line"/>
      <point x="138" y="0" type="line"/>
      <point x="10" y="0" type="line"/>
      <point x="10" y="18" type="line"/>
      <point x="35" y="18" type="line"/>
      <point x="35" y="502" type="line"/>
      <point x="10" y="502" type="line"/>
      <point x="10" y="520" type="line"/>
      <point x="138" y="520" type="line"/>
      <point x="138" y="502" type="line"/>
      <point x="113" y="502" type="line"/>
      <point x="113" y="421" type="line"/>
      <point x="143" y="421" type="line" smooth="yes"/>
      <point x="209" y="421"/>
      <point x="256" y="375"/>
      <point x="256" y="319" type="curve" smooth="yes"/>
    </contour>
    <contour>
      <point x="178" y="179" type="curve" smooth="yes"/>
      <point x="178" y="363" type="line" smooth="yes"/>
      <point x="178" y="385"/>
      <point x="165" y="403"/>
      <point x="143" y="403" type="curve" smooth="yes"/>
      <point x="113" y="403" type="line"/>
      <point x="113" y="139" type="line"/>
      <point x="143" y="139" type="line" smooth="yes"/>
      <point x="165" y="139"/>
      <point x="178" y="157"/>
    </contour>
  </outline>
</glyph>
<glyph name="U.sc" format="1">
  <advance width="288"/>
  <outline>
    <contour>
      <point x="280" y="502" type="line"/>
      <point x="255" y="502" type="line"/>
      <point x="255" y="97" type="line" smooth="yes"/>
      <point x="255" y="41"/>
      <point x="210" y="-5"/>
      <point x="144" y="-5" type="curve" smooth="yes"/>
      <point x="78" y="-5"/>
      <point x="33" y="41"/>
      <point x="33" y="97" type="curve" smooth="yes"/>
      <point x="33" y="502" type="line"/>
      <point x="8" y="502" type="line"/>
      <point x="8" y="520" type="line"/>
      <point x="133" y="520" type="line"/>
      <point x="133" y="502" type="line"/>
      <point x="111" y="502" type="line"/>
      <point x="111" y="53" type="line" smooth="yes"/>
      <point x="111" y="31"/>
      <point x="122" y="13"/>
      <point x="144" y="13" type="curve" smooth="yes"/>
      <point x="166" y="13"/>
      <point x="177" y="31"/>
      <point x="177" y="53" type="curve" smooth="yes"/>
      <point x="177" y="502" type="line"/>
      <point x="155" y="502" type="line"/>
      <point x="155" y="520" type="line"/>
      <point x="280" y="520" type="line"/>
    </contour>
  </outline>
</glyph>
<glyph name="V.sc" format="1">
  <advance width="264"/>
  <outline>
    <contour>
      <point x="259" y="502" type="line"/>
      <point x="234" y="502" type="line"/>
      <point x="168" y="0" type="line"/>
      <point x="96" y="0" type="line"/>
      <point x="30" y="502" type="line"/>
      <point x="5" y="502" type="line"/>
      <point x="5" y="520" type="line"/>
      <point x="139" y="520" type="line"/>
      <point x="139" y="502" type="line"/>
      <point x="114" y="502" type="line"/>
      <point x="159" y="95" type="line"/>
      <point x="208" y="502" type="line"/>
      <point x="183" y="502" type="line"/>
      <point x="183" y="520" type="line"/>
      <point x="259" y="520" type="line"/>
    </contour>
  </outline>
</glyph>
<glyph name="Y.sc" format="1">
  <advance width="274"/>
  <outline>
    <contour>
      <point x="269" y="502" type="line"/>
      <point x="244" y="502" type="line"/>
      <point x="176" y="217" type="line"/>
      <point x="176" y="18" type="line"/>
      <point x="201" y="18" type="line"/>
      <point x="201" y="0" type="line"/>
      <point x="73" y="0" type="line"/>
      <point x="73" y="18" type="line"/>
      <point x="98" y="18" type="line"/>
      <point x="98" y="217" type="line"/>
      <point x="30" y="502" type="line"/>
      <point x="5" y="502" type="line"/>
      <point x="5" y="520" type="line"/>
      <point x="139" y="520" type="line"/>
      <point x="139" y="502" type="line"/>
      <point x="114" y="502" type="line"/>
      <point x="167" y="273" type="line"/>
      <point x="218" y="502" type="line"/>
      <point x="193" y="502" type="line"/>
      <point x="193" y="520" type="line"/>
      <point x="269" y="520" type="line"/>
    </contour>
  </outline>
</glyph>
<glyph name="Z.sc" format="1">
  <advance width="258"/>
  <outline>
    <contour>
      <point x="237" y="0" type="line"/>
      <point x="17" y="0" type="line"/>
      <point x="17" y="18" type="line"/>
      <point x="157" y="502" type="line"/>
      <point x="97" y="502" type="line"/>
      <point x="97" y="361" type="line"/>
      <point x="21" y="361" type="line"/>
      <point x="21" y="520" type="line"/>
      <point x="237" y="520" type="line"/>
      <point x="237" y="502" type="line"/>
      <point x="97" y="18" type="line"/>
      <point x="161" y="18" type="line"/>
      <point x="161" y="159" type="line"/>
      <point x="237" y="159" type="line"/>
    </contour>
  </outline>
</glyph>
<glyph name="ampersand.sc" format="1">
  <advance width="283"/>
  <outline>
    <contour>
      <point x="274" y="261" type="line"/>
      <point x="249" y="261" type="line"/>
      <point x="249" y="97" type="line" smooth="yes"/>
      <point x="249" y="41"/>
      <point x="202" y="-5"/>
      <point x="136" y="-5" type="curve" smooth="yes"/>
      <point x="70" y="-5"/>
      <point x="23" y="41"/>
      <point x="23" y="97" type="curve" smooth="yes"/>
      <point x="23" y="182" type="line" smooth="yes"/>
      <point x="23" y="224"/>
      <point x="51" y="256"/>
      <point x="93" y="270" type="curve"/>
      <point x="51" y="284"/>
      <point x="23" y="316"/>
      <point x="23" y="358" type="curve" smooth="yes"/>
      <point x="23" y="423" type="line" smooth="yes"/>
      <point x="23" y="479"/>
      <point x="70" y="525"/>
      <point x="136" y="525" type="curve" smooth="yes"/>
      <point x="202" y="525"/>
      <point x="249" y="479"/>
      <point x="249" y="423" type="curve" smooth="yes"/>
      <point x="249" y="361" type="line"/>
      <point x="171" y="361" type="line"/>
      <point x="171" y="467" type="line" smooth="yes"/>
      <point x="171" y="489"/>
      <point x="158" y="507"/>
      <point x="136" y="507" type="curve" smooth="yes"/>
      <point x="114" y="507"/>
      <point x="101" y="489"/>
      <point x="101" y="467" type="curve" smooth="yes"/>
      <point x="101" y="319" type="line" smooth="yes"/>
      <point x="101" y="297"/>
      <point x="119" y="279"/>
      <point x="141" y="279" type="curve" smooth="yes"/>
      <point x="274" y="279" type="line"/>
    </contour>
    <contour>
      <point x="171" y="53" type="curve" smooth="yes"/>
      <point x="171" y="261" type="line"/>
      <point x="141" y="261" type="line" smooth="yes"/>
      <point x="119" y="261"/>
      <point x="101" y="243"/>
      <point x="101" y="221" type="curve" smooth="yes"/>
      <point x="101" y="53" type="line" smooth="yes"/>
      <point x="101" y="31"/>
      <point x="114" y="13"/>
      <point x="136" y="13" type="curve" smooth="yes"/>
      <point x="158" y="13"/>
      <point x="171" y="31"/>
    </contour>
  </outline>
</glyph>
<glyph name="asciitilde.sc" format="1">
  <advance width="300"/>
  <outline>
    <contour>
      <point x="271" y="314" type="line"/>
      <point x="265" y="283" type="line" smooth="yes"/>
      <point x="255" y="234"/>
      <point x="221" y="222"/>
      <point x="181" y="231" type="curve" smooth="yes"/>
      <point x="97" y="249" type="line" smooth="yes"/>
      <point x="71" y="255"/>
      <point x="58" y="243"/>
      <point x="46" y="223" type="curve"/>
      <point x="29" y="226" type="line"/>
      <point x="35" y="257" type="line" smooth="yes"/>
      <point x="45" y="306"/>
      <point x="80" y="317"/>
      <point x="120" y="309" type="curve" smooth="yes"/>
      <point x="205" y="291" type="line" smooth="yes"/>
      <point x="230" y="286"/>
      <point x="242" y="297"/>
      <point x="254" y="317" type="curve"/>
    </contour>
  </outline>
</glyph>
<glyph name="braceleft.sc" format="1">
  <advance width="210"/>
  <outline>
    <contour>
      <point x="193" y="0" type="line"/>
      <point x="178" y="0" type="line" smooth="yes"/>
      <point x="112" y="0"/>
      <point x="65" y="46"/>
      <point x="65" y="102" type="curve" smooth="yes"/>
      <point x="65" y="221" type="line" smooth="yes"/>
      <point x="65" y="243"/>
      <point x="49" y="261"/>
      <point x="25" y="261" type="curve" smooth="yes"/>
      <point x="15" y="261" type="line"/>
      <point x="15" y="279" type="line"/>
      <point x="25" y="279" type="line" smooth="yes"/>
      <point x="49" y="279"/>
      <point x="65" y="297"/>
      <point x="65" y="319" type="curve" smooth="yes"/>
      <point x="65" y="418" type="line" smooth="yes"/>
      <point x="65" y="474"/>
      <point x="112" y="520"/>
      <point x="178" y="520" type="curve" smooth="yes"/>
      <point x="193" y="520" type="line"/>
      <point x="193" y="502" type="line"/>
      <point x="178" y="502" type="line" smooth="yes"/>
      <point x="156" y="502"/>
      <point x="143" y="484"/>
      <point x="143" y="462" type="curve" smooth="yes"/>
      <point x="143" y="358" type="line" smooth="yes"/>
      <point x="143" y="316"/>
      <point x="115" y="284"/>
      <point x="73" y="270" type="curve"/>
      <point x="115" y="256"/>
      <point x="143" y="224"/>
      <point x="143" y="182" type="curve" smooth="yes"/>
      <point x="143" y="58" type="line" smooth="yes"/>
      <point x="143" y="36"/>
      <point x="156" y="18"/>
      <point x="178" y="18" type="curve" smooth="yes"/>
      <point x="193" y="18" type="line"/>
    </contour>
  </outline>
</glyph>
<glyph name="braceright.sc" format="1">
  <advance width="210"/>
  <outline>
    <contour>
      <point x="195" y="261" type="line"/>
      <point x="185" y="261" type="line" smooth="yes"/>
      <point x="163" y="261"/>
      <point x="145" y="243"/>
      <point x="145" y="221" type="curve" smooth="yes"/>
      <point x="145" y="102" type="line" smooth="yes"/>
      <point x="145" y="46"/>
      <point x="98" y="0"/>
      <point x="32" y="0" type="curve" smooth="yes"/>
      <point x="17" y="0" type="line"/>
      <point x="17" y="18" type="line"/>
      <point x="32" y="18" type="line" smooth="yes"/>
      <point x="54" y="18"/>
      <point x="67" y="36"/>
      <point x="67" y="58" type="curve" smooth="yes"/>
      <point x="67" y="182" type="line" smooth="yes"/>
      <point x="67" y="224"/>
      <point x="95" y="256"/>
      <point x="137" y="270" type="curve"/>
      <point x="95" y="284"/>
      <point x="67" y="316"/>
      <point x="67" y="358" type="curve" smooth="yes"/>
      <point x="67" y="462" type="line" smooth="yes"/>
      <point x="67" y="484"/>
      <point x="54" y="502"/>
      <point x="32" y="502" type="curve" smooth="yes"/>
      <point x="17" y="502" type="line"/>
      <point x="17" y="520" type="line"/>
      <point x="32" y="520" type="line" smooth="yes"/>
      <point x="98" y="520"/>
      <point x="145" y="474"/>
      <point x="145" y="418" type="curve" smooth="yes"/>
      <point x="145" y="319" type="line" smooth="yes"/>
      <point x="145" y="297"/>
      <point x="163" y="279"/>
      <point x="185" y="279" type="curve" smooth="yes"/>
      <point x="195" y="279" type="line"/>
    </contour>
  </outline>
</glyph>
<glyph name="bracketleft.sc" format="1">
  <advance width="175"/>
  <outline>
    <contour>
      <point x="158" y="0" type="line"/>
      <point x="35" y="0" type="line"/>
      <point x="35" y="520" type="line"/>
      <point x="158" y="520" type="line"/>
      <point x="158" y="502" type="line"/>
      <point x="113" y="502" type="line"/>
      <point x="113" y="18" type="line"/>
      <point x="158" y="18" type="line"/>
    </contour>
  </outline>
</glyph>
<glyph name="bracketright.sc" format="1">
  <advance width="175"/>
  <outline>
    <contour>
      <point x="140" y="0" type="line"/>
      <point x="17" y="0" type="line"/>
      <point x="17" y="18" type="line"/>
      <point x="62" y="18" type="line"/>
      <point x="62" y="502" type="line"/>
      <point x="17" y="502" type="line"/>
      <point x="17" y="520" type="line"/>
      <point x="140" y="520" type="line"/>
    </contour>
  </outline>
</glyph>
<glyph name="bullet" format="1">
  <advance width="276"/>
  <outline>
    <contour>
      <point x="240" y="257" type="line" smooth="yes"/>
      <point x="240" y="195"/>
      <point x="197" y="155"/>
      <point x="138" y="155" type="curve" smooth="yes"/>
      <point x="79" y="155"/>
      <point x="36" y="195"/>
      <point x="36" y="257" type="curve" smooth="yes"/>
      <point x="36" y="443" type="line" smooth="yes"/>
      <point x="36" y="505"/>
      <point x="79" y="545"/>
      <point x="138" y="545" type="curve" smooth="yes"/>
      <point x="197" y="545"/>
      <point x="240" y="505"/>
      <point x="240" y="443" type="curve" smooth="yes"/>
    </contour>
  </outline>
</glyph>
<glyph name="bullet.sc" format="1">
  <advance width="276"/>
  <outline>
    <contour>
      <point x="240" y="171" type="line" smooth="yes"/>
      <point x="240" y="109"/>
      <point x="197" y="69"/>
      <point x="138" y="69" type="curve" smooth="yes"/>
      <point x="79" y="69"/>
      <point x="36" y="109"/>
      <point x="36" y="171" type="curve" smooth="yes"/>
      <point x="36" y="357" type="line" smooth="yes"/>
      <point x="36" y="419"/>
      <point x="79" y="459"/>
      <point x="138" y="459" type="curve" smooth="yes"/>
      <point x="197" y="459"/>
      <point x="240" y="419"/>
      <point x="240" y="357" type="curve" smooth="yes"/>
    </contour>
  </outline>
</glyph>
<glyph name="cent.sc" format="1">
  <advance width="273"/>
  <outline>
    <contour>
      <point x="251" y="97" type="line" smooth="yes"/>
      <point x="251" y="44"/>
      <point x="209" y="0"/>
      <point x="149" y="-5" type="curve"/>
      <point x="149" y="-60" type="line"/>
      <point x="127" y="-60" type="line"/>
      <point x="127" y="-5" type="line"/>
      <point x="67" y="0"/>
      <point x="25" y="44"/>
      <point x="25" y="97" type="curve" smooth="yes"/>
      <point x="25" y="423" type="line" smooth="yes"/>
      <point x="25" y="476"/>
      <point x="67" y="520"/>
      <point x="127" y="525" type="curve"/>
      <point x="127" y="580" type="line"/>
      <point x="149" y="580" type="line"/>
      <point x="149" y="525" type="line"/>
      <point x="209" y="520"/>
      <point x="251" y="476"/>
      <point x="251" y="423" type="curve" smooth="yes"/>
      <point x="251" y="361" type="line"/>
      <point x="173" y="361" type="line"/>
      <point x="173" y="467" type="line" smooth="yes"/>
      <point x="173" y="489"/>
      <point x="160" y="507"/>
      <point x="138" y="507" type="curve" smooth="yes"/>
      <point x="116" y="507"/>
      <point x="103" y="489"/>
      <point x="103" y="467" type="curve" smooth="yes"/>
      <point x="103" y="53" type="line" smooth="yes"/>
      <point x="103" y="31"/>
      <point x="116" y="13"/>
      <point x="138" y="13" type="curve" smooth="yes"/>
      <point x="160" y="13"/>
      <point x="173" y="31"/>
      <point x="173" y="53" type="curve" smooth="yes"/>
      <point x="173" y="159" type="line"/>
      <point x="251" y="159" type="line"/>
    </contour>
  </outline>
</glyph>
<glyph name="copyright.sc" format="1">
  <advance width="368"/>
  <outline>
    <contour>
      <point x="338" y="134" type="line" smooth="yes"/>
      <point x="338" y="58"/>
      <point x="274" y="-5"/>
      <point x="184" y="-5" type="curve" smooth="yes"/>
      <point x="94" y="-5"/>
      <point x="30" y="58"/>
      <point x="30" y="134" type="curve" smooth="yes"/>
      <point x="30" y="386" type="line" smooth="yes"/>
      <point x="30" y="462"/>
      <point x="94" y="525"/>
      <point x="184" y="525" type="curve" smooth="yes"/>
      <point x="274" y="525"/>
      <point x="338" y="462"/>
      <point x="338" y="386" type="curve" smooth="yes"/>
    </contour>
    <contour>
      <point x="319" y="132" type="curve" smooth="yes"/>
      <point x="319" y="388" type="line" smooth="yes"/>
      <point x="319" y="454"/>
      <point x="262" y="507"/>
      <point x="184" y="507" type="curve" smooth="yes"/>
      <point x="106" y="507"/>
      <point x="49" y="454"/>
      <point x="49" y="388" type="curve" smooth="yes"/>
      <point x="49" y="132" type="line" smooth="yes"/>
      <point x="49" y="66"/>
      <point x="106" y="13"/>
      <point x="184" y="13" type="curve" smooth="yes"/>
      <point x="262" y="13"/>
      <point x="319" y="66"/>
    </contour>
    <contour>
      <point x="268" y="175" type="line" smooth="yes"/>
      <point x="268" y="136"/>
      <point x="230" y="104"/>
      <point x="184" y="104" type="curve" smooth="yes"/>
      <point x="138" y="104"/>
      <point x="100" y="136"/>
      <point x="100" y="175" type="curve" smooth="yes"/>
      <point x="100" y="349" type="line" smooth="yes"/>
      <point x="100" y="388"/>
      <point x="138" y="420"/>
      <point x="184" y="420" type="curve" smooth="yes"/>
      <point x="230" y="420"/>
      <point x="268" y="388"/>
      <point x="268" y="349" type="curve" smooth="yes"/>
      <point x="268" y="315" type="line"/>
      <point x="212" y="315" type="line"/>
      <point x="212" y="380" type="line" smooth="yes"/>
      <point x="212" y="395"/>
      <point x="200" y="408"/>
      <point x="184" y="408" type="curve" smooth="yes"/>
      <point x="169" y="408"/>
      <point x="156" y="395"/>
      <point x="156" y="380" type="curve" smooth="yes"/>
      <point x="156" y="144" type="line" smooth="yes"/>
      <point x="156" y="129"/>
      <point x="169" y="116"/>
      <point x="184" y="116" type="curve" smooth="yes"/>
      <point x="200" y="116"/>
      <point x="212" y="129"/>
      <point x="212" y="144" type="curve" smooth="yes"/>
      <point x="212" y="209" type="line"/>
      <point x="268" y="209" type="line"/>
    </contour>
  </outline>
</glyph>
<glyph name="dagger.sc" format="1">
  <advance width="228"/>
  <outline>
    <contour>
      <point x="213" y="361" type="line"/>
      <point x="153" y="361" type="line"/>
      <point x="153" y="186" type="line"/>
      <point x="129" y="0" type="line"/>
      <point x="99" y="0" type="line"/>
      <point x="75" y="186" type="line"/>
      <point x="75" y="361" type="line"/>
      <point x="15" y="361" type="line"/>
      <point x="15" y="379" type="line"/>
      <point x="75" y="379" type="line"/>
      <point x="75" y="502" type="line"/>
      <point x="50" y="502" type="line"/>
      <point x="50" y="520" type="line"/>
      <point x="178" y="520" type="line"/>
      <point x="178" y="502" type="line"/>
      <point x="153" y="502" type="line"/>
      <point x="153" y="379" type="line"/>
      <point x="213" y="379" type="line"/>
    </contour>
  </outline>
</glyph>
<glyph name="degree.sc" format="1">
  <advance width="246"/>
  <outline>
    <contour>
      <point x="223" y="301" type="line" smooth="yes"/>
      <point x="223" y="254"/>
      <point x="179" y="215"/>
      <point x="123" y="215" type="curve" smooth="yes"/>
      <point x="67" y="215"/>
      <point x="23" y="254"/>
      <point x="23" y="301" type="curve" smooth="yes"/>
      <point x="23" y="439" type="line" smooth="yes"/>
      <point x="23" y="486"/>
      <point x="67" y="525"/>
      <point x="123" y="525" type="curve" smooth="yes"/>
      <point x="179" y="525"/>
      <point x="223" y="486"/>
      <point x="223" y="439" type="curve" smooth="yes"/>
    </contour>
    <contour>
      <point x="154" y="265" type="curve" smooth="yes"/>
      <point x="154" y="475" type="line" smooth="yes"/>
      <point x="154" y="493"/>
      <point x="141" y="507"/>
      <point x="123" y="507" type="curve" smooth="yes"/>
      <point x="105" y="507"/>
      <point x="92" y="493"/>
      <point x="92" y="475" type="curve" smooth="yes"/>
      <point x="92" y="265" type="line" smooth="yes"/>
      <point x="92" y="247"/>
      <point x="105" y="233"/>
      <point x="123" y="233" type="curve" smooth="yes"/>
      <point x="141" y="233"/>
      <point x="154" y="247"/>
    </contour>
  </outline>
</glyph>
<glyph name="dollar.sc" format="1">
  <advance width="264"/>
  <outline>
    <contour>
      <point x="241" y="97" type="line" smooth="yes"/>
      <point x="241" y="44"/>
      <point x="204" y="0"/>
      <point x="144" y="-5" type="curve"/>
      <point x="144" y="-60" type="line"/>
      <point x="122" y="-60" type="line"/>
      <point x="122" y="-5" type="line"/>
      <point x="62" y="0"/>
      <point x="23" y="44"/>
      <point x="23" y="97" type="curve" smooth="yes"/>
      <point x="23" y="159" type="line"/>
      <point x="101" y="159" type="line"/>
      <point x="101" y="53" type="line" smooth="yes"/>
      <point x="101" y="31"/>
      <point x="111" y="13"/>
      <point x="133" y="13" type="curve" smooth="yes"/>
      <point x="155" y="13"/>
      <point x="163" y="31"/>
      <point x="163" y="53" type="curve" smooth="yes"/>
      <point x="163" y="130" type="line" smooth="yes"/>
      <point x="163" y="166"/>
      <point x="160" y="181"/>
      <point x="136" y="205" type="curve" smooth="yes"/>
      <point x="54" y="286" type="line" smooth="yes"/>
      <point x="28" y="312"/>
      <point x="23" y="337"/>
      <point x="23" y="375" type="curve" smooth="yes"/>
      <point x="23" y="423" type="line" smooth="yes"/>
      <point x="23" y="476"/>
      <point x="61" y="521"/>
      <point x="122" y="525" type="curve"/>
      <point x="122" y="580" type="line"/>
      <point x="144" y="580" type="line"/>
      <point x="144" y="524" type="line"/>
      <point x="202" y="519"/>
      <point x="239" y="475"/>
      <point x="239" y="423" type="curve" smooth="yes"/>
      <point x="239" y="361" type="line"/>
      <point x="161" y="361" type="line"/>
      <point x="161" y="467" type="line" smooth="yes"/>
      <point x="161" y="489"/>
      <point x="153" y="507"/>
      <point x="131" y="507" type="curve" smooth="yes"/>
      <point x="109" y="507"/>
      <point x="101" y="489"/>
      <point x="101" y="467" type="curve" smooth="yes"/>
      <point x="101" y="398" type="line" smooth="yes"/>
      <point x="101" y="362"/>
      <point x="104" y="347"/>
      <point x="128" y="323" type="curve" smooth="yes"/>
      <point x="210" y="242" type="line" smooth="yes"/>
      <point x="236" y="216"/>
      <point x="241" y="191"/>
      <point x="241" y="153" type="curve" smooth="yes"/>
    </contour>
  </outline>
</glyph>
<glyph name="emdash.sc" format="1">
  <advance width="300"/>
  <outline>
    <contour>
      <point x="283" y="260" type="line"/>
      <point x="17" y="260" type="line"/>
      <point x="17" y="280" type="line"/>
      <point x="283" y="280" type="line"/>
    </contour>
  </outline>
</glyph>
<glyph name="equal.sc" format="1">
  <advance width="270"/>
  <outline>
    <contour>
      <point x="233" y="302" type="line"/>
      <point x="37" y="302" type="line"/>
      <point x="37" y="325" type="line"/>
      <point x="233" y="325" type="line"/>
    </contour>
    <contour>
      <point x="233" y="215" type="line"/>
      <point x="37" y="215" type="line"/>
      <point x="37" y="238" type="line"/>
      <point x="233" y="238" type="line"/>
    </contour>
  </outline>
</glyph>
<glyph name="exclam.sc" format="1">
  <advance width="148"/>
  <outline>
    <contour>
      <point x="113" y="336" type="line"/>
      <point x="89" y="150" type="line"/>
      <point x="59" y="150" type="line"/>
      <point x="35" y="336" type="line"/>
      <point x="35" y="520" type="line"/>
      <point x="113" y="520" type="line"/>
    </contour>
    <contour>
      <point x="113" y="0" type="line"/>
      <point x="35" y="0" type="line"/>
      <point x="35" y="120" type="line"/>
      <point x="113" y="120" type="line"/>
    </contour>
  </outline>
</glyph>
<glyph name="f_l" format="1">
  <advance width="307"/>
  <outline>
    <contour>
      <point x="299" y="0" type="line"/>
      <point x="171" y="0" type="line"/>
      <point x="171" y="18" type="line"/>
      <point x="196" y="18" type="line"/>
      <point x="196" y="682" type="line"/>
      <point x="148" y="682" type="line" smooth="yes"/>
      <point x="126" y="682"/>
      <point x="113" y="664"/>
      <point x="113" y="642" type="curve" smooth="yes"/>
      <point x="113" y="520" type="line"/>
      <point x="153" y="520" type="line"/>
      <point x="153" y="502" type="line"/>
      <point x="113" y="502" type="line"/>
      <point x="113" y="18" type="line"/>
      <point x="138" y="18" type="line"/>
      <point x="138" y="0" type="line"/>
      <point x="10" y="0" type="line"/>
      <point x="10" y="18" type="line"/>
      <point x="35" y="18" type="line"/>
      <point x="35" y="502" type="line"/>
      <point x="10" y="502" type="line"/>
      <point x="10" y="520" type="line"/>
      <point x="35" y="520" type="line"/>
      <point x="35" y="598" type="line" smooth="yes"/>
      <point x="35" y="654"/>
      <point x="82" y="700"/>
      <point x="148" y="700" type="curve" smooth="yes"/>
      <point x="274" y="700" type="line"/>
      <point x="274" y="18" type="line"/>
      <point x="299" y="18" type="line"/>
    </contour>
  </outline>
</glyph>
<glyph name="five.sc" format="1">
  <advance width="269"/>
  <outline>
    <contour>
      <point x="245" y="97" type="line" smooth="yes"/>
      <point x="245" y="38"/>
      <point x="200" y="-5"/>
      <point x="134" y="-5" type="curve" smooth="yes"/>
      <point x="68" y="-5"/>
      <point x="23" y="38"/>
      <point x="23" y="97" type="curve" smooth="yes"/>
      <point x="23" y="159" type="line"/>
      <point x="101" y="159" type="line"/>
      <point x="101" y="53" type="line" smooth="yes"/>
      <point x="101" y="30"/>
      <point x="112" y="13"/>
      <point x="134" y="13" type="curve" smooth="yes"/>
      <point x="156" y="13"/>
      <point x="167" y="30"/>
      <point x="167" y="53" type="curve" smooth="yes"/>
      <point x="167" y="221" type="line" smooth="yes"/>
      <point x="167" y="243"/>
      <point x="153" y="261"/>
      <point x="131" y="261" type="curve" smooth="yes"/>
      <point x="25" y="261" type="line"/>
      <point x="25" y="520" type="line"/>
      <point x="238" y="520" type="line"/>
      <point x="238" y="361" type="line"/>
      <point x="160" y="361" type="line"/>
      <point x="160" y="502" type="line"/>
      <point x="103" y="502" type="line"/>
      <point x="103" y="279" type="line"/>
      <point x="131" y="279" type="line" smooth="yes"/>
      <point x="197" y="279"/>
      <point x="245" y="233"/>
      <point x="245" y="177" type="curve" smooth="yes"/>
    </contour>
  </outline>
</glyph>
<glyph name="florin.sc" format="1">
  <advance width="176"/>
  <outline>
    <contour>
      <point x="174" y="502" type="line"/>
      <point x="154" y="502" type="line" smooth="yes"/>
      <point x="132" y="502"/>
      <point x="119" y="484"/>
      <point x="119" y="462" type="curve" smooth="yes"/>
      <point x="119" y="279" type="line"/>
      <point x="159" y="279" type="line"/>
      <point x="159" y="261" type="line"/>
      <point x="119" y="261" type="line"/>
      <point x="119" y="-38" type="line" smooth="yes"/>
      <point x="119" y="-94"/>
      <point x="74" y="-140"/>
      <point x="8" y="-140" type="curve" smooth="yes"/>
      <point x="-17" y="-140" type="line"/>
      <point x="-17" y="-122" type="line"/>
      <point x="2" y="-122" type="line" smooth="yes"/>
      <point x="29" y="-122"/>
      <point x="41" y="-104"/>
      <point x="41" y="-82" type="curve" smooth="yes"/>
      <point x="41" y="261" type="line"/>
      <point x="16" y="261" type="line"/>
      <point x="16" y="279" type="line"/>
      <point x="41" y="279" type="line"/>
      <point x="41" y="418" type="line" smooth="yes"/>
      <point x="41" y="474"/>
      <point x="88" y="520"/>
      <point x="154" y="520" type="curve" smooth="yes"/>
      <point x="174" y="520" type="line"/>
    </contour>
  </outline>
</glyph>
<glyph name="four.sc" format="1">
  <advance width="250"/>
  <outline>
    <contour>
      <point x="234" y="0" type="line"/>
      <point x="106" y="0" type="line"/>
      <point x="106" y="18" type="line"/>
      <point x="131" y="18" type="line"/>
      <point x="131" y="108" type="line"/>
      <point x="11" y="108" type="line"/>
      <point x="11" y="129" type="line"/>
      <point x="131" y="520" type="line"/>
      <point x="209" y="520" type="line"/>
      <point x="209" y="129" type="line"/>
      <point x="234" y="129" type="line"/>
      <point x="234" y="108" type="line"/>
      <point x="209" y="108" type="line"/>
      <point x="209" y="18" type="line"/>
      <point x="234" y="18" type="line"/>
    </contour>
    <contour>
      <point x="131" y="129" type="line"/>
      <point x="131" y="454" type="line"/>
      <point x="34" y="129" type="line"/>
    </contour>
  </outline>
</glyph>
<glyph name="guillemotleft.sc" format="1">
  <advance width="300"/>
  <outline>
    <contour>
      <point x="272" y="81" type="line"/>
      <point x="242" y="81" type="line"/>
      <point x="140" y="260" type="line"/>
      <point x="140" y="280" type="line"/>
      <point x="242" y="460" type="line"/>
      <point x="272" y="460" type="line"/>
      <point x="227" y="270" type="line"/>
    </contour>
    <contour>
      <point x="148" y="81" type="line"/>
      <point x="118" y="81" type="line"/>
      <point x="16" y="260" type="line"/>
      <point x="16" y="280" type="line"/>
      <point x="118" y="460" type="line"/>
      <point x="148" y="460" type="line"/>
      <point x="103" y="270" type="line"/>
    </contour>
  </outline>
</glyph>
<glyph name="guillemotright.sc" format="1">
  <advance width="300"/>
  <outline>
    <contour>
      <point x="284" y="260" type="line"/>
      <point x="182" y="81" type="line"/>
      <point x="152" y="81" type="line"/>
      <point x="197" y="270" type="line"/>
      <point x="152" y="460" type="line"/>
      <point x="182" y="460" type="line"/>
      <point x="284" y="280" type="line"/>
    </contour>
    <contour>
      <point x="160" y="260" type="line"/>
      <point x="58" y="81" type="line"/>
      <point x="28" y="81" type="line"/>
      <point x="73" y="270" type="line"/>
      <point x="28" y="460" type="line"/>
      <point x="58" y="460" type="line"/>
      <point x="160" y="280" type="line"/>
    </contour>
  </outline>
</glyph>
<glyph name="hyphen.sc" format="1">
  <advance width="150"/>
  <outline>
    <contour>
      <point x="133" y="258" type="line"/>
      <point x="17" y="258" type="line"/>
      <point x="17" y="282" type="line"/>
      <point x="133" y="282" type="line"/>
    </contour>
  </outline>
</glyph>
<glyph name="less.sc" format="1">
  <advance width="270"/>
  <outline>
    <contour>
      <point x="226" y="175" type="line"/>
      <point x="30" y="260" type="line"/>
      <point x="30" y="280" type="line"/>
      <point x="226" y="365" type="line"/>
      <point x="226" y="338" type="line"/>
      <point x="62" y="270" type="line"/>
      <point x="226" y="202" type="line"/>
    </contour>
  </outline>
</glyph>
<glyph name="macron" format="1">
  <advance width="300"/>
  <outline>
    <contour>
      <point x="250" y="573" type="line"/>
      <point x="50" y="573" type="line"/>
      <point x="50" y="633" type="line"/>
      <point x="250" y="633" type="line"/>
    </contour>
  </outline>
</glyph>
<glyph name="nine.sc" format="1">
  <advance width="278"/>
  <outline>
    <contour>
      <point x="253" y="97" type="line" smooth="yes"/>
      <point x="253" y="38"/>
      <point x="205" y="-5"/>
      <point x="139" y="-5" type="curve" smooth="yes"/>
      <point x="73" y="-5"/>
      <point x="25" y="38"/>
      <point x="25" y="97" type="curve" smooth="yes"/>
      <point x="25" y="159" type="line"/>
      <point x="103" y="159" type="line"/>
      <point x="103" y="53" type="line" smooth="yes"/>
      <point x="103" y="30"/>
      <point x="117" y="13"/>
      <point x="139" y="13" type="curve" smooth="yes"/>
      <point x="161" y="13"/>
      <point x="175" y="30"/>
      <point x="175" y="53" type="curve" smooth="yes"/>
      <point x="175" y="242" type="line"/>
      <point x="161" y="230"/>
      <point x="139" y="223"/>
      <point x="113" y="223" type="curve" smooth="yes"/>
      <point x="60" y="223"/>
      <point x="25" y="250"/>
      <point x="25" y="315" type="curve" smooth="yes"/>
      <point x="25" y="423" type="line" smooth="yes"/>
      <point x="25" y="482"/>
      <point x="73" y="525"/>
      <point x="139" y="525" type="curve" smooth="yes"/>
      <point x="205" y="525"/>
      <point x="253" y="482"/>
      <point x="253" y="423" type="curve" smooth="yes"/>
    </contour>
    <contour>
      <point x="175" y="258" type="curve"/>
      <point x="175" y="467" type="line" smooth="yes"/>
      <point x="175" y="490"/>
      <point x="161" y="507"/>
      <point x="139" y="507" type="curve" smooth="yes"/>
      <point x="117" y="507"/>
      <point x="103" y="490"/>
      <point x="103" y="467" type="curve" smooth="yes"/>
      <point x="103" y="281" type="line" smooth="yes"/>
      <point x="103" y="258"/>
      <point x="115" y="243"/>
      <point x="136" y="243" type="curve" smooth="yes"/>
      <point x="149" y="243"/>
      <point x="160" y="246"/>
    </contour>
  </outline>
</glyph>
<glyph name="numbersign.sc" format="1">
  <advance width="330"/>
  <outline>
    <contour>
      <point x="325" y="361" type="line"/>
      <point x="282" y="361" type="line"/>
      <point x="258" y="159" type="line"/>
      <point x="305" y="159" type="line"/>
      <point x="305" y="141" type="line"/>
      <point x="256" y="141" type="line"/>
      <point x="240" y="0" type="line"/>
      <point x="166" y="0" type="line"/>
      <point x="182" y="141" type="line"/>
      <point x="122" y="141" type="line"/>
      <point x="106" y="0" type="line"/>
      <point x="30" y="0" type="line"/>
      <point x="46" y="141" type="line"/>
      <point x="5" y="141" type="line"/>
      <point x="5" y="159" type="line"/>
      <point x="48" y="159" type="line"/>
      <point x="72" y="361" type="line"/>
      <point x="25" y="361" type="line"/>
      <point x="25" y="379" type="line"/>
      <point x="74" y="379" type="line"/>
      <point x="90" y="520" type="line"/>
      <point x="166" y="520" type="line"/>
      <point x="150" y="379" type="line"/>
      <point x="210" y="379" type="line"/>
      <point x="226" y="520" type="line"/>
      <point x="300" y="520" type="line"/>
      <point x="284" y="379" type="line"/>
      <point x="325" y="379" type="line"/>
    </contour>
    <contour>
      <point x="208" y="361" type="line"/>
      <point x="148" y="361" type="line"/>
      <point x="124" y="159" type="line"/>
      <point x="184" y="159" type="line"/>
    </contour>
  </outline>
</glyph>
<glyph name="ordfeminine.sc" format="1">
  <advance width="196"/>
  <outline>
    <contour>
      <point x="181" y="208" type="line"/>
      <point x="92" y="208" type="line"/>
      <point x="92" y="223" type="line"/>
      <point x="107" y="223" type="line"/>
      <point x="99" y="290" type="line"/>
      <point x="60" y="290" type="line"/>
      <point x="51" y="223" type="line"/>
      <point x="66" y="223" type="line"/>
      <point x="66" y="208" type="line"/>
      <point x="15" y="208" type="line"/>
      <point x="15" y="223" type="line"/>
      <point x="30" y="223" type="line"/>
      <point x="72" y="520" type="line"/>
      <point x="125" y="520" type="line"/>
      <point x="166" y="223" type="line"/>
      <point x="181" y="223" type="line"/>
    </contour>
    <contour>
      <point x="97" y="305" type="line"/>
      <point x="79" y="449" type="line"/>
      <point x="61" y="305" type="line"/>
    </contour>
  </outline>
</glyph>
<glyph name="ordmasculine.sc" format="1">
  <advance width="220"/>
  <outline>
    <contour>
      <point x="188" y="273" type="line" smooth="yes"/>
      <point x="188" y="233"/>
      <point x="149" y="207"/>
      <point x="110" y="207" type="curve" smooth="yes"/>
      <point x="70" y="207"/>
      <point x="32" y="233"/>
      <point x="32" y="273" type="curve" smooth="yes"/>
      <point x="32" y="459" type="line" smooth="yes"/>
      <point x="32" y="499"/>
      <point x="70" y="525"/>
      <point x="110" y="525" type="curve" smooth="yes"/>
      <point x="149" y="525"/>
      <point x="188" y="499"/>
      <point x="188" y="459" type="curve" smooth="yes"/>
    </contour>
    <contour>
      <point x="131" y="245" type="curve" smooth="yes"/>
      <point x="131" y="487" type="line" smooth="yes"/>
      <point x="131" y="500"/>
      <point x="123" y="511"/>
      <point x="110" y="511" type="curve" smooth="yes"/>
      <point x="97" y="511"/>
      <point x="89" y="500"/>
      <point x="89" y="487" type="curve" smooth="yes"/>
      <point x="89" y="245" type="line" smooth="yes"/>
      <point x="89" y="232"/>
      <point x="97" y="221"/>
      <point x="110" y="221" type="curve" smooth="yes"/>
      <point x="123" y="221"/>
      <point x="131" y="232"/>
    </contour>
  </outline>
</glyph>
